<svg xmlns="http://www.w3.org/2000/svg" viewBox="0 0 201 61"><defs><style>.cls-1{fill:none;stroke:#fff;stroke-miterlimit:10;}.cls-2{fill:#fff;}</style></defs><g id="Capa_2" data-name="Capa 2"><g id="Capa_1-2" data-name="Capa 1"><path class="cls-1" d="M161.53,60.5H39.47C18,60.5.5,47.07.5,30.5h0C.5,13.93,18,.5,39.47.5H161.53c21.52,0,39,13.43,39,30h0C200.5,47.07,183.05,60.5,161.53,60.5Z"/><path class="cls-2" d="M43.74,31.58v3.76A13.51,13.51,0,0,1,37.31,37a11.69,11.69,0,0,1-4.17-.71,8.05,8.05,0,0,1-3-1.9,8.59,8.59,0,0,1-1.75-2.66,8,8,0,0,1,0-6.16,8.58,8.58,0,0,1,1.82-2.7,8.48,8.48,0,0,1,3.12-1.94,12.06,12.06,0,0,1,4.33-.73,11.24,11.24,0,0,1,5.88,1.44v3.76a8.86,8.86,0,0,0-1.13-.7A9.52,9.52,0,0,0,40.51,24,9.24,9.24,0,0,0,38,23.61,6.45,6.45,0,0,0,33.7,25,4.4,4.4,0,0,0,32,28.58a4.43,4.43,0,0,0,1.69,3.67,6.45,6.45,0,0,0,4.12,1.34,9.4,9.4,0,0,0,4.34-1.13Z"/><path class="cls-2" d="M64.79,28.6a7.59,7.59,0,0,1-.6,2.92,9.23,9.23,0,0,1-1.73,2.68,8.11,8.11,0,0,1-3,2,10.79,10.79,0,0,1-4.14.77,10.36,10.36,0,0,1-3.84-.71,8.65,8.65,0,0,1-3-1.89,8.8,8.8,0,0,1-1.86-2.67,7.45,7.45,0,0,1-.06-6A9.62,9.62,0,0,1,48.35,23a8.25,8.25,0,0,1,3-2,10.62,10.62,0,0,1,4.08-.76,10.33,10.33,0,0,1,3.9.72,8.85,8.85,0,0,1,3,1.89,8.68,8.68,0,0,1,1.85,2.69A7.74,7.74,0,0,1,64.79,28.6ZM59,32.33a4.56,4.56,0,0,0,1.52-3.63A4.9,4.9,0,0,0,59.16,25a5.87,5.87,0,0,0-7.48,0,4.76,4.76,0,0,0-1.44,3.68,5.55,5.55,0,0,0,.35,2,4,4,0,0,0,.9,1.43,5.48,5.48,0,0,0,1.26.91,5.08,5.08,0,0,0,1.37.5,6.39,6.39,0,0,0,1.28.13A5.34,5.34,0,0,0,59,32.33Z"/><path class="cls-2" d="M85.09,20.39V36.76H81v-10L76.57,32H76l-4.39-5.28v10H67.45V20.39h3.63l5.18,6.22,5.26-6.22Z"/><path class="cls-2" d="M100.81,33.76v3H88.74V20.39h11.9v3.05H92.87v3.31h7.41v3.07H92.87v3.94Z"/><path class="cls-2" d="M120.44,20.39V36.76H117L108,26.63V36.76h-4.06V20.39h3.72L116.41,30V20.39Z"/><path class="cls-2" d="M138.25,20.39l-8.93,13.3h8.93v3.07H122.36l9-13.3H123V20.39Z"/><path class="cls-2" d="M150.42,20.39l7.27,16.37H153.3L152,33.52h-7.32l-1.23,3.24h-4.32l6.6-16.37Zm.34,10.27-2.64-6.33-2.4,6.33Z"/><path class="cls-2" d="M159.59,20.39h6.29c.65,0,1.16,0,1.52,0a6.6,6.6,0,0,1,1.34.21,4.71,4.71,0,0,1,1.43.58,5.38,5.38,0,0,1,1.48,1.55,4.07,4.07,0,0,1,.66,2.31,4.3,4.3,0,0,1-2.81,4,5.8,5.8,0,0,1,2.35,3.08c.15.28.67,1.42,1.59,3.4l.55,1.18H169.5c-.11-.22-.46-1-1.06-2.3s-.94-2.08-1.05-2.31a8.52,8.52,0,0,0-.77-1.19,2.12,2.12,0,0,0-.78-.62,3,3,0,0,0-.7-.22c-.18,0-.46,0-.82,0h-.6v6.67h-4.13Zm6.19,3h-2.06v3.74h1.7c.59,0,1-.06,1.16-.08a1.68,1.68,0,0,0,.59-.21,1.63,1.63,0,0,0,.89-1.58C168.06,24,167.3,23.37,165.78,23.37Z"/></g></g></svg>