<svg xmlns="http://www.w3.org/2000/svg" xmlns:xlink="http://www.w3.org/1999/xlink" viewBox="0 0 679.7 581"><defs><style>.cls-1{fill:none;}.cls-2{isolation:isolate;}.cls-3{fill:#d8a173;}.cls-29,.cls-4{fill:#336;}.cls-4{mix-blend-mode:multiply;opacity:0.15;}.cls-5{fill:#4f657f;}.cls-6{fill:#2a3a51;}.cls-7{fill:#c1b4b4;}.cls-8{fill:#a08e8e;}.cls-9{fill:#ffcbae;}.cls-10{fill:#aa703c;}.cls-11{fill:#e88b67;}.cls-12{fill:#8c5d37;}.cls-13{fill:#fff;}.cls-14{fill:#353a49;}.cls-15{fill:#bababa;}.cls-16{fill:#eff9ff;}.cls-17{fill:#bf5925;}.cls-18{fill:#a04720;}.cls-19{fill:#312837;}.cls-20{fill:#211c26;}.cls-21{fill:#724622;}.cls-22{fill:#edd443;}.cls-23{clip-path:url(#clip-path);}.cls-24{fill:#c98831;}.cls-25{fill:#4c918c;}.cls-26{fill:#cff6ed;}.cls-27{fill:#35635c;}.cls-28{fill:#e9a532;}.cls-30{fill:#161638;}.cls-31{fill:#ff92af;}.cls-32{fill:#af4f72;}.cls-33{fill:#3a2d25;}.cls-34{fill:#5b8e8b;}.cls-35{fill:#83c6c4;}.cls-36{fill:#233a49;}.cls-37{fill:#4f6572;}.cls-38{fill:#ffebc2;}</style><clipPath id="clip-path"><path class="cls-1" d="M46.36,218.78c.25-11.91,4-26.1,7.6-37.24,5.07-16.72,8.61-29.9,23.81-40,9.88-6.59,22-8.61,33.44-8.36,1-5.57.76-7.85,7.6-8.61,4.82-.51,9.63.76,14.44,1.26,3.55.51,8.62.51,11.91,2,4.31,1.77,3.8,7.09,3.29,11.65,5.58,1,10.9,6.08,15,9.63,5.57,4.56,10.64,9.63,14.19,16,7.6,12.92,11.65,30.65,12.16,45.35.25,5.32,0,10.64,0,16,0,2.28.25,13.42-1.78,11.9Z"/></clipPath></defs><g class="cls-2"><g id="Capa_2" data-name="Capa 2"><g id="Capa_1-2" data-name="Capa 1"><path class="cls-3" d="M507,101.19h0a1.85,1.85,0,0,0,0-.24Z"/><path class="cls-4" d="M565.87,527.62c-28.35,0-53.86,2.91-71.58,7.56-15.14-8.08-49-13.71-88.45-13.71-35.83,0-67.09,4.65-83.86,11.57-17.28-3.83-40.4-6.17-65.82-6.17-35.56,0-66.64,4.58-83.5,11.41a351.91,351.91,0,0,0-52-3.63c-53.52,0-96.9,10.38-96.9,23.18S67.11,581,120.63,581c35.57,0,66.65-4.59,83.51-11.42a350.51,350.51,0,0,0,52,3.63c35.83,0,67.1-4.65,83.87-11.56,17.28,3.82,40.4,6.16,65.81,6.16,28.36,0,53.86-2.91,71.58-7.55,15.15,8.08,49,13.71,88.45,13.71,53.52,0,96.91-10.38,96.91-23.18S619.39,527.62,565.87,527.62Z"/><path class="cls-5" d="M451,525.9c4.94,0,10.32-.45,9.87,5.84-.44,7.17-19.29,5.83-26,6.28-3.14,0-10.32.89-13-1.35-1.79-1.79-.45-4.93-1.79-6.28-1.8-1.35-4.94-.9-6.73-2.24s-6.28-8.08-2.24-11.67c1.34-.9,10.76,1.35,13,2.69,4,2.25,9.87,12.57,16.15,6.73Z"/><path class="cls-6" d="M456.86,527.7c1.12-6.06-3.82-6.06-8.08-8.3-7.4-4-13.68-15.7-13.23-24-7-.9-13.91-.9-20.64-2.25-2.69,7.63-3.81,15.71-5.16,23.78,3.81,2,10.32,1.12,13,4.49,3.59,4.48,1.35,8.75,8.75,9.19a74.11,74.11,0,0,0,14.13,0c3.81-.44,7.18-1.79,10.77-2.46Z"/><path class="cls-5" d="M339.73,553c-1.34-.41-1.86,2-1.55,3.11.73,2.17,4.35,2.48,6.42,2.8a148.82,148.82,0,0,0,17.82,1.55,84.74,84.74,0,0,0,16.89-.93c2.49-.42,7.35-.31,8.8-2.59.73-1,.42-2.39.83-3.63.42-1.55,1.25-1.55,2.49-2.48,1.86-1.56,2-5.7.72-7.78a5.67,5.67,0,0,0-3.41-2.38c-1.45-.31-2.28.73-3.63.93Z"/><path class="cls-6" d="M390,527.7a37.69,37.69,0,0,1,1.57,11.21c0,2.25,0,4-1.57,5.84-2,1.79-4.49,1.12-5.83,3.36-1.35,2.92.44,4.49-3.14,6.51C378.79,556,375.43,556,373,556a128,128,0,0,1-16.15,0c-5.61-.67-11.67-.67-17.05-2.47-4.26-9.87,5.38-11.66,12.11-13.68,7.41-2.24,9.87-11.21,12.79-16.6Z"/><path class="cls-7" d="M441.15,499c1.35.45-9.42.9-11.66.9C422.76,499,406.16,494.5,408,486c.9-6.28,8.08-5.83,6.29-12.56-2.25-8.07-6.29-5.83-3.14-14.35,2.24-4.94,4.48-8.08,4.48-13.91,0-4.94-1.79-10.32-1.34-15.7.44-9.43,5.38-17.95,6.28-27.37,1.34-10.77-.45-22-1.35-32.75-.45-7.18-4.93-63.26-13-59.67.45,25.57-5.38,52.94-9,78.06-1.35,10.77-2.69,21.54-.9,32.3s-1.35,19.3-.9,30.06c.9,13.91-1.34,29.17-1.79,43.07-.45,6.28-1.8,12.56-1.35,18.85.45,5.83,4,11.21,3.14,16.6-12.11.89-24.67-4-37.23.44-.45-7.17,4-7.62,5.38-13,1.35-4.93-3.14-9.87-3.14-14.8,0-10.32,4-20.19,4.49-31,.89-23.78,1.79-47.1,0-71.33-1.35-23.33.44-46.66-1.8-69.54-1.79-22-5.38-44.42-5.38-66.4,16.6-2.24,32.75-.9,49.35-4.94,12.56-3.14,30.51,0,41.72-7.17,3.59,26.47,6.28,52.49,7.63,79,1.34,23.77-2.24,47.1-4.94,70-1.34,9,1.35,17.94-.89,26.46-2.7,9-5.39,16.6-6.73,26-.45,4-2.7,9-2.7,13,0,4.48,2.7,8.52,2.25,13s-2.7,6.73-2.7,11.66c0,.9,0,7.63.45,5.83Z"/><path class="cls-7" d="M413.34,266.74c0,13.46.6,26.92,0,40.08-3.89,1.79-8.38,1.49-12.57,1.49-.29-13.16-2.09-27.81-2.69-39.78"/><path class="cls-8" d="M413.34,266.74l.57,20c.17,6.68.17,13.37-.1,20.06v.29l-.26.12a18.07,18.07,0,0,1-6.35,1.49c-2.16.14-4.3.06-6.42.05h-.46v-.47c-.12-6.63-.63-13.25-1.07-19.88s-1-13.26-1.15-19.91c.27,3.32.56,6.63.89,9.93l.95,9.93c.65,6.61,1.14,13.25,1.33,19.91l-.48-.46c2.14,0,4.26.05,6.35-.1a17.09,17.09,0,0,0,6-1.35l-.28.41c.34-6.66.33-13.34.35-20S413.16,273.42,413.34,266.74Z"/><path class="cls-8" d="M432.18,297.54l-2.91,2.21c-1,.68-2.06,1.3-3.09,2s-2.17,1.12-3.25,1.68-2.25.95-3.38,1.44a59.72,59.72,0,0,1-14.27,3.27,125,125,0,0,1-14.6.55l-14.58-.34c2.43-.16,4.86-.22,7.29-.3l7.28-.12c4.85-.1,9.7-.21,14.5-.78a62.87,62.87,0,0,0,14.12-3A51.92,51.92,0,0,0,432.18,297.54Z"/><path class="cls-8" d="M377,315a53.61,53.61,0,0,0,5.8-1l5.74-1.32a54.18,54.18,0,0,1,5.85-1,18,18,0,0,1,5.94.2,29.1,29.1,0,0,0-5.83.57c-1.92.36-3.83.8-5.75,1.23s-3.85.84-5.82,1.12A25,25,0,0,1,377,315Z"/><path class="cls-8" d="M403,315.49a27.5,27.5,0,0,1-6.27,3.15c-2.2.82-4.43,1.52-6.63,2.28a56.75,56.75,0,0,0-6.48,2.5,14.44,14.44,0,0,0-5.35,4l-.28-.76a17.82,17.82,0,0,0,5.77.47,20.41,20.41,0,0,0,5.65-1.43c1.83-.73,3.59-1.65,5.39-2.52a49.43,49.43,0,0,1,5.51-2.33c-1.82.83-3.58,1.75-5.31,2.74s-3.47,1.95-5.31,2.78a18.63,18.63,0,0,1-5.84,1.65,19.17,19.17,0,0,1-6.09-.41l-.71-.16.43-.6a14.44,14.44,0,0,1,5.74-4.29,50.74,50.74,0,0,1,6.63-2.43c2.24-.67,4.5-1.28,6.71-2A30.9,30.9,0,0,0,403,315.49Z"/><path class="cls-8" d="M412.89,310.11c2.69-.13,5.39-.13,8.08-.13s5.37-.09,8-.31h0a31.55,31.55,0,0,1,4,.16,12.83,12.83,0,0,1,4,1,4.58,4.58,0,0,1,1.73,1.33,3.11,3.11,0,0,1,.65,2.17,5.68,5.68,0,0,1-.62,2.06,4.22,4.22,0,0,1-1.36,1.69,6.45,6.45,0,0,1-4,.92,20.92,20.92,0,0,1-4-.62c-2.59-.61-5-1.6-7.55-2.42,1.3.26,2.56.64,3.84,1s2.55.63,3.84.89a20.16,20.16,0,0,0,3.85.42,6.06,6.06,0,0,0,3.52-.87A3.4,3.4,0,0,0,438,316a4.61,4.61,0,0,0,.49-1.72,2.65,2.65,0,0,0-1.87-2.54,12.56,12.56,0,0,0-3.66-.95,31.38,31.38,0,0,0-3.89-.21h0a66.67,66.67,0,0,1-8.12,0C418.27,310.46,415.58,310.24,412.89,310.11Z"/><path class="cls-8" d="M421,320c2.47,1.43,4.72,3.12,7.11,4.54a30.63,30.63,0,0,0,3.68,1.92,16.51,16.51,0,0,0,4,1.16,9.69,9.69,0,0,1-4.27-.43,17.94,17.94,0,0,1-3.93-1.8A33.31,33.31,0,0,1,421,320Z"/><path class="cls-8" d="M420.07,474.31c2.73,1.27,5.29,2.79,7.88,4.23s5.18,2.85,7.82,4.29a33,33,0,0,1-8.31-3.42A50,50,0,0,1,420.07,474.31Z"/><path class="cls-8" d="M437.12,487.32a50.07,50.07,0,0,1-10.79-.73,60.85,60.85,0,0,1-10.45-2.9l.55-.58a9.68,9.68,0,0,0,3.41,4,19.11,19.11,0,0,0,4.92,2.31c1.75.59,3.55,1.06,5.35,1.54a40.79,40.79,0,0,1,5.39,1.75l1.21.52-1.28.31a22.32,22.32,0,0,1-5.47.66,21.18,21.18,0,0,1-5.43-.82c-1.76-.48-3.44-1.15-5.14-1.76s-3.41-1.18-5.15-1.65a46,46,0,0,1,5.26,1.33c1.73.51,3.44,1.09,5.18,1.52a20.11,20.11,0,0,0,5.28.61,24.7,24.7,0,0,0,5.26-.74l-.07.83c-3.39-1.39-7.11-2-10.7-3.15a20,20,0,0,1-5.15-2.5,10.49,10.49,0,0,1-3.67-4.45l-.4-.94.95.35A71.06,71.06,0,0,0,426.44,486,59.72,59.72,0,0,0,437.12,487.32Z"/><path class="cls-8" d="M367.13,505.71a55.21,55.21,0,0,1,8.34.36c2.75.3,5.48.59,8.26,1a35,35,0,0,1-8.37,0A69.9,69.9,0,0,1,367.13,505.71Z"/><path class="cls-8" d="M386.87,511.55a17.71,17.71,0,0,1-4.44,1c-1.51.17-3,.28-4.53.4a29.65,29.65,0,0,0-4.44.61,7.28,7.28,0,0,0-3.77,1.89l-.12-.66c3,1.55,6.41,1.94,9.8,2.42a43.15,43.15,0,0,1,5.1,1,17.38,17.38,0,0,1,4.87,2l.79.49-.87.31a21,21,0,0,1-10.25.62,28.45,28.45,0,0,1-5-1.24,29.35,29.35,0,0,1-4.67-2A34.62,34.62,0,0,0,379.1,521a21.73,21.73,0,0,0,9.86-.87l-.08.8a16.54,16.54,0,0,0-4.64-1.84c-1.64-.41-3.32-.64-5-.9s-3.4-.5-5.1-.89a18.88,18.88,0,0,1-4.95-1.76l-.49-.26.37-.4a7.62,7.62,0,0,1,4.25-2,32.29,32.29,0,0,1,4.57-.45c1.51-.08,3-.08,4.53-.16A19.78,19.78,0,0,0,386.87,511.55Z"/><path class="cls-9" d="M429.6,135.61a16.15,16.15,0,0,0,1-6.07c-.19-4-7-3.61-9.69-6.65-2.47-3-1.14-8.17-1.14-11.78,0-1.33.76-5.7-.19-6.46-.57-.76-5.13-.76-6.27-1-4.18-1-8.55-2.09-12.92-1.71-.76,5.7.38,16.34-4.75,20.52-2.09,1.52-6.46,1.71-9.12,1.52l7.1,10.6c5.51,1.85,11.82,2.47,17.41,3.08C417.63,138.39,423.33,137.1,429.6,135.61Z"/><path class="cls-9" d="M380.25,62.66c-4.94-2.85-10.64,1-11.78,6.46-1.71,8.74,5.89,15.2,13.87,11.59Z"/><path class="cls-9" d="M441.76,67.22c4.94-2.85,10.64,1,11.78,6.46,1.71,8.74-5.89,15.2-13.87,11.59Z"/><path class="cls-10" d="M373.79,58.48c-2.28-4.37-5.13-8.74-5.89-13.68-1.33-9.5,3.23-16.72,11.59-20.33a13.61,13.61,0,0,1,6.84-19.95c9.5-3.42,17.48-.76,26.6,1.14.57-9.88,16-4.37,20.53-1.71a22.25,22.25,0,0,1,11.59,19.19c5.13-1.33,8.93.95,11,5.7,1.29,2.95.82,7,.79,10.12-.05,4.39-.36,8.84-2,13a77.48,77.48,0,0,1-5.8,12.5c-2.17,3.58-6,9.23-6,9.23s-1.48,9.9-1.86,13.51a33.09,33.09,0,0,1-3.8,12.54c-5.52,9.31-14.83,13.3-25.66,13.68-9.88.38-16.34-1.71-23.94-8.36-6.65-5.7-8.55-16-8.17-23.94.19-4.56.38-9.12.76-13.68C380.44,67.41,375.12,60.76,373.79,58.48Z"/><path class="cls-9" d="M417.87,24.47c0,12.16-17.86,5.32-24.13,5.89-14.82,1.52-9.5,20-8.55,29.83.76,7.41,1.52,16.53.19,23.94a47.89,47.89,0,0,1,27.74-4c7.41,1.14,17.29,1.52,23,7h0c1.52-7.6-.19-16.34.76-24.13.95-8.55,1.9-17.86,1.14-26.41-1.14-11.4-12.17-11.4-19.77-13.3Z"/><path class="cls-9" d="M405.9,73.49c0,4.94.19,15.77,8.36,13.68,9.69-2.66.95-17.29.19-22.8-.19-1.14-.19-2.66-.38-3.8"/><path class="cls-11" d="M405.9,73.49a49.94,49.94,0,0,0,.58,6,12.93,12.93,0,0,0,2,5.5,4.89,4.89,0,0,0,2.15,1.71,5.47,5.47,0,0,0,2.76.19,5.56,5.56,0,0,0,4.38-3,10,10,0,0,0,.34-5.67,44.86,44.86,0,0,0-1.51-5.79c-.59-1.92-1.28-3.82-1.83-5.77a15.39,15.39,0,0,1-.52-3c-.07-1,0-2-.15-3,.22,1,.28,2,.42,3a14,14,0,0,0,.72,2.9c.64,1.89,1.4,3.76,2.09,5.67A36.36,36.36,0,0,1,419,78a10.9,10.9,0,0,1-.33,6.23,5.67,5.67,0,0,1-2.15,2.45,8,8,0,0,1-3,1.09,6.3,6.3,0,0,1-3.21-.29,5.32,5.32,0,0,1-2.46-2.07A13.54,13.54,0,0,1,406,79.56,39.71,39.71,0,0,1,405.9,73.49Z"/><path class="cls-12" d="M397.73,45.37c-1.9,1.33-5.13,1.9-4.75-1.9.19-2.09,3.61-4.56,5.89-4,1.71.38,3.42,3.23,1.9,4.18Z"/><path class="cls-12" d="M425.46,45.37c1.9,1.33,5.13,1.9,4.75-1.9-.19-2.09-3.61-4.56-5.89-4-1.71.38-3.42,3.23-1.9,4.18Z"/><path d="M399.58,62.41c0,2.06-1.08,3.73-2.42,3.73s-2.42-1.67-2.42-3.73,1.08-3.74,2.42-3.74S399.58,60.34,399.58,62.41Z"/><path d="M426.56,62.41c0,2.06-1.08,3.73-2.42,3.73s-2.42-1.67-2.42-3.73,1.08-3.74,2.42-3.74S426.56,60.34,426.56,62.41Z"/><path class="cls-13" d="M401,94.2c-.95,10.45,16.53,12.54,16.15,2.09Z"/><path class="cls-13" d="M411,137.71c-5.59-.61-11.9-1.23-17.41-3.08l19.12,28.54c3.8-4.75,7.79-9.31,10.64-14.82,1.82-3.38,4.7-8.17,6.22-12.74C423.33,137.1,417.63,138.39,411,137.71Z"/><path class="cls-14" d="M467.15,181.54c-.51-6.34-1.77-11.91-3-18.24-1-5.58-1-11.4-3.8-16.72a42.89,42.89,0,0,0-18-18.75c-5.84-3.17-7.82-2-13.71-3.84l-16.44,33.23-22-35.2c-6.06,0-11.95-2.38-18-.27-15.46,5.07-27.62,19.25-41.8,27.11a145.14,145.14,0,0,1-22,10.13c-3.3,1-8.11,1.77-10.9,3.55-3.54,2.53-.76,5.32.76,9.37,1.78,3.55,2.79,7.6,4.56,11.15,1.52,3.54,1.27,4.81,5.07,4.81,7.09,0,15.45-3.55,22-5.57,11.65-3.55,22.8-8.36,32.17-15.71,2.28,14.44.26,30.15-.25,44.84-.25,5.57-2.53,14.95-.51,20.27,1.52,4.3,13.68,5.32,18.75,5.82,17.73,2,35.47-2,53.46-2,7.34,0,14.69-1,22-1.27,2.28,0,9.12,1,10.89-.25s1.27-5.83,1.27-8.11A433.31,433.31,0,0,0,467.15,181.54Z"/><path d="M454.74,164.56a22.76,22.76,0,0,1-.65,9.35,13,13,0,0,1-2.2,4.25,9.7,9.7,0,0,1-3.74,2.87,14,14,0,0,0,3.11-3.33,16,16,0,0,0,1.87-4.08A53.45,53.45,0,0,0,454.74,164.56Z"/><path d="M446.12,164.06c.78,5.81,1.4,11.63,1.93,17.47s.9,11.69,1.24,17.54.49,11.72.52,17.58q0,4.4-.05,8.79c-.09,2.93-.17,5.86-.34,8.79l-.15-8.79c-.06-2.92-.13-5.85-.23-8.77-.19-5.85-.41-11.7-.74-17.55s-.65-11.69-1-17.53Z"/><path class="cls-15" d="M85.9,555.36c-4.06.53-12.44,1.66-17.73.12a3.09,3.09,0,0,0,.24,3.82c3.51,4,19.83-.36,26.05-2.16,7.39-1.78,23.92-3.94,25.34-7.76.35-.94-.17-1.84,0-3.11C109.53,551,96,554.12,85.9,555.36Z"/><path class="cls-16" d="M82.9,545.33c-6.66,3.6-12.92,6.73-14.73,10.15,5.29,1.54,13.67.41,17.73-.12,2-.24,4.09-.58,6.27-1C90.71,550.16,87.21,547.3,82.9,545.33Z"/><path class="cls-17" d="M119.8,546.27c0-8.12-.86-17.23-2.78-22.22h-3.66a16.91,16.91,0,0,1-2.15,6.51,71.79,71.79,0,0,1-6.32,8.66A44.18,44.18,0,0,1,89.59,550a12.86,12.86,0,0,1,2.58,4.36C101.16,552.83,111.53,550.08,119.8,546.27Z"/><path class="cls-18" d="M104.89,539.22a71.79,71.79,0,0,0,6.32-8.66,16.91,16.91,0,0,0,2.15-6.51H102.24c.45,10-9.86,16.15-19.34,21.28A19.84,19.84,0,0,1,89.59,550,44.18,44.18,0,0,0,104.89,539.22Z"/><path class="cls-16" d="M93.3,547.56a1.25,1.25,0,0,1-.5-.11l-1.62-.77a31.59,31.59,0,0,0-5-2.08,1,1,0,0,1-.74-1.31,1.15,1.15,0,0,1,1.43-.69,33.67,33.67,0,0,1,5.37,2.23c.53.25,1.05.51,1.57.74a1,1,0,0,1,.51,1.4A1.16,1.16,0,0,1,93.3,547.56Z"/><path class="cls-16" d="M99,544.64a1.22,1.22,0,0,1-.71-.22,17.42,17.42,0,0,0-7.06-3,1,1,0,0,1-.86-1.25,1.13,1.13,0,0,1,1.35-.79,19.91,19.91,0,0,1,8,3.39,1,1,0,0,1,.17,1.48A1.16,1.16,0,0,1,99,544.64Z"/><path class="cls-16" d="M103.54,539.79a1.18,1.18,0,0,1-.48-.1l-1.16-.51a20.15,20.15,0,0,0-5.72-1.9,1.07,1.07,0,0,1-1-1.16,1.13,1.13,0,0,1,1.26-.91,21.9,21.9,0,0,1,6.45,2.09l1.13.5a1,1,0,0,1,.55,1.39A1.16,1.16,0,0,1,103.54,539.79Z"/><path class="cls-16" d="M108.05,534.66a1.12,1.12,0,0,1-.35-.06,40.52,40.52,0,0,0-8-1.33,1.08,1.08,0,0,1-1-1.15,1.15,1.15,0,0,1,1.25-.93,41.5,41.5,0,0,1,8.52,1.44,1,1,0,0,1,.72,1.32A1.13,1.13,0,0,1,108.05,534.66Z"/><path class="cls-16" d="M113.18,529.39H113l-3.8-.37c-2.6-.25-5.18-.51-7.83-.88a1.06,1.06,0,0,1-1-1.19,1.14,1.14,0,0,1,1.29-.88c2.62.37,5.16.62,7.73.87,1.27.12,2.54.24,3.83.38a1.07,1.07,0,0,1,1,1.16A1.11,1.11,0,0,1,113.18,529.39Z"/><path class="cls-15" d="M160.3,555.36c4,.53,12.44,1.66,17.73.12a3.11,3.11,0,0,1-.23,3.82c-2.9,3.29-19.84-.36-26.06-2.16-7.39-1.78-24.8-4.49-25.34-7.76-.16-1,.16-1.84,0-3.11C136.67,551,150.22,554.12,160.3,555.36Z"/><path class="cls-16" d="M163.3,545.33c6.66,3.6,12.91,6.73,14.73,10.15-5.29,1.54-13.68.41-17.73-.12-2-.24-4.09-.58-6.27-1C155.49,550.16,159,547.3,163.3,545.33Z"/><path class="cls-17" d="M137.41,537.36c-3.11-4.13-1.55-8.76-1.59-13.31h-6.64c-1.93,5-2.78,14.1-2.78,22.22,8.27,3.81,18.64,6.56,27.63,8.13a13,13,0,0,1,3.21-5C149.57,547,142,543.45,137.41,537.36Z"/><path class="cls-18" d="M137.41,537.36c4.57,6.09,12.16,9.64,19.83,12a20.48,20.48,0,0,1,6.06-4c-9.49-5.13-19.8-11.3-19.34-21.28h-8.14C135.86,528.6,134.3,533.23,137.41,537.36Z"/><path class="cls-16" d="M138.85,530.55a19.08,19.08,0,0,1-3-.2,1.07,1.07,0,0,1-.92-1.22,1.14,1.14,0,0,1,1.32-.84,30,30,0,0,0,5.65.07c1-.05,2-.09,2.88-.09a1,1,0,1,1,0,2.09c-.86,0-1.81,0-2.77.09S139.9,530.55,138.85,530.55Z"/><path class="cls-16" d="M137.56,536.32a1,1,0,1,1,0-2.09,37.65,37.65,0,0,0,7.3-1l.89-.18a1.15,1.15,0,0,1,1.36.79,1.06,1.06,0,0,1-.87,1.25l-.88.18A40,40,0,0,1,137.56,536.32Z"/><path class="cls-16" d="M141.48,541a1,1,0,1,1,0-2.09,19.74,19.74,0,0,0,6.23-1.51l1-.37a1.18,1.18,0,0,1,1.46.61,1,1,0,0,1-.67,1.35l-1,.36A21.87,21.87,0,0,1,141.48,541Z"/><path class="cls-16" d="M146,544.92a1.13,1.13,0,0,1-1.12-.83,1.05,1.05,0,0,1,.88-1.24,33.6,33.6,0,0,0,5.21-1.59c1-.36,2-.71,2.95-1a1.14,1.14,0,0,1,1.43.66,1,1,0,0,1-.71,1.32c-.95.29-1.89.63-2.83,1a39.2,39.2,0,0,1-5.58,1.69Z"/><path class="cls-16" d="M153.82,548a1.13,1.13,0,0,1-1.09-.75,1,1,0,0,1,.78-1.3,20.66,20.66,0,0,0,4.58-2l.89-.49a1.19,1.19,0,0,1,1.55.38,1,1,0,0,1-.41,1.43l-.88.47a22.37,22.37,0,0,1-5.11,2.26A1.06,1.06,0,0,1,153.82,548Z"/><path class="cls-19" d="M165.57,259.8c1.63,16,.92,31.38-1,47.38a55.56,55.56,0,0,1-1.26,8c-.9,3.27-12.61,174.65-13.38,178.59,0,1.43-2.34,2.87-2.34,4.3s1.56,3.22,1.56,3.94c-.78,3.58-2.33,5.73-2.72,9.3,0,2.51,1.55,5,1.94,7.53.78,5.73,2.33,11.82-3.5,13.61-4.28,1.07-17.17,0-21.06-1.44,0-10.74,2.39-27.57,2-38,0,0-2.91-207.24-2.91-210.6,0,0-4.65-2.05-7.18,1S117.8,493,117.8,493c-.4,10.39,2,27.22,2,38-3.89,1.44-16.78,2.51-21.06,1.44-5.84-1.79-4.28-7.88-3.5-13.61.39-2.51,2-5,2-7.53-.39-3.57-2-5.72-2.73-9.3,0-.72,1.56-2.51,1.56-3.94s-2.34-2.87-2.34-4.3c-.78-3.94.78-7.16.78-11.1,0,0-1.9-24.9-5-54-1.58-14.54-3.89-29-6.08-43.52q-5.25-34.63-10.88-69.21c-1.16-7.2-3.63-15.23-3.34-22.46S68,279.53,68,272.45c0-2.21-.87-6.34,0-8.41.61-1.48.86-1.2,2.79-1.2,5.57,0,11.08-.8,16.58-.76,6.91.05,13.76.63,20.67.79l30.38.68c4,.09,7.94.69,11.94.47,1.93-.12,8.42-.94,8.42-.94"/><path class="cls-20" d="M99.51,518.29l.64.16c.4.1.95.32,1.6.51s1.34.42,2.15.6,1.63.44,2.49.62c.41.13.85.19,1.27.29s.84.2,1.25.26l2.26.48c1.33.29,2.24.58,2.24.58a11,11,0,0,1-2.32.44,14.28,14.28,0,0,1-2.41.07,10.63,10.63,0,0,1-1.36-.14c-.46-.08-.94-.12-1.4-.24l-1.37-.38c-.45-.13-.86-.35-1.27-.51a10.94,10.94,0,0,1-2.11-1.2,8,8,0,0,1-1.23-1.08C99.66,518.47,99.51,518.29,99.51,518.29Z"/><path class="cls-20" d="M98.88,509.56s.19-.06.54-.13.85-.12,1.36-.3c.26-.07.54-.15.82-.2s.59-.21.91-.29a7,7,0,0,0,.95-.31c.32-.12.66-.23,1-.36.63-.27,1.27-.51,1.86-.81.28-.15.61-.24.87-.41s.52-.27.77-.39c.51-.22.87-.49,1.19-.63s.49-.24.49-.24a3.21,3.21,0,0,1-.2.47,4.93,4.93,0,0,1-.74,1.17,6.57,6.57,0,0,1-1.45,1.35,4.52,4.52,0,0,1-1,.62l-1.08.52c-.37.14-.78.24-1.16.35a5.77,5.77,0,0,1-1.16.21,7.4,7.4,0,0,1-2.11,0,4.71,4.71,0,0,1-1.37-.38Z"/><path class="cls-20" d="M100.15,497.93a7.21,7.21,0,0,1,1.57-.25,13.67,13.67,0,0,1,1.57,0c.27,0,.57,0,.86.07a6.82,6.82,0,0,0,.88.11,13.58,13.58,0,0,1,3.14.6,8.41,8.41,0,0,1,1.45.62,6.22,6.22,0,0,1-1.51.41,15.71,15.71,0,0,1-3.44.13,12.87,12.87,0,0,1-3.16-.93A8,8,0,0,1,100.15,497.93Z"/><path class="cls-20" d="M130.48,513.64l.62.29c.4.19.92.52,1.56.85s1.32.75,2.11,1.13,1.59.81,2.42,1.19c.4.21.83.34,1.25.51a8.58,8.58,0,0,0,1.23.43c.41.09.8.26,1.18.35a11,11,0,0,1,1.11.2,12.46,12.46,0,0,0,1.72.2l.7.08s-.22.11-.63.27a5.75,5.75,0,0,1-1.8.48,8.45,8.45,0,0,1-2.69,0,6.71,6.71,0,0,1-1.46-.33c-.48-.18-1-.31-1.46-.52s-.9-.47-1.34-.7a13.94,13.94,0,0,1-1.2-.81,12.69,12.69,0,0,1-1.88-1.67,9.38,9.38,0,0,1-1.08-1.35C130.6,513.85,130.48,513.64,130.48,513.64Z"/><path class="cls-20" d="M145.64,497.34s-.1.21-.31.56a6.38,6.38,0,0,1-1,1.38,9,9,0,0,1-2,1.62,6.8,6.8,0,0,1-1.27.71c-.46.19-.9.44-1.38.59l-1.46.42c-.48.13-1,.16-1.43.24a12.23,12.23,0,0,1-2.58.11,11.61,11.61,0,0,1-1.8-.24l-.68-.15s.25-.09.67-.21,1-.24,1.7-.42,1.5-.35,2.32-.63,1.71-.49,2.57-.8c.44-.11.84-.32,1.26-.47a8.79,8.79,0,0,0,1.21-.51c.37-.19.77-.33,1.12-.5s.65-.36,1-.51c.63-.28,1.12-.68,1.5-.87Z"/><path class="cls-12" d="M104.86,79.26c-5.43-2.81-12.24-.38-14.35,6.37-2.67,8.52,4.44,17.63,13.55,13.08a10.6,10.6,0,0,0,3-2.09Z"/><path class="cls-12" d="M156.05,102.94c.95,1.52,4.94,1.71,6.65,1.71a11.54,11.54,0,0,0,9.88-6.08c4-7.22-1.71-16.72-10.45-14.63-.38.19-.76.19-1.14.38Z"/><path d="M169.16,38.53c-2.66-9.31-9.5-15-18.62-18-15-4.94-34.77-.57-43.32,13.3-7.81,12.61-6.66,31-5.08,45.8,7.77-2.77,6.31-19.68,5.46-25.47,8.93-2.47,10.45-13.11,11-21.47,3.8.76,7,2.66,11.21,2.85,3.8.19,25.46,3,31.92,1.14,0,8.63.92,16.81,6.49,23.46C169.4,52.82,171.13,45.84,169.16,38.53Z"/><path class="cls-10" d="M129.83,35.49c-4.18-.19-7.41-2.09-11.21-2.85-.57,8.36-2.09,19-11,21.47.85,5.79,2.31,22.7-5.46,25.47q.17,1.55.33,3c1.42,12.23,6.16,27.44,19,31.58a164,164,0,0,1-4.92,16.17l27.87,4.31s-.69-13.46-.47-19.23a43.54,43.54,0,0,0,10.79-6.23c7.79-5.89,7.79-13.49,9.12-22.42,1.33-8.55,2.85-16.91,4.18-25.27.07-.48.15-1,.22-1.43-5.57-6.65-6.49-14.83-6.49-23.46C155.29,38.53,133.63,35.68,129.83,35.49Z"/><path class="cls-21" d="M124.13,94.58a9,9,0,0,0,2.4,5.63,10.71,10.71,0,0,0,5.3,2.9,13.46,13.46,0,0,0,6.12,0,10.31,10.31,0,0,0,5.37-3.06,8.27,8.27,0,0,1-2.21,2.36,10.77,10.77,0,0,1-3,1.44,12.48,12.48,0,0,1-6.56.2,10.45,10.45,0,0,1-5.64-3.37,8.3,8.3,0,0,1-1.56-2.91A8.63,8.63,0,0,1,124.13,94.58Z"/><path class="cls-21" d="M132.49,89.64a9.68,9.68,0,0,0,4.17,1.17,9,9,0,0,0,4.19-.64,5.43,5.43,0,0,0,2.93-2.72,7.26,7.26,0,0,0,.63-4c-.28-2.82-1.85-5.38-2.88-8.18a22.45,22.45,0,0,1-1.17-4.32,17.46,17.46,0,0,1-.08-4.45,21.83,21.83,0,0,0,2,8.48c1.15,2.64,2.81,5.24,3.17,8.36a8.12,8.12,0,0,1-.78,4.57,6.12,6.12,0,0,1-3.5,3A9.58,9.58,0,0,1,132.49,89.64Z"/><path d="M124.26,51.45c-1.77.89-6,1.27-3.67-2.41,1-1.9,5.32-3.42,6.33-.88a1.55,1.55,0,0,1-.38,2Z"/><path d="M153.2,54.49c1.77.89,6,1.27,3.67-2.41-1-1.9-5.32-3.42-6.33-.88a1.54,1.54,0,0,0,.38,2Z"/><path d="M124.77,67.09c0,2.07-1.09,3.74-2.42,3.74s-2.43-1.67-2.43-3.74,1.09-3.73,2.43-3.73S124.77,65,124.77,67.09Z"/><path d="M153.65,70.13c0,2.07-1.09,3.74-2.42,3.74s-2.43-1.67-2.43-3.74,1.09-3.73,2.43-3.73S153.65,68.07,153.65,70.13Z"/><path class="cls-22" d="M46.36,218.78c.25-11.91,4-26.1,7.6-37.24,5.07-16.72,8.61-29.9,23.81-40,9.88-6.59,22-8.61,33.44-8.36,1-5.57.76-7.85,7.6-8.61,4.82-.51,9.63.76,14.44,1.26,3.55.51,8.62.51,11.91,2,4.31,1.77,3.8,7.09,3.29,11.65,5.58,1,10.9,6.08,15,9.63,5.57,4.56,10.64,9.63,14.19,16,7.6,12.92,11.65,30.65,12.16,45.35.25,5.32,0,10.64,0,16,0,2.28.25,13.42-1.78,11.9Z"/><g class="cls-23"><path class="cls-24" d="M118.6,124.05c-.41,1.81-.86,3.62-1.23,5.43l-1,5.47.51-5.55c.2-1.86.52-3.69.77-5.53Z"/><path class="cls-24" d="M123.78,124.34c-.4,3.86-1.89,7.34-2.31,11.09.09-3.77,1.27-7.47,1.31-11.14Z"/><path class="cls-24" d="M129.58,124.41c-.12,4.31-1.3,8.36-1.74,12.54,0-2.1.3-4.2.5-6.29a42.09,42.09,0,0,0,.24-6.23Z"/><path class="cls-24" d="M134.61,125.38c-.48,4.13-1.64,8.05-1.93,12.14,0-4.1.79-8.18.93-12.21Z"/><path class="cls-24" d="M139.64,125.86c-.08,2.14-.15,4.29-.31,6.43-.11,1.08-.18,2.13-.26,3.21,0,.53-.09,1.07-.15,1.6,0,.27-.06.54-.11.8a1.55,1.55,0,0,1-.24.76,1.68,1.68,0,0,0,.18-.77c0-.26,0-.53,0-.8l0-1.6c0-1.07,0-2.15,0-3.22,0-2.13-.08-4.27-.16-6.41Z"/><path class="cls-24" d="M144.3,126.88l-.15,6.06-.13,3-.07,1.51,0,.76c0,.13,0,.25-.05.38a1.29,1.29,0,0,1,0,.19s0,.08-.07,0a.25.25,0,0,1,0-.09c0,.06.08.15.09.05a.57.57,0,0,0,0-.18c0-.13,0-.25,0-.38v-.76l-.06-1.51-.12-3-.34-6.06Z"/></g><path class="cls-24" d="M69,167.54a27.35,27.35,0,0,0,.62,5,25.46,25.46,0,0,0,1.46,4.71,16.44,16.44,0,0,0,2.5,4.19,9.6,9.6,0,0,0,4,2.85A7.79,7.79,0,0,1,73,181.94a13.58,13.58,0,0,1-2.85-4.33,18.71,18.71,0,0,1-1.31-5A15.57,15.57,0,0,1,69,167.54Z"/><path class="cls-24" d="M81.38,164.5c-.56,2.39-1.11,4.78-1.56,7.2s-.91,4.82-1.3,7.24q-1.17,7.26-2.13,14.56c-.71,4.88-1.64,9.71-2.46,14.54-.2,1.21-.41,2.42-.57,3.62s-.26,2.44-.4,3.66a20.14,20.14,0,0,1-1.84,7.13,21.4,21.4,0,0,0,1.35-7.17c.09-1.23.15-2.45.26-3.68s.28-2.46.44-3.68c.67-4.88,1.6-9.7,2.23-14.56s1.42-9.73,2.37-14.56A118.74,118.74,0,0,1,81.38,164.5Z"/><path class="cls-24" d="M175.62,176.09a11.62,11.62,0,0,1,.13,5,18.09,18.09,0,0,1-1.56,4.85,16.34,16.34,0,0,1-2.89,4.21,7.67,7.67,0,0,1-4.42,2.42,9.35,9.35,0,0,0,3.84-3,20.33,20.33,0,0,0,2.57-4.12A24,24,0,0,0,175,181,17.29,17.29,0,0,0,175.62,176.09Z"/><path class="cls-24" d="M166.88,174c.2,5.09.18,10.19.06,15.29s-.41,10.18-.7,15.27-.76,10.16-1.2,15.23-1,10.14-1.53,15.2h0l0,.6v.08c-.08.05,0,0,0,0v-.45l0,.3v.15s0,.09,0,0v-.08l0-.6h0c.19-5.1.51-10.18.82-15.26l1-15.24c.37-5.07.64-10.15.93-15.23S166.68,179.09,166.88,174Z"/><path class="cls-20" d="M221.51,526.81c-.63,0-1.26-.55.61-2,2.8-2,10.66-2.38,13.49-1.56,6.31,1.91,3.82,4.2-.88,5.39-4.07,1.18-8.46,2.08-12.26-.43Z"/><path class="cls-9" d="M223.85,510.19c1.18,8.55,2.67,15.05,3.31,18.29,2.85,6.33,6.53,5.91,10.85.29.24-1.22.84-8.29,1.61-18.19A80,80,0,0,1,223.85,510.19Z"/><path class="cls-19" d="M216.07,446l-.09-.82A3.62,3.62,0,0,0,216.07,446Z"/><path class="cls-19" d="M225.25,527.23c-1.21,0-2.63-.27-2.41-.06-1-.33-1.13-.07-2-.81.83,4-1.09,10.88-6.22,15-3.15,3-19.75,13.22-12.56,16.48,3.61,1.82,14.69-3.5,17.46-5,6.33-3,11.06-7.92,17.8-10.23,2.49-4.08,1.65-11.51,2-16.74C235.59,527.33,231.63,528.09,225.25,527.23Z"/><path class="cls-20" d="M225.29,531.3a5.14,5.14,0,0,1,1-.57l.51-.19a3,3,0,0,0,.52-.23,7.6,7.6,0,0,1,1.07-.4,10.87,10.87,0,0,1,1.08-.41c.17-.07.37-.09.53-.15a2.57,2.57,0,0,1,.46-.2,5.84,5.84,0,0,1,1.14-.31,4.29,4.29,0,0,1-.57,1.06,2.56,2.56,0,0,1-.87.86,7.5,7.5,0,0,1-1.21.7,12.54,12.54,0,0,1-1.41.28,3.07,3.07,0,0,1-1.16-.07A4.56,4.56,0,0,1,225.29,531.3Z"/><path class="cls-20" d="M304.62,525.57c.63,0,1.26-.55-.61-2-2.82-2-10.67-2.34-13.5-1.51-6.3,1.94-3.8,4.22.9,5.39,4.08,1.16,8.47,2,12.26-.49Z"/><path class="cls-9" d="M302.21,509c-1.14,8.56-2.6,15.07-3.22,18.3-2.83,6.35-6.51,6-10.86.35-.25-1.23-.87-8.29-1.69-18.18A80.81,80.81,0,0,0,302.21,509Z"/><path class="cls-19" d="M309.7,444.74l.09-.82A3.62,3.62,0,0,1,309.7,444.74Z"/><path class="cls-19" d="M300.89,526c1.21,0,2.63-.28,2.41-.07,1-.34,1.13-.08,2-.83-.82,4,1.14,10.88,6.28,15,3.17,3,19.82,13.13,12.63,16.43-3.59,1.83-14.71-3.44-17.48-4.95-6.35-3-11.09-7.87-17.85-10.14-2.51-4.08-1.7-11.52-2.1-16.74C290.55,526.15,294.51,526.89,300.89,526Z"/><path class="cls-20" d="M300.86,530.08a4.86,4.86,0,0,0-1-.56,3.84,3.84,0,0,0-.51-.19c-.19-.05-.34-.17-.52-.23a6.74,6.74,0,0,0-1.06-.39,9.67,9.67,0,0,0-1.09-.41c-.17-.07-.38-.09-.54-.16s-.31-.13-.45-.19a6.46,6.46,0,0,0-1.14-.3,3.94,3.94,0,0,0,.57,1.05,2.47,2.47,0,0,0,.87.86,7.57,7.57,0,0,0,1.22.69,12.84,12.84,0,0,0,1.4.28,2.92,2.92,0,0,0,1.17-.08A4.57,4.57,0,0,0,300.86,530.08Z"/><path class="cls-25" d="M306.36,377.65c5.16-28.63,11.28-60.36,11.23-65.1,0-4.38.3-8.76-.14-12.74-.91-9.93-2.23-21.07-5.52-30.59-1.13-3.51-4.25-12.43-7.14-19.29l-4.05,1.85c-9.92,4.31-18.46,6.11-31.37,7.51-10.67,1.15-22.89-1.3-33.5-3.52a73.54,73.54,0,0,1-8.85-2.43c-4.12,8.78-7.59,17.23-8.93,25.09-1.48,8.77-3.15,27.77-3.05,36.52.12,10.75,3.59,64.78,6.14,84.75,0,0,.15,19.86-1.43,27.78-2.56,12.87-.84,52.34,2.2,77.64a169.6,169.6,0,0,0,19.39-.25c2.1-29.42,4.28-75.67,5.07-79.28.81-6.18,13.56-104.84,13.5-110.41a66.41,66.41,0,0,0,9.14-.5c.81,1.76,2.61,24.63,4.68,50l-.08.14c.09.62.16,1.25.24,1.89,1.72,20.88,3.59,43.1,5.26,56.46.05.63.1,1.09.12,1.29.81,3.61,3.19,49.85,5.43,79.26a167.29,167.29,0,0,0,19.39.16c2.92-25.3,4.47-64.79,1.85-77.65-1.61-7.9-1.55-27.77-1.55-27.77C305,393.34,305.7,386,306.36,377.65Z"/><path class="cls-26" d="M222,505.12c.21,1.77.43,3.47.66,5.09a108.65,108.65,0,0,0,18.29.53c.15-1.86.29-3.82.44-5.87A169.6,169.6,0,0,1,222,505.12Z"/><path class="cls-26" d="M304.09,503.88c-.21,1.77-.42,3.48-.63,5.09a108.83,108.83,0,0,1-18.3.62c-.15-1.86-.31-3.82-.46-5.87A167.29,167.29,0,0,0,304.09,503.88Z"/><path class="cls-27" d="M254,316.84l1.23-.42a33.8,33.8,0,0,1,3.28-.93l2.28-.44c.8-.17,1.65-.22,2.54-.32s1.79-.21,2.73-.2l2.82-.07c.94,0,1.89.08,2.82.1s1.84.13,2.72.19c1.76.14,3.39.36,4.78.56s2.56.42,3.37.55,1.27.26,1.27.26l-1.29.06c-.82,0-2,.07-3.41.07-2.82,0-6.56-.09-10.27-.15-1.86,0-3.72,0-5.45.07-.87.05-1.72,0-2.5.09l-2.24.15c-1.39.06-2.57.25-3.38.32S254,316.84,254,316.84Z"/><path class="cls-27" d="M223.87,260.36l.75.65.91.79,1.35.87a21.17,21.17,0,0,0,4,1.79c1.59.55,3.43,1,5.45,1.53l6.52,1.71c1.16.33,2.35.52,3.57.78s2.46.48,3.74.68,2.58.42,3.91.55,2.66.34,4,.41c2.71.23,5.47.3,8.23.31l4.14,0,4.09-.23c2.71-.24,5.37-.51,7.92-.94,1.29-.17,2.53-.46,3.75-.68s2.43-.45,3.57-.77,2.28-.54,3.36-.85l3.09-1c2-.66,3.74-1.34,5.32-1.94s2.91-1.25,4-1.8l3.4-1.75-3.24,2c-1,.63-2.39,1.27-3.89,2.08s-3.29,1.54-5.26,2.28L293.41,268c-1.07.37-2.21.67-3.36,1s-2.36.64-3.59.92-2.5.57-3.8.77c-2.59.48-5.29.8-8,1.08l-4.16.29c-1.4,0-2.8.06-4.2.1-2.81-.06-5.61-.17-8.36-.44-1.39-.08-2.74-.3-4.09-.47s-2.66-.38-3.95-.62-2.57-.45-3.8-.78-2.46-.57-3.59-.93l-6.44-2a47.86,47.86,0,0,1-5.42-1.87,20.52,20.52,0,0,1-3.91-2.11l-1.31-1-.83-.87Z"/><path class="cls-27" d="M262.27,271.19s.18.66.48,1.81.72,2.81,1.14,4.8c.22,1,.46,2.07.7,3.21s.37,2.38.52,3.65c.32,2.53.61,5.26.88,8,.09,2.73.19,5.46.22,8,0,1.27.06,2.51,0,3.68s-.13,2.27-.18,3.29c-.1,2-.28,3.73-.36,4.92s-.19,1.86-.19,1.86-.07-.68-.14-1.87-.22-2.88-.28-4.91c0-1-.07-2.12-.11-3.28s-.19-2.39-.25-3.65c-.18-2.53-.29-5.23-.42-7.93s-.49-5.36-.66-7.88c-.12-1.26-.13-2.49-.25-3.65s-.3-2.24-.42-3.26c-.27-2-.4-3.71-.53-4.9S262.27,271.19,262.27,271.19Z"/><path class="cls-27" d="M266,306.47s.41-.43,1.17-1.15a8.74,8.74,0,0,0,1.22-1.39,14.65,14.65,0,0,0,1.33-1.95,6.08,6.08,0,0,0,.62-1.19c.18-.43.42-.85.6-1.31a26.57,26.57,0,0,0,.89-3,29.84,29.84,0,0,0,.58-3.28c.12-1.13.25-2.29.27-3.46s.07-2.33.09-3.49,0-2.3,0-3.4c-.05-2.23-.09-4.3-.12-6.08,0-3.58.11-6,.11-6s.11.6.27,1.63.38,2.5.6,4.27.49,3.84.65,6.07a56.53,56.53,0,0,1,.15,7.06c0,1.2-.19,2.41-.33,3.6a25,25,0,0,1-.77,3.44,21,21,0,0,1-1.18,3.1,16.46,16.46,0,0,1-1.58,2.52,9.87,9.87,0,0,1-1.68,1.85,9.75,9.75,0,0,1-1.47,1.21C266.52,306.16,266,306.47,266,306.47Z"/><path class="cls-27" d="M217.54,281.55s.44,0,1.19,0,1.84-.06,3.1-.13c.62-.1,1.31-.11,2-.26l1.08-.2c.35-.11.72-.2,1.09-.3a12.1,12.1,0,0,0,2.16-.88,11.49,11.49,0,0,0,2-1.28l.91-.78.81-.88a17,17,0,0,0,1.41-1.9c.43-.64.8-1.3,1.15-1.93s.62-1.27.91-1.83c.52-1.16,1-2.14,1.26-2.84s.48-1.09.48-1.09a27.15,27.15,0,0,1-.81,4.27c-.2.63-.38,1.32-.68,2a15,15,0,0,1-1,2.17,14.15,14.15,0,0,1-1.44,2.18l-.9,1-1,.92a12.54,12.54,0,0,1-2.34,1.43,6.36,6.36,0,0,1-1.25.49,8.34,8.34,0,0,1-1.25.35c-.42.08-.83.17-1.23.23l-1.18.09a16.83,16.83,0,0,1-2.15,0,20.93,20.93,0,0,1-3.13-.52C218,281.67,217.54,281.55,217.54,281.55Z"/><path class="cls-27" d="M294.79,266.57s.26.38.69,1.06l1.71,2.83,1.12,1.88c.38.68.85,1.34,1.27,2.07s.93,1.42,1.45,2.1a22.87,22.87,0,0,0,1.64,2,14.56,14.56,0,0,0,1.87,1.74,12.42,12.42,0,0,0,2,1.35,10.09,10.09,0,0,0,2.15.77,11.15,11.15,0,0,0,2.06.33c.65.07,1.26,0,1.8,0a7.44,7.44,0,0,0,1.4-.17c.79-.12,1.25-.17,1.25-.17s-.41.19-1.16.49a7.31,7.31,0,0,1-1.38.48,13,13,0,0,1-1.89.36,9.12,9.12,0,0,1-2.32-.06,11.48,11.48,0,0,1-1.26-.22L306,283a10.94,10.94,0,0,1-2.43-1.4,18.29,18.29,0,0,1-2.13-1.91,25.4,25.4,0,0,1-1.71-2.23,25.75,25.75,0,0,1-1.41-2.29,40.64,40.64,0,0,1-2-4.29c-.52-1.27-.86-2.37-1.13-3.12S294.79,266.57,294.79,266.57Z"/><path class="cls-27" d="M258.18,260a4.8,4.8,0,0,1,.73,1.64,10.37,10.37,0,0,1,.33,1.82,17,17,0,0,1,.08,2,18.89,18.89,0,0,1-.49,3.78,12,12,0,0,1-.53,1.7,8.4,8.4,0,0,1-.46-1.73,21,21,0,0,1-.24-3.79c0-.69.07-1.37.13-2s.15-1.23.21-1.71C258.11,260.74,258.15,260,258.18,260Z"/><path class="cls-28" d="M269.14,265a2.51,2.51,0,1,1-2.53-2.48A2.51,2.51,0,0,1,269.14,265Z"/><path class="cls-29" d="M219.68,165.51c-12.87-2.86-21.2-15.24-22.87-27.87-2.14-16.67,9.05-27.15,15.24-41.44,5.72-13.34,4.77-27.64,5.48-41.69.48-13.1,5-30,20.49-32.63,3.57-.72,7.86,0,11.43.71a10,10,0,0,1,5.48,4.29c5.17-5.48,8.41-9.38,13.41-10.58,7.62-2.14,18-2.28,23.27,4.39,10.25,13.34,10,24.29,10,40.25a91,91,0,0,0,10,42.4c6.91,12.87,16.2,27.87,10,43.12-3.82,9-11.44,16.19-20.25,20.24-6,2.86-22.39,6-27.87,1.67Z"/><path class="cls-30" d="M240.6,42c3.37-2.48,11-6.6,15.27-3.93-4.67-7.59-14.76-4.56-18.24,2.41a16.9,16.9,0,0,0-1.36,5.73A45,45,0,0,1,240.6,42Z"/><path class="cls-30" d="M275.65,43.14c-1.22-4-3-8-5.6-9.8-4.51-3-12.74-.56-13.89,4.9a3.87,3.87,0,0,1,.59.48C262.47,33,270.1,38.14,275.65,43.14Z"/><path class="cls-9" d="M295.64,142.52c-3-3.8-10.39-4.05-14.69-6.33-5.7-3.28-9-10.81-10.6-18.32a61.1,61.1,0,0,0,5.78-3.47C283,110.35,286,105.54,288,97.68a69.69,69.69,0,0,0,1.62-15.21c-10.44-6.25-9.76-21.66-12.26-32.16-.4-2-1-4.58-1.75-7.17-5.55-5-13.18-10.14-18.9-4.42a3.87,3.87,0,0,0-.59-.48c0,.06,0,.11,0,.16-.08-.14-.17-.24-.25-.38C251.61,35.35,244,39.47,240.6,42a45,45,0,0,0-4.33,4.21,59.18,59.18,0,0,0,.6,10.23,79.7,79.7,0,0,1-.51,19,26.84,26.84,0,0,1-6.84,12.66c1.28,7,3.34,13.83,6.84,19.51,3.72,5.88,9,8.57,15,10.2a40.4,40.4,0,0,1-1.59,9.56c-1.78,6.08-4.82,8.36-10.39,11.15-4.31,2-9.88,3-12.67,6.59l-1,7.09c16.47,8.87,42,7.6,59.53,1.77C290.57,152.15,301.72,150.12,295.64,142.52Z"/><path class="cls-11" d="M261.12,77.86a5.72,5.72,0,0,0,.5,2.2A4.78,4.78,0,0,0,263,81.71a11.08,11.08,0,0,1,3.41,3.35,3.3,3.3,0,0,1,.12,2.63,4.82,4.82,0,0,1-1.49,2,5.33,5.33,0,0,1-4.5,1.26,6,6,0,0,0,4-1.84c1-1,1.63-2.47,1-3.62s-1.88-2.12-3-3.22a4.9,4.9,0,0,1-1.33-2.06A5,5,0,0,1,261.12,77.86Z"/><path class="cls-13" d="M250.67,99.14c2.66,9.12,19.38,10.07,19.76-.76Z"/><path class="cls-30" d="M239.46,61a4.12,4.12,0,0,1,0-2.48,5.13,5.13,0,0,1,1.36-2.16,5.27,5.27,0,0,1,2.21-1.26,4.32,4.32,0,0,1,2.47,0,7.78,7.78,0,0,0-4,2A7.11,7.11,0,0,0,239.46,61Z"/><path class="cls-30" d="M276.13,58.67a5.2,5.2,0,0,0-.78-2.21,5.35,5.35,0,0,0-1.61-1.53,9.23,9.23,0,0,0-2.08-1,18.24,18.24,0,0,0-2.37-.6,6.18,6.18,0,0,1,5,.74,4.5,4.5,0,0,1,1.76,2A3.45,3.45,0,0,1,276.13,58.67Z"/><path d="M274.14,72.08c0,2.07-1.09,3.74-2.42,3.74s-2.43-1.67-2.43-3.74,1.09-3.73,2.43-3.73S274.14,70,274.14,72.08Z"/><path d="M247.92,72.79c0,2.07-1.09,3.74-2.42,3.74s-2.43-1.67-2.43-3.74,1.09-3.73,2.43-3.73S247.92,70.73,247.92,72.79Z"/><path class="cls-31" d="M310.84,161.52a61.65,61.65,0,0,0-11.15-17.73,46.6,46.6,0,0,0-3.39-3.27c-2.43,4.25-7.86,7-12.57,7.58-5.82.76-30.9.76-37.49.25-5.72-.42-15-.69-18-6.24a24.7,24.7,0,0,0-2.79,2.44c-9.63,10.39-14.7,26.35-16.22,40A192,192,0,0,0,208,208.64v12.42c0,2.28-.76,10.64.76,12.16,1.26,1.26,8.1.76,9.88,1,3.8.76,7.6,2,11.14,3a138.2,138.2,0,0,0,24.58,4,145.92,145.92,0,0,0,38-2c8.86-1.52,19.5-3.8,28.37-3.55C320.47,210.67,319.71,185.34,310.84,161.52Z"/><path class="cls-32" d="M222.68,177.23a15.38,15.38,0,0,0,2,6,10.07,10.07,0,0,0,4.57,4.17,5.89,5.89,0,0,1-3.14-1.14,8.42,8.42,0,0,1-2.28-2.51,9.81,9.81,0,0,1-1.21-3.16A7.74,7.74,0,0,1,222.68,177.23Z"/><path class="cls-32" d="M229,170.39c.21,5.56.58,11.11,1,16.66s.68,11.12.8,16.7c0,2.8,0,5.55.13,8.33s.27,5.56.3,8.35c.05,5.54.07,11.26-1.67,16.59a37,37,0,0,0,1-8.25c.09-2.77,0-5.54-.12-8.32-.27-5.53-.67-11.12-.66-16.69s-.36-11.1-.56-16.67S228.81,176,229,170.39Z"/><path class="cls-32" d="M302.73,172.67a11,11,0,0,1-.34,7.83,11.39,11.39,0,0,1-5.23,5.85,18.16,18.16,0,0,0,4.3-6.23A17.13,17.13,0,0,0,302.73,172.67Z"/><path class="cls-32" d="M296.15,170.14c.2,5.7.2,11.41.19,17.12s-.13,11.41-.1,17.11,0,11.4.18,17.09l.15,4.28.22,4.26.27,4.27.35,4.27c-.21-1.41-.42-2.83-.61-4.24l-.5-4.26q-.39-4.26-.65-8.54c-.33-5.71-.39-11.42-.41-17.13s.15-11.42.33-17.12Z"/><path class="cls-33" d="M483.34,118.59c.94-4.68-1.17-9.6.23-14,1.88-5.62,10.54-6.55,9.14-12.64-1.17-5.39-6.32-9.61-.47-14.52,2.57-2.34,6.09-2.58,7.73-6.09,1.4-2.58,1.17-5.86,1.17-8.67,0-8.43-2.34-20.61,1.64-28.1,4.45-8,15.92-12.65,24.35-8.66,0-5.86,10.07-12.88,14.52-15.23,6.56-3.74,14.29-4.45,21.08-1.17,11.94,5.86,14.52,25.53,15.69,37,.47,5.16-.23,14.76,5.85,16.16,6.33,1.64,6.8.24,7.5,8.43.47,5.62-3.28,13.35,4,13.82,3.28.24,5.15-.7,7.26,2.11,1.17,1.87,1.64,4.45,2.11,6.56.46,2.34.46,4.45,1.87,6.55Z"/><path class="cls-3" d="M565.77,131.24c-4.45-2.58-5.62-6.79-7-11.24-1-3.39-1.47-8.43-2.43-12a41.52,41.52,0,0,0,10.16-9.83c6.32-8.43,2.81-21.78.46-30.68-1.87-6.79-8.19-29-8.19-29S543.52,47.17,538.14,49c-3.75,1.17-5.39.94-8.9-.23-.69-.24-7.32-2.75-7.48-2.81.29,3.55-3.14,9.59-7,9.13l.24,2.81c3,10.54,2.57,23,4,33.72.7,6.09,1.63,11,7,14.76,3.16,2.17,7.48,2.84,11.42,3.7.93,8.85,2.33,28.32-5.33,25.57l2.58,10.3c9.13,2.58,17.8-1.64,26.23-5.15,2.57-1.17,8-2.57,8.43-5.85S567.88,132.41,565.77,131.24Z"/><path class="cls-12" d="M539.54,63.79q.21,2.9.27,5.77l.2,5.75a63.18,63.18,0,0,0,1.35,11.33l-.38-.31a7.48,7.48,0,0,0,4.11-1A35.76,35.76,0,0,0,548.91,83q-.82.77-1.71,1.47a18.76,18.76,0,0,1-1.85,1.32,8.08,8.08,0,0,1-4.43,1.37h-.29l-.09-.3a46.74,46.74,0,0,1-1.46-11.51c0-1.93,0-3.86.11-5.78S539.41,65.72,539.54,63.79Z"/><path class="cls-12" d="M536.5,96.11A11.37,11.37,0,0,0,540.8,99a10.1,10.1,0,0,0,5,.55,9.16,9.16,0,0,0,4.58-2,10.49,10.49,0,0,0,3-4.24,8.62,8.62,0,0,1-2.44,4.82,9,9,0,0,1-5,2.44,9.65,9.65,0,0,1-5.46-.82A9.09,9.09,0,0,1,536.5,96.11Z"/><path d="M532,72.53c0,1.9-1,3.45-2.24,3.45s-2.24-1.55-2.24-3.45,1-3.46,2.24-3.46S532,70.62,532,72.53Z"/><path d="M556.54,71.17c0,1.91-1,3.46-2.24,3.46s-2.24-1.55-2.24-3.46,1-3.45,2.24-3.45S556.54,69.26,556.54,71.17Z"/><path class="cls-33" d="M522.92,61a8.63,8.63,0,0,1,.73-2A6.57,6.57,0,0,1,525,57.12a4.19,4.19,0,0,1,2-1.07,3.88,3.88,0,0,1,2.22.25,9,9,0,0,0-2,.5,5.43,5.43,0,0,0-1.59,1.05C524.69,58.73,524,59.93,522.92,61Z"/><path class="cls-33" d="M547.51,52.32a5.67,5.67,0,0,1,4.85-1.07,5.8,5.8,0,0,1,2.32,1.14,4.83,4.83,0,0,1,1.49,2,9.11,9.11,0,0,0-4-2.2A10.19,10.19,0,0,0,547.51,52.32Z"/><path class="cls-34" d="M576.57,128.42a61.21,61.21,0,0,0-6.75-1.56c-6,6.72-17.89,8.09-26.16,6.91a25,25,0,0,1-9-3.16c-1.32.51-2.64,1-3.94,1.64-1.5.68-2.9,1.41-4.25,2.18,4.63,3.76,13.3,6.31,23.26,6.31C564.41,140.74,576.31,135.24,576.57,128.42Z"/><path class="cls-35" d="M624.22,192.67c-3-10.26-5.32-20.52-9.5-30-7.7-17.82-21.76-29.46-38.15-34.23-.26,6.82-12.16,12.32-26.82,12.32-10,0-18.63-2.55-23.26-6.31C493.67,152.9,500,195.52,500,227.63l130.34-5.7C630.68,212.43,626.5,201.41,624.22,192.67Z"/><path class="cls-34" d="M510.6,171.77a29.46,29.46,0,0,0,.76,4.71,37,37,0,0,0,1.38,4.53,15.19,15.19,0,0,0,2.19,4.07,4.69,4.69,0,0,0,1.75,1.38,3.47,3.47,0,0,0,2.28.13,3.38,3.38,0,0,1-2.43.34,4.7,4.7,0,0,1-2.17-1.33,12.39,12.39,0,0,1-2.55-4.24,22.21,22.21,0,0,1-1.21-4.73A15.24,15.24,0,0,1,510.6,171.77Z"/><path class="cls-34" d="M517.44,164.17a127.75,127.75,0,0,1,2.11,12.62c.54,4.23.86,8.49,1.11,12.75.12,2.13.25,4.26.32,6.4s.06,4.25.18,6.37.27,4.25.42,6.37.26,4.26.35,6.39v0c.37,2.56.3,5.11.59,7.63h0c0,.72-.11,1.41-.15,2.12a9.21,9.21,0,0,0,0,1.05,1.09,1.09,0,0,0,0,.26c0,.09.06.15.13.06a2.2,2.2,0,0,0,.26-.45,2.35,2.35,0,0,1-.23.48s-.08.09-.14,0-.06-.08-.08-.12a1.28,1.28,0,0,1,0-.27,9.58,9.58,0,0,1,0-1.07c0-.7,0-1.42,0-2.11v0c-.46-2.52-.51-5.1-.94-7.57h0v0c-.34-4.24-.8-8.48-1.06-12.74-.14-2.13-.24-4.28-.26-6.41s-.15-4.24-.24-6.37q-.32-6.37-.85-12.73C518.52,172.62,518.05,168.39,517.44,164.17Z"/><path class="cls-34" d="M603.32,158.85a18,18,0,0,1,.72,9.63,15.67,15.67,0,0,1-1.65,4.62,10.09,10.09,0,0,1-3.25,3.61,14.41,14.41,0,0,0,2.55-4,20.54,20.54,0,0,0,1.37-4.46A31.06,31.06,0,0,0,603.32,158.85Z"/><path class="cls-34" d="M595.72,159.61a73.78,73.78,0,0,1,3.14,15.86c.56,5.38.76,10.77,1.17,16.13.18,2.68.4,5.37.67,8s.62,5.34.88,8a89.06,89.06,0,0,1,.6,16.16c0-2.7-.15-5.38-.42-8.06s-.57-5.35-.94-8c-.75-5.33-1.38-10.7-1.79-16.09s-.54-10.77-.93-16.13c-.2-2.68-.46-5.35-.85-8A71,71,0,0,0,595.72,159.61Z"/><path class="cls-34" d="M610.33,533.36c3.64-.55,4.61,1.74,5.39,4.83,1.66,7.5-1.73,11.2-8.71,12.81-9.26,2.6-29.88,4.78-29.22-9.75.39-5,5.27-6.48,10.35-5.57Z"/><path class="cls-3" d="M608.47,468.09c-1,25.06,1.93,46.58,5.86,69.16-5,3.82-10.93,4.83-17,4.79-2.9,0-13.75-.73-15.81-3.46-1.82-3,2.17-5.7,4.14-7.44a19,19,0,0,0,5.18-7.53c2.17-5.7,4.47-37.55,2.56-54.7Z"/><path class="cls-34" d="M612.59,526.84c-5.32-4-17-3.08-22.86-.77-2.39-10.07,4.94-13.82,14.12-14.3,4.71-.38,9.08,1.64,10.51,6.26.67,1.79,1.35,7.19-1.77,8.81Z"/><path class="cls-34" d="M549.19,522.76c2.09-.16,6.06,0,7.73,1.22,4.48,3.33,2.22,11.14-2.12,12.81-6.13,2.34-13.12-2.63-14.85,5.15-.76,3.74-.33,5.81-3.58,7.92-2.49,1.78-6.17,1.82-9,2.31a93.59,93.59,0,0,1-17.08.33c-3.18-.27-6.08-.3-7.9-3.32-.63-1.26-1.86-6.69-1.18-8.06,2.54-4.42,12.75-1.82,16.53-4,4.52-2.73,10.15-7.93,14.32-11.69Z"/><path class="cls-3" d="M549.76,476.15c-3.06,11-4.68,25.09-2.22,36,.78,3.1,1.55,6.2,2.59,9.27,1.1,3.86,2,4.58-1.84,6.47-5.85,2.58-10.49.58-14.21,6.67-3.7,6.36-7.91,6.44-15,7-3.4.27-13.19,2.9-13.59-2.07-.27-3.4,12-8.34,14.67-10.66a33.31,33.31,0,0,0,11-16.68c3.45-12.66.62-37.8.62-37.8Z"/><path class="cls-34" d="M538.22,533.65c-1.85-6.69-12.31-9-18-4.86-1.7-8,7.44-12.18,14.09-11.4a11.55,11.55,0,0,1,9.18,6.1c.91,1.51,1.39,7.52,1.53,5.93Z"/><path class="cls-36" d="M582.58,449.43a65.58,65.58,0,0,0,2.55-7.58c.28-5.28-3.52-8.84-3.59-14.1,0-4.91,2.89-7.6,3.57-12.22.65-5-2.5-9.27-2.55-14.19-1-21-1.25-41.66-5.73-62.36-2.1-8.61-3.58-18.31-7-26.11-2.55,20.56-6.23,40.17-5.94,61.2.22,15.78.47,31.91-.74,47.45-.25,5.63-1.56,11-1.11,16.58.31,3.84,2,11.77-1.21,15.55-2.88,3.39-15,1.55-19.85,2-5.93.48-11.8,1.65-18.07,2.16-.29-3.49-1-7.65-.56-11.19,1-5.34,5.57-9.22,5.85-14.51.33-4.59-3.14-8.52-2.49-13.49s3-10.07,3.32-15.36c.55-10.58-1-21-1.49-31.47-.46-10.14.46-20.4.35-30.56-.27-20.69-2.63-41.21-2.86-61.55-.34-4.18-1.7-7.94,1.27-10.28,3.32-2.38,12.53-1.36,16.36-1.68,11.54-.57,22.7-1.48,34.15-3.1,12.18-1.33,22.7-1.48,33.9-6.25,9.19,18.22,9.54,39.95,8.35,60.05-.93,10.26-2.55,20.57-3.48,30.82-.8,7.44-3.79,18.21-2.16,25.45.47,1.37,2,3,2.11,4.39-.18,2.12-1.22,2.21-1.43,4-.79,3.22-.71,4.27,0,8.77,1.55,6.2,1.71,12.5,2.21,18.78.73,9.06,4.29,27,.64,34Z"/><path class="cls-37" d="M622.88,439.86a127.54,127.54,0,0,1,1.58,28.3c-7.93,1.7-15.73,5.13-23.72,6.13-7,.91-17.22,4.2-24,2.29.64-9.53-.5-19.26-.94-29.06,8.34-1,16.68-2,25-3.42,7.26-1.28,22.41-5,22-5.29Z"/><path class="cls-37" d="M565.53,472.92c-8.68,5.61-25.85,5.95-36.1,5-3.54-.42-7.06-.48-10.31-1.62-5.43-2-4.79-2.78-4.19-8.44.39-3.9,0-8.43.76-12.35,1-5,.73-3.92,6-4,15.08-.17,29.55.77,44.19-.41Z"/><path class="cls-38" d="M29.13,203.7s399,64.38,617.89-8.41l32.68,194s-313.89,75.49-679.7,0Z"/><path class="cls-29" d="M80.27,281l-.6,3.63q-7.58-1.25-15.16-2.57,1.71-9.75,3.4-19.48l5,.85q-1.37,7.94-2.72,15.87Z"/><path class="cls-29" d="M91.57,267.07q-2.7,1.71-5.41,3.41L84,270.13l2.84-3.82Zm-3.21,5.44-2.13,13.2L82,285l2.16-13.19Z"/><path class="cls-29" d="M106.55,268.86q-1.47,9.78-3,19.56l-4.2-.64c0-.35.11-.71.16-1.06a6.08,6.08,0,0,1-3.94.74A6.26,6.26,0,0,1,91.56,285a6.66,6.66,0,0,1-1.12-5.38,6.77,6.77,0,0,1,2.66-4.71A6.4,6.4,0,0,1,98,273.77a7.77,7.77,0,0,1,3.35,1.37c.35-2.3.71-4.61,1.06-6.91ZM100,284.17c.32-2.1.64-4.21,1-6.31a3.74,3.74,0,0,0-2.24-1.13,3.13,3.13,0,0,0-2.4.56,4.51,4.51,0,0,0-1.52,3,5.22,5.22,0,0,0,0,2.18,2.51,2.51,0,0,0,.78,1.36,4.32,4.32,0,0,0,1,.61,2.84,2.84,0,0,0,.79.24A4.19,4.19,0,0,0,100,284.17Z"/><path class="cls-29" d="M120.82,286.67c-.12.89-.25,1.78-.37,2.67a10.53,10.53,0,0,1-6.39.88,9.27,9.27,0,0,1-3.6-1.2,5.84,5.84,0,0,1-2.14-2.07,7.45,7.45,0,0,1-.89-2.36,7.13,7.13,0,0,1,0-2.35,6.54,6.54,0,0,1,2.81-4.67,7.24,7.24,0,0,1,5.29-1.18,7.93,7.93,0,0,1,1.76.48,6.86,6.86,0,0,1,1.74,1,6.36,6.36,0,0,1,1.46,1.6,6.44,6.44,0,0,1,.86,2.33,9.22,9.22,0,0,1,0,3.1c-3.21-.45-6.43-.91-9.64-1.38a3.57,3.57,0,0,0,.89,2.89,5.08,5.08,0,0,0,3,1.37,7.1,7.1,0,0,0,2.16,0,6.73,6.73,0,0,0,1.56-.39C119.68,287.26,120.18,287,120.82,286.67Zm-8.75-5.3q2.9.44,5.81.84a3.67,3.67,0,0,0-.54-2.08,2.62,2.62,0,0,0-2-1.18,2.59,2.59,0,0,0-2.23.59A3.57,3.57,0,0,0,112.07,281.37Z"/><path class="cls-29" d="M129.67,278.64c-.18,1.26-.35,2.53-.52,3.79,1.67-2.52,3.29-3.68,4.88-3.47a5.16,5.16,0,0,1,2.62,1.58c-.54,1.17-1.09,2.35-1.64,3.52a5,5,0,0,0-2.35-1.3,2.31,2.31,0,0,0-1.87.51,8.48,8.48,0,0,0-1.66,2,3.46,3.46,0,0,0-.24.46l-.24.47-.78,5.72-4.24-.58,1.83-13.25Z"/><path class="cls-29" d="M150.31,290.54l-.33,2.67a10.48,10.48,0,0,1-6.36,1,9.53,9.53,0,0,1-3.62-1.13,5.92,5.92,0,0,1-2.18-2,7.63,7.63,0,0,1-.93-2.34,7.42,7.42,0,0,1-.08-2.35,6.53,6.53,0,0,1,2.73-4.72,7.19,7.19,0,0,1,5.26-1.27,7.4,7.4,0,0,1,1.77.44,6.89,6.89,0,0,1,1.75,1,6,6,0,0,1,2.39,3.89,9.12,9.12,0,0,1,0,3.1q-4.83-.58-9.66-1.21a3.59,3.59,0,0,0,.94,2.87,5,5,0,0,0,3.07,1.32,7.07,7.07,0,0,0,2.16,0,6.22,6.22,0,0,0,1.55-.43C149.18,291.14,149.67,290.89,150.31,290.54Zm-8.84-5.14,5.83.73a3.74,3.74,0,0,0-.59-2.07,3,3,0,0,0-4.19-.52A3.64,3.64,0,0,0,141.47,285.4Z"/><path class="cls-29" d="M163.87,283.64c-.11,1-.23,2-.34,3a9.29,9.29,0,0,0-4-1.78c-1.24-.14-1.9.09-2,.7a.78.78,0,0,0,.23.66,6.53,6.53,0,0,0,1.28.84,19.93,19.93,0,0,1,1.86,1.05,13.62,13.62,0,0,1,1.41,1.06,3.48,3.48,0,0,1,1.07,1.44,3.91,3.91,0,0,1,.17,1.73,3.74,3.74,0,0,1-1.81,3,6.59,6.59,0,0,1-4.19.63,12.85,12.85,0,0,1-2.79-.65,7.92,7.92,0,0,1-1.92-.9c.11-1,.23-2,.35-2.94a9.62,9.62,0,0,0,4.15,1.75,3.26,3.26,0,0,0,1.56-.11.85.85,0,0,0,.61-.66.9.9,0,0,0-.36-.85,17.16,17.16,0,0,0-2-1.23c-1-.59-1.74-1-2.12-1.31a3.48,3.48,0,0,1-1.4-3.38,3.65,3.65,0,0,1,1.81-2.76,6.26,6.26,0,0,1,4.15-.7A9.56,9.56,0,0,1,163.87,283.64Z"/><path class="cls-29" d="M164.81,301.41c0-.3.07-.6.11-.89a4.82,4.82,0,0,0,1.73-3.57,2.23,2.23,0,0,1-1.25-2.33,2,2,0,0,1,.93-1.52,2.61,2.61,0,0,1,1.78-.43,2.83,2.83,0,0,1,1.88,1.07,3.27,3.27,0,0,1,.63,2.54,5.77,5.77,0,0,1-1.87,3.6A5.5,5.5,0,0,1,164.81,301.41Z"/><path class="cls-29" d="M188.07,279.07q-1,9.84-2,19.68l-4.28-.44q1-9.84,2-19.67Z"/><path class="cls-29" d="M192.11,279.84a2.33,2.33,0,0,1,1.71-.5,2.31,2.31,0,1,1-.45,4.59,2.32,2.32,0,0,1-1.58-.82,2.25,2.25,0,0,1-.52-1.72A2.18,2.18,0,0,1,192.11,279.84Zm3,6.35q-.63,6.66-1.27,13.31l-4.08-.39q.66-6.66,1.31-13.31Z"/><path class="cls-29" d="M213,281.37q-.83,9.86-1.67,19.71l-4.23-.37.09-1.07a6,6,0,0,1-3.88,1,6.25,6.25,0,0,1-4.2-2.22,6.67,6.67,0,0,1-1.46-5.29,6.79,6.79,0,0,1,2.35-4.88,6.43,6.43,0,0,1,4.79-1.43,7.82,7.82,0,0,1,3.42,1.15q.31-3.48.61-7Zm-5.58,15.7c.18-2.12.37-4.23.55-6.35a3.7,3.7,0,0,0-2.29-1,3.13,3.13,0,0,0-2.36.72,4.52,4.52,0,0,0-1.32,3.14,5.28,5.28,0,0,0,.19,2.17,2.45,2.45,0,0,0,.87,1.3,4.52,4.52,0,0,0,1,.56,3.69,3.69,0,0,0,.8.19A4.28,4.28,0,0,0,207.39,297.07Z"/><path class="cls-29" d="M228.33,298.22c-.06.9-.13,1.79-.2,2.69a10.46,10.46,0,0,1-6.3,1.29,9.42,9.42,0,0,1-3.67-1,5.82,5.82,0,0,1-2.26-1.93,7.46,7.46,0,0,1-1-2.3,7.37,7.37,0,0,1-.19-2.34,6.51,6.51,0,0,1,2.51-4.84,7.16,7.16,0,0,1,5.18-1.52,8,8,0,0,1,1.79.36,6.93,6.93,0,0,1,1.8.91,6.09,6.09,0,0,1,2.56,3.77,9.18,9.18,0,0,1,.19,3.1l-9.69-.76a3.58,3.58,0,0,0,1.07,2.82,5,5,0,0,0,3.13,1.18,7.7,7.7,0,0,0,3.68-.63C227.23,298.88,227.72,298.6,228.33,298.22Zm-9.06-4.72,5.85.46a3.72,3.72,0,0,0-.68-2,2.93,2.93,0,0,0-4.2-.32A3.58,3.58,0,0,0,219.27,293.5Z"/><path class="cls-29" d="M236.63,289.64l-.27,3.81c1.5-2.62,3-3.88,4.64-3.77a5.11,5.11,0,0,1,2.72,1.4c-.47,1.21-.94,2.42-1.42,3.62a5,5,0,0,0-2.42-1.15,2.32,2.32,0,0,0-1.83.63,8.55,8.55,0,0,0-1.53,2.08s-.09.19-.21.48l-.21.48-.41,5.75-4.26-.3q.49-6.68,1-13.34Z"/><path class="cls-29" d="M258,300.18c-.05.9-.11,1.79-.16,2.69a10.47,10.47,0,0,1-6.28,1.4,9.35,9.35,0,0,1-3.68-.89,5.88,5.88,0,0,1-2.3-1.89,7.36,7.36,0,0,1-1.07-2.28,7.12,7.12,0,0,1-.23-2.34,6.54,6.54,0,0,1,2.41-4.89,7.25,7.25,0,0,1,5.16-1.61,8.13,8.13,0,0,1,1.8.33,7,7,0,0,1,1.81.88,6.49,6.49,0,0,1,1.58,1.47,6.35,6.35,0,0,1,1,2.25,9.11,9.11,0,0,1,.25,3.1l-9.7-.58a3.59,3.59,0,0,0,1.12,2.8,5,5,0,0,0,3.15,1.12,7.1,7.1,0,0,0,2.14-.18,6.73,6.73,0,0,0,1.52-.52C256.88,300.86,257.35,300.57,258,300.18Zm-9.14-4.56,5.85.36a3.67,3.67,0,0,0-.71-2,2.54,2.54,0,0,0-2-1,2.58,2.58,0,0,0-2.18.76A3.59,3.59,0,0,0,248.83,295.62Z"/><path class="cls-29" d="M271,292.43l-.15,3a9.28,9.28,0,0,0-4.12-1.52c-1.24-.06-1.89.21-1.92.83a.78.78,0,0,0,.28.64,6.2,6.2,0,0,0,1.32.75c.84.38,1.48.68,1.92.93a14.13,14.13,0,0,1,1.48,1,3.41,3.41,0,0,1,1.15,1.37,3.63,3.63,0,0,1,.28,1.71,3.7,3.7,0,0,1-1.61,3.07,6.52,6.52,0,0,1-4.13.91,12.79,12.79,0,0,1-2.82-.47,8.55,8.55,0,0,1-2-.78c.05-1,.11-2,.16-2.95a9.76,9.76,0,0,0,4.25,1.48,3.41,3.41,0,0,0,1.55-.21.84.84,0,0,0,.56-.7.92.92,0,0,0-.41-.84,19.37,19.37,0,0,0-2.08-1.09,23.23,23.23,0,0,1-2.2-1.17,3.47,3.47,0,0,1-1.61-3.28,3.66,3.66,0,0,1,1.62-2.87,6.26,6.26,0,0,1,4.1-1A9.45,9.45,0,0,1,271,292.43Z"/><path class="cls-29" d="M287.67,302.51l-.09,2.35a7.58,7.58,0,0,1-4.05,1.05,3.11,3.11,0,0,1-1.46-.35,1.67,1.67,0,0,1-.67-.56,3.09,3.09,0,0,1-.22-.67,8.31,8.31,0,0,1-4.54,1.28,3.94,3.94,0,0,1-2.65-1.09,3.22,3.22,0,0,1-1-2.59c.08-1.78,1.4-3,3.94-3.79,1.69-.51,3.13-.9,4.34-1.17a3.45,3.45,0,0,0,0-.67,3.17,3.17,0,0,0-.19-.71,1.22,1.22,0,0,0-.67-.69,3.44,3.44,0,0,0-1.33-.3,6.12,6.12,0,0,0-2.4.4,9.27,9.27,0,0,0-1.78.86,5.74,5.74,0,0,0-.93.77c0-1.14.11-2.28.16-3.41a11,11,0,0,1,5.95-1.36q4.05.18,5.19,2.4a5,5,0,0,1,.31,2.45l-.21,5.27c0,.72.18,1.09.63,1.1A4.3,4.3,0,0,0,287.67,302.51Zm-6.61-.21c.05-1.07.09-2.15.14-3.22l-.58.19c-.35.11-.68.23-1,.34l-.61.22c-1.08.43-1.64,1.05-1.67,1.87a1.29,1.29,0,0,0,.38,1,1.33,1.33,0,0,0,.9.44A3.49,3.49,0,0,0,281.06,302.3Z"/><path class="cls-29" d="M299,293.58c0,1-.07,2-.1,3a9.25,9.25,0,0,0-4.14-1.44c-1.25-.05-1.88.24-1.91.86a.76.76,0,0,0,.29.63,6.29,6.29,0,0,0,1.34.73c.84.36,1.49.66,1.93.9a13.16,13.16,0,0,1,1.5.95,3.42,3.42,0,0,1,1.17,1.34,3.76,3.76,0,0,1,.31,1.71,3.7,3.7,0,0,1-1.56,3.09,6.5,6.5,0,0,1-4.11,1,12.17,12.17,0,0,1-2.83-.42,7.86,7.86,0,0,1-2-.75c0-1,.07-2,.11-2.95a9.79,9.79,0,0,0,4.27,1.41,3.29,3.29,0,0,0,1.54-.24.85.85,0,0,0,.56-.71.91.91,0,0,0-.43-.82,17.24,17.24,0,0,0-2.09-1.06c-1.08-.51-1.82-.88-2.22-1.13a3.48,3.48,0,0,1-1.67-3.26,3.68,3.68,0,0,1,1.57-2.9,6.31,6.31,0,0,1,4.08-1A9.5,9.5,0,0,1,299,293.58Z"/><path class="cls-29" d="M301.41,311.21l0-.9a4.86,4.86,0,0,0,1.44-3.7,2.21,2.21,0,0,1-1.44-2.22,2,2,0,0,1,.8-1.58,2.67,2.67,0,0,1,1.74-.58,2.86,2.86,0,0,1,2,.92,3.23,3.23,0,0,1,.83,2.47,5.72,5.72,0,0,1-1.57,3.74A5.41,5.41,0,0,1,301.41,311.21Z"/><path class="cls-29" d="M332,287.2q-.14,9.89-.26,19.78l-4.24-.06c0-.36,0-.72,0-1.08a6,6,0,0,1-3.79,1.27,6.2,6.2,0,0,1-4.35-1.91,6.68,6.68,0,0,1-1.83-5.17,6.78,6.78,0,0,1,2-5,6.37,6.37,0,0,1,4.67-1.77,7.71,7.71,0,0,1,3.5.9q0-3.5.11-7Zm-4.45,16.06q.06-3.18.1-6.38a3.75,3.75,0,0,0-2.36-.82,3.16,3.16,0,0,0-2.3.89,4.59,4.59,0,0,0-1.08,3.23,5.14,5.14,0,0,0,.34,2.15,2.5,2.5,0,0,0,1,1.24,4.48,4.48,0,0,0,1,.48,3.41,3.41,0,0,0,.81.13A4.21,4.21,0,0,0,327.59,303.26Z"/><path class="cls-29" d="M348.55,302.91v2.69a10.43,10.43,0,0,1-6.2,1.74,9.57,9.57,0,0,1-3.72-.69,6.07,6.07,0,0,1-2.4-1.77,7.36,7.36,0,0,1-1.19-2.21,7.13,7.13,0,0,1-.36-2.33,6.55,6.55,0,0,1,2.15-5,7.18,7.18,0,0,1,5.06-1.88,7.42,7.42,0,0,1,1.81.23,6.73,6.73,0,0,1,1.85.78,6,6,0,0,1,2.83,3.57,9.05,9.05,0,0,1,.41,3.08l-9.71-.06a3.6,3.6,0,0,0,1.27,2.74,5.06,5.06,0,0,0,3.2.95,7.31,7.31,0,0,0,2.13-.29,6.52,6.52,0,0,0,1.49-.61Q347.67,303.54,348.55,302.91Zm-9.37-4.06,5.87,0a3.71,3.71,0,0,0-.83-2,2.93,2.93,0,0,0-4.21,0A3.59,3.59,0,0,0,339.18,298.85Z"/><path class="cls-29" d="M356.77,293.75h1.92c0,.94,0,1.88,0,2.82h-1.93l0,10.56h-4.27q0-5.28,0-10.56h-1.94c0-.94,0-1.87,0-2.81h1.93c0-.83.09-1.48.15-1.94a6.48,6.48,0,0,1,.42-1.57,4.54,4.54,0,0,1,1-1.54,5.78,5.78,0,0,1,4.33-1.63,18.44,18.44,0,0,1,2.36.23l.21,0c0,1.13,0,2.26,0,3.39a14.31,14.31,0,0,0-1.9-.17,2.75,2.75,0,0,0-1.13.21,2.06,2.06,0,0,0-.7.45,1.59,1.59,0,0,0-.35.75,4.73,4.73,0,0,0-.13.83C356.77,293,356.77,293.32,356.77,293.75Z"/><path class="cls-29" d="M374,302.79l0,2.7a10.45,10.45,0,0,1-6.16,1.83,9.43,9.43,0,0,1-3.73-.64,5.87,5.87,0,0,1-2.43-1.73,7.52,7.52,0,0,1-1.23-2.19,7.68,7.68,0,0,1-.39-2.32,6.52,6.52,0,0,1,2.08-5,7.12,7.12,0,0,1,5-2,7.5,7.5,0,0,1,1.81.2,7,7,0,0,1,1.86.75,6.53,6.53,0,0,1,1.69,1.36,6.37,6.37,0,0,1,1.19,2.17,9.21,9.21,0,0,1,.47,3.07l-9.72.09a3.55,3.55,0,0,0,1.31,2.72,5.06,5.06,0,0,0,3.21.9,7.21,7.21,0,0,0,2.13-.32,6.56,6.56,0,0,0,1.48-.63C373,303.54,373.42,303.23,374,302.79Zm-9.43-3.91,5.86-.05a3.74,3.74,0,0,0-.85-2,3,3,0,0,0-4.22,0A3.64,3.64,0,0,0,364.57,298.88Z"/><path class="cls-29" d="M381.52,293.52l0,1.91a5.7,5.7,0,0,1,4.35-2.25,4.8,4.8,0,0,1,2.8.71,5,5,0,0,1,1.67,1.81,7.32,7.32,0,0,1,.59,3.12l.18,7.88-4.3.09-.15-7.53a5.94,5.94,0,0,0-.24-1.91,1.81,1.81,0,0,0-1.93-1.21c-1.13,0-2.1.73-2.92,2.14,0,2.87.09,5.74.14,8.61l-4.27.06q-.09-6.68-.19-13.37Z"/><path class="cls-29" d="M403.69,293.73l.09,3a9.29,9.29,0,0,0-4.22-1.18c-1.25,0-1.87.36-1.85,1a.74.74,0,0,0,.32.61,6.44,6.44,0,0,0,1.38.65c.87.3,1.53.56,2,.77a15,15,0,0,1,1.55.85,3.44,3.44,0,0,1,1.25,1.27,3.8,3.8,0,0,1,.42,1.69,3.74,3.74,0,0,1-1.36,3.19,6.58,6.58,0,0,1-4,1.23,13,13,0,0,1-2.86-.25,7.83,7.83,0,0,1-2-.62c0-1-.05-2-.07-2.95a9.62,9.62,0,0,0,4.35,1.13,3,3,0,0,0,1.52-.33.83.83,0,0,0,.51-.74.93.93,0,0,0-.48-.8,17.44,17.44,0,0,0-2.15-.92c-1.11-.44-1.87-.77-2.29-1a3.46,3.46,0,0,1-1.86-3.14,3.67,3.67,0,0,1,1.39-3,6.27,6.27,0,0,1,4-1.29A9.46,9.46,0,0,1,403.69,293.73Z"/><path class="cls-29" d="M421.64,299.1a6.94,6.94,0,0,1-.6,3.29,5.52,5.52,0,0,1-1.83,2.24,9.55,9.55,0,0,1-2.38,1.21,9.08,9.08,0,0,1-2.51.45,8.17,8.17,0,0,1-5.52-1.67,6.18,6.18,0,0,1-2.38-4.94,6.47,6.47,0,0,1,2.05-5.11,7.9,7.9,0,0,1,5.38-2.16,8.84,8.84,0,0,1,2.5.27,9.06,9.06,0,0,1,2.44,1,5.64,5.64,0,0,1,2,2.11A7.2,7.2,0,0,1,421.64,299.1Zm-4.55-.08c-.11-2.76-1.2-4.1-3.29-4s-2.9,1.61-2.8,4.63c.09,2.78,1.17,4.14,3.23,4.06S417.2,302.05,417.09,299Z"/><path class="cls-29" d="M428.5,292.08c.05,1.27.11,2.55.17,3.82q1.77-4.17,4.16-4.28a5.12,5.12,0,0,1,2.87,1.08l-1,3.76a4.9,4.9,0,0,0-2.54-.87,2.39,2.39,0,0,0-1.75.84,8.84,8.84,0,0,0-1.28,2.24s-.07.2-.15.5-.14.46-.15.5c.08,1.92.17,3.84.25,5.76l-4.26.19-.57-13.36Z"/><path class="cls-29" d="M450.89,300.1c.06.9.11,1.8.16,2.69a10.5,10.5,0,0,1-6.08,2.12,9.64,9.64,0,0,1-3.76-.47,5.91,5.91,0,0,1-2.5-1.62,7.66,7.66,0,0,1-1.33-2.14,7.22,7.22,0,0,1-.49-2.29,6.52,6.52,0,0,1,1.84-5.13,7.14,7.14,0,0,1,4.94-2.19,7.46,7.46,0,0,1,1.82.11,7.28,7.28,0,0,1,1.89.67,6.52,6.52,0,0,1,1.75,1.28,6.27,6.27,0,0,1,1.29,2.12,9.12,9.12,0,0,1,.61,3c-3.24.19-6.47.37-9.71.54a3.57,3.57,0,0,0,1.43,2.65,5.07,5.07,0,0,0,3.26.76,7.46,7.46,0,0,0,2.11-.43,6.83,6.83,0,0,0,1.45-.69Q450.05,300.79,450.89,300.1Zm-9.6-3.48,5.86-.31a3.72,3.72,0,0,0-.94-1.94,3,3,0,0,0-4.22.24A3.65,3.65,0,0,0,441.29,296.62Z"/><path class="cls-29" d="M463,290.9c.06,1,.13,2,.19,3a9.17,9.17,0,0,0-4.26-1c-1.25.07-1.85.42-1.81,1a.75.75,0,0,0,.34.6,7.11,7.11,0,0,0,1.41.6,20.52,20.52,0,0,1,2,.7,13.85,13.85,0,0,1,1.58.8,3.42,3.42,0,0,1,1.3,1.22,4.1,4.1,0,0,1-.77,4.9,6.54,6.54,0,0,1-4,1.38,12.46,12.46,0,0,1-2.86-.15,7.67,7.67,0,0,1-2.05-.54l-.18-2.95a9.69,9.69,0,0,0,4.39,1,3.15,3.15,0,0,0,1.51-.39.82.82,0,0,0,.48-.75.93.93,0,0,0-.5-.79,20.74,20.74,0,0,0-2.19-.85,23.07,23.07,0,0,1-2.32-.9,3.47,3.47,0,0,1-2-3.08,3.69,3.69,0,0,1,1.28-3,6.29,6.29,0,0,1,4-1.43A9.38,9.38,0,0,1,463,290.9Z"/><path class="cls-29" d="M487.35,288.39q-3.71,10.23-7.53,20.43l-4.54.33q1.68-4.42,3.34-8.85-3.06-5.39-6.08-10.78l4.52-.33,3.33,6.38q1.28-3.4,2.53-6.83Z"/><path class="cls-29" d="M510.24,280l1.86,19.69-4.23.4-.09-1.07a6.08,6.08,0,0,1-3.64,1.67,6.27,6.27,0,0,1-4.54-1.44,6.64,6.64,0,0,1-2.37-4.94,6.8,6.8,0,0,1,1.44-5.22,6.42,6.42,0,0,1,4.46-2.26,7.68,7.68,0,0,1,3.57.52q-.31-3.48-.64-7Zm-2.7,16.45q-.3-3.18-.58-6.36a3.84,3.84,0,0,0-2.44-.56,3.1,3.1,0,0,0-2.19,1.13,4.51,4.51,0,0,0-.74,3.32,5.55,5.55,0,0,0,.57,2.11,2.51,2.51,0,0,0,1.09,1.12,4.27,4.27,0,0,0,1.07.37,2.85,2.85,0,0,0,.81,0A4.23,4.23,0,0,0,507.54,296.41Z"/><path class="cls-29" d="M528.36,293.81c.1.89.19,1.78.29,2.68a10.47,10.47,0,0,1-6,2.39,9.37,9.37,0,0,1-3.78-.29,5.92,5.92,0,0,1-2.58-1.5,7.78,7.78,0,0,1-1.43-2.07,7.54,7.54,0,0,1-.6-2.28,6.55,6.55,0,0,1,1.6-5.21,7.22,7.22,0,0,1,4.84-2.41,8,8,0,0,1,1.83,0,7.18,7.18,0,0,1,3.72,1.77,6.42,6.42,0,0,1,1.4,2.06,9.36,9.36,0,0,1,.74,3q-4.83.51-9.68,1a3.58,3.58,0,0,0,1.56,2.58,5.07,5.07,0,0,0,3.29.61,7.54,7.54,0,0,0,2.09-.52,7.67,7.67,0,0,0,1.42-.76C527.4,294.65,527.82,294.29,528.36,293.81Zm-9.76-3,5.84-.59a3.64,3.64,0,0,0-1-1.89,3,3,0,0,0-4.2.43A3.61,3.61,0,0,0,518.6,290.78Z"/><path class="cls-29" d="M535.56,283.82l1.92-.21c.1.93.21,1.86.31,2.79l-1.92.22q.57,5.24,1.15,10.49l-4.26.46c-.37-3.5-.75-7-1.12-10.5l-1.92.21-.3-2.8,1.92-.2q-.08-1.25-.06-1.95a6.81,6.81,0,0,1,.25-1.6,4.58,4.58,0,0,1,.81-1.64,5.78,5.78,0,0,1,4.15-2.08,17,17,0,0,1,2.37,0h.2c.13,1.13.26,2.25.38,3.37a15.52,15.52,0,0,0-1.9,0,2.8,2.8,0,0,0-1.11.33,2,2,0,0,0-.65.52,1.6,1.6,0,0,0-.27.79,5.27,5.27,0,0,0,0,.84C535.48,283.08,535.51,283.4,535.56,283.82Z"/><path class="cls-29" d="M553.69,291l.33,2.68a10.53,10.53,0,0,1-5.95,2.48,9.44,9.44,0,0,1-3.78-.23,5.89,5.89,0,0,1-2.6-1.46,7.12,7.12,0,0,1-2.1-4.32,6.53,6.53,0,0,1,1.52-5.23,7.28,7.28,0,0,1,4.8-2.49,8,8,0,0,1,1.83,0,7.32,7.32,0,0,1,1.94.55,6.59,6.59,0,0,1,1.82,1.17,6.39,6.39,0,0,1,1.42,2,8.92,8.92,0,0,1,.79,3c-3.22.39-6.44.76-9.66,1.13a3.55,3.55,0,0,0,1.59,2.56,5,5,0,0,0,3.3.55,7.22,7.22,0,0,0,2.09-.55,7,7,0,0,0,1.4-.78C552.74,291.82,553.16,291.45,553.69,291Zm-9.81-2.88,5.84-.68a3.73,3.73,0,0,0-1.07-1.87,2.55,2.55,0,0,0-2.18-.64,2.58,2.58,0,0,0-2,1.14A3.58,3.58,0,0,0,543.88,288.08Z"/><path class="cls-29" d="M560.19,280.93l.23,1.9a5.77,5.77,0,0,1,4.09-2.7,4.76,4.76,0,0,1,2.87.4,4.9,4.9,0,0,1,1.85,1.62,7.22,7.22,0,0,1,.93,3l1,7.82-4.27.55-1-7.48a6.06,6.06,0,0,0-.44-1.87,1.82,1.82,0,0,0-2-1c-1.13.14-2,1-2.68,2.44.35,2.85.71,5.7,1.06,8.55l-4.25.53L556,281.45Z"/><path class="cls-29" d="M582.3,278.76c.13,1,.27,2,.41,3a9.27,9.27,0,0,0-4.34-.72q-1.86.24-1.74,1.17a.78.78,0,0,0,.39.57,6.75,6.75,0,0,0,1.45.5c.9.21,1.58.39,2.06.55a15.73,15.73,0,0,1,1.64.68,3.43,3.43,0,0,1,1.38,1.13,3.79,3.79,0,0,1,.6,1.63,3.74,3.74,0,0,1-1,3.32,6.58,6.58,0,0,1-3.9,1.65,13.14,13.14,0,0,1-2.87.07,7.9,7.9,0,0,1-2.09-.4l-.39-2.93a9.69,9.69,0,0,0,4.46.66,3.29,3.29,0,0,0,1.48-.49.85.85,0,0,0,.43-.79.92.92,0,0,0-.57-.74,17.42,17.42,0,0,0-2.24-.69c-1.15-.32-2-.56-2.39-.74a3.47,3.47,0,0,1-2.19-2.92,3.66,3.66,0,0,1,1.06-3.13,6.32,6.32,0,0,1,3.85-1.72A9.6,9.6,0,0,1,582.3,278.76Z"/><path class="cls-29" d="M600.77,282.17a7.07,7.07,0,0,1-.25,3.34,5.65,5.65,0,0,1-1.58,2.42,9.47,9.47,0,0,1-2.25,1.45,9,9,0,0,1-2.45.73,8.21,8.21,0,0,1-5.68-1.07,6.14,6.14,0,0,1-2.9-4.66,6.43,6.43,0,0,1,1.49-5.3,8,8,0,0,1,5.13-2.73,8.86,8.86,0,0,1,2.52,0,9.37,9.37,0,0,1,2.54.77,5.74,5.74,0,0,1,2.21,1.89A7.24,7.24,0,0,1,600.77,282.17Zm-4.55.41c-.41-2.73-1.64-3.95-3.71-3.65s-2.72,1.91-2.3,4.9c.4,2.76,1.61,4,3.66,3.69S596.66,285.58,596.22,282.58Z"/><path class="cls-29" d="M606.84,274.45c.2,1.26.39,2.52.58,3.78q1.33-4.34,3.7-4.71a5.25,5.25,0,0,1,3,.77c-.19,1.28-.39,2.57-.58,3.85a5,5,0,0,0-2.62-.59,2.35,2.35,0,0,0-1.66,1,8.94,8.94,0,0,0-1,2.36s0,.21-.09.52-.09.47-.1.51l.87,5.7-4.23.65q-1-6.62-2-13.22Z"/><path class="cls-29" d="M630.82,280.8l.39,2.31a7.7,7.7,0,0,1-3.76,1.86,3.24,3.24,0,0,1-1.51,0,1.6,1.6,0,0,1-.77-.42,3.17,3.17,0,0,1-.35-.6,8.35,8.35,0,0,1-4.2,2.17,3.9,3.9,0,0,1-2.82-.53,3.21,3.21,0,0,1-1.5-2.33c-.27-1.76.76-3.26,3.1-4.52,1.56-.84,2.9-1.51,4-2a3.32,3.32,0,0,0-.15-.65,2.64,2.64,0,0,0-.33-.65,1.26,1.26,0,0,0-.8-.55,3.46,3.46,0,0,0-1.37,0,6,6,0,0,0-2.27.88,9.6,9.6,0,0,0-1.58,1.2,5.9,5.9,0,0,0-.75.95l-.54-3.38a11,11,0,0,1,5.56-2.54q4-.66,5.6,1.29a5.21,5.21,0,0,1,.8,2.33c.29,1.74.58,3.47.86,5.21.12.7.4,1,.85.95A4.62,4.62,0,0,0,630.82,280.8Zm-6.54,1.13-.51-3.17-.54.3c-.32.18-.61.36-.89.53l-.56.34c-1,.65-1.39,1.37-1.26,2.17a1.39,1.39,0,0,0,1.56,1.19A3.46,3.46,0,0,0,624.28,281.93Z"/><path class="cls-29" d="M640.16,269.73l.51,2.94a9.25,9.25,0,0,0-4.36-.57c-1.24.21-1.8.62-1.7,1.23a.77.77,0,0,0,.41.57,7.35,7.35,0,0,0,1.46.44c.91.18,1.6.34,2.08.48a14.4,14.4,0,0,1,1.67.62,3.48,3.48,0,0,1,1.42,1.08,4.09,4.09,0,0,1-.24,5,6.59,6.59,0,0,1-3.85,1.79,12.47,12.47,0,0,1-2.86.17,8.44,8.44,0,0,1-2.11-.32c-.16-1-.33-1.95-.49-2.92a9.6,9.6,0,0,0,4.48.5,3.28,3.28,0,0,0,1.47-.54.84.84,0,0,0,.4-.81.92.92,0,0,0-.59-.72,18,18,0,0,0-2.27-.61,24.36,24.36,0,0,1-2.41-.65,3.46,3.46,0,0,1-2.3-2.85,3.66,3.66,0,0,1,1-3.16,6.33,6.33,0,0,1,3.79-1.85A9.64,9.64,0,0,1,640.16,269.73Z"/><path class="cls-29" d="M81.55,313.67q8.39,1.35,16.79,2.62a36.61,36.61,0,0,1,11,3.23A19.39,19.39,0,0,1,111.8,321a22.2,22.2,0,0,1,3,2.73,21.51,21.51,0,0,1,3,4,18.12,18.12,0,0,1,1.94,5.3,19,19,0,0,1,.21,6.67,20.85,20.85,0,0,1-.85,3.7,24.6,24.6,0,0,1-1.89,4.2,15,15,0,0,1-3.85,4.45,19.34,19.34,0,0,1-6,3.23c-4.2,1.43-9.5,1.68-15.9.71q-8.19-1.24-16.38-2.56Q78.35,333.54,81.55,313.67Zm14.43,10-5.22-.8L87,347.5l4.25.65c4.22.65,7.36.71,9.41.22a11,11,0,0,0,5.75-3.49,12.85,12.85,0,0,0,2.88-6.77q1.19-8.42-5.4-12.17A23.79,23.79,0,0,0,96,323.69Z"/><path class="cls-29" d="M152.62,355.5q-.33,2.73-.64,5.45a22.7,22.7,0,0,1-13.45,2,20.61,20.61,0,0,1-7.67-2.33,12.3,12.3,0,0,1-4.62-4.17,14.79,14.79,0,0,1-2-4.78,13.79,13.79,0,0,1-.18-4.79,13.09,13.09,0,0,1,5.72-9.57,15.58,15.58,0,0,1,11-2.55,17.06,17.06,0,0,1,3.73.91,15.36,15.36,0,0,1,3.69,2,13.91,13.91,0,0,1,3.16,3.2,13.05,13.05,0,0,1,1.93,4.71,18.1,18.1,0,0,1,.17,6.32q-10.2-1.19-20.39-2.49a7.16,7.16,0,0,0,2,5.85,11,11,0,0,0,6.51,2.71,15.73,15.73,0,0,0,4.56-.07,15,15,0,0,0,3.27-.86C150.24,356.74,151.28,356.22,152.62,355.5ZM133.89,345q6.15.78,12.29,1.52a7.45,7.45,0,0,0-1.26-4.22,6.36,6.36,0,0,0-8.83-1.07A7.18,7.18,0,0,0,133.89,345Z"/><path class="cls-29" d="M170.72,338.76c-.27,2.58-.55,5.17-.82,7.75q5-7.83,10-7.33c1.59.16,3.46,1.18,5.63,3.06q-1.59,3.63-3.2,7.27a10.52,10.52,0,0,0-5-2.52,5,5,0,0,0-3.91,1.13,17.78,17.78,0,0,0-3.36,4.1c-.05.07-.2.39-.47,1s-.43.88-.48.95q-.62,5.85-1.25,11.68-4.5-.48-9-1l3-27C164.81,338.12,167.77,338.45,170.72,338.76Z"/><path class="cls-29" d="M215.08,361.62c-.14,1.83-.29,3.65-.43,5.47a22.7,22.7,0,0,1-13.36,2.5,20.62,20.62,0,0,1-7.74-2.06,12.34,12.34,0,0,1-4.77-4,15,15,0,0,1-2.14-4.71,14.2,14.2,0,0,1-.35-4.77,13.12,13.12,0,0,1,5.37-9.77,15.55,15.55,0,0,1,10.93-2.95,17.69,17.69,0,0,1,3.76.77A15.36,15.36,0,0,1,210.1,344a13.7,13.7,0,0,1,3.27,3.08,13,13,0,0,1,2.1,4.64,18.25,18.25,0,0,1,.4,6.31q-10.23-.81-20.45-1.75a7.16,7.16,0,0,0,2.22,5.77,10.89,10.89,0,0,0,6.59,2.47,15.81,15.81,0,0,0,4.55-.23,14.77,14.77,0,0,0,3.24-1C212.75,363,213.78,362.39,215.08,361.62ZM196,351.82q6.17.57,12.33,1.08a7.4,7.4,0,0,0-1.42-4.17,5.45,5.45,0,0,0-4.23-2.18,5.5,5.5,0,0,0-4.62,1.43A7.2,7.2,0,0,0,196,351.82Z"/><path class="cls-29" d="M246.86,365c-.12,2-.25,4.09-.38,6.13a29,29,0,0,1-9.83,1.2q-7.29-.49-11.68-4.52c-2.93-2.68-4.21-6.24-3.87-10.68A12.56,12.56,0,0,1,226.69,347a17.94,17.94,0,0,1,11.49-2.94,27.89,27.89,0,0,1,9.39,2.38q-.19,3.18-.4,6.36a16.14,16.14,0,0,0-7.14-2.29,11,11,0,0,0-4.33.48,6.43,6.43,0,0,0-2.88,1.81,9.31,9.31,0,0,0-1.53,2.4,7.87,7.87,0,0,0-.61,2.53,7.79,7.79,0,0,0,7.81,8.58A28.62,28.62,0,0,0,246.86,365Z"/><path class="cls-29" d="M263.91,333.11l-.9,17a11.54,11.54,0,0,1,9.26-4.09,9.5,9.5,0,0,1,8.05,4.38A12.19,12.19,0,0,1,282,357.7l-.69,16.51-9-.4q.33-7.33.68-14.67c0-.63,0-1.15,0-1.57a10.76,10.76,0,0,0-.2-1.72,5.85,5.85,0,0,0-.59-1.8,3.86,3.86,0,0,0-1.3-1.27,4.41,4.41,0,0,0-2.19-.64,5.54,5.54,0,0,0-3.42,1A8.83,8.83,0,0,0,262.7,356q-.45,8.65-.91,17.32l-9.22-.51q1.17-20.08,2.33-40.17Z"/><path class="cls-29" d="M320.1,361.87a13.75,13.75,0,0,1-1.68,6.61,11.36,11.36,0,0,1-4.14,4.3,19.51,19.51,0,0,1-10.55,2.74,17.67,17.67,0,0,1-11.43-4.14A12.35,12.35,0,0,1,288,361a13,13,0,0,1,5-10.09,17.07,17.07,0,0,1,11.58-3.64,18.83,18.83,0,0,1,10.18,3.3,11.56,11.56,0,0,1,3.91,4.54A14.06,14.06,0,0,1,320.1,361.87Zm-9.58-.74c.14-5.63-2-8.49-6.38-8.61-4.14-.12-6.31,2.87-6.51,9q-.28,8.49,6.26,8.69C308.16,370.34,310.37,367.3,310.52,361.13Z"/><path class="cls-29" d="M345.78,350l0,6.08a20.24,20.24,0,0,0-8.79-2.72c-2.63,0-3.95.59-4,1.85a1.53,1.53,0,0,0,.63,1.28,14.18,14.18,0,0,0,2.85,1.41c1.81.69,3.18,1.26,4.13,1.72a31.64,31.64,0,0,1,3.2,1.85,7.12,7.12,0,0,1,2.56,2.67,8.15,8.15,0,0,1-2.35,9.84c-2.07,1.5-4.95,2.24-8.66,2.2a27.59,27.59,0,0,1-6-.72A17.73,17.73,0,0,1,325.1,374c0-2,.07-4,.1-6a20.92,20.92,0,0,0,9.1,2.66,7.1,7.1,0,0,0,3.24-.55c.75-.39,1.13-.88,1.13-1.47a1.84,1.84,0,0,0-.94-1.66,39.69,39.69,0,0,0-4.48-2,51.52,51.52,0,0,1-4.74-2.19,7,7,0,0,1-3.67-6.55,7.41,7.41,0,0,1,3.17-6c2.08-1.58,4.91-2.34,8.51-2.31A20.84,20.84,0,0,1,345.78,350Z"/><path class="cls-29" d="M378.63,335.29q.14,8.52.25,17a11.53,11.53,0,0,1,9-4.7,9.48,9.48,0,0,1,8.32,3.83,12.16,12.16,0,0,1,2.16,7.14l.42,16.52q-4.49.12-9,.21l-.3-14.69c0-.63,0-1.15-.06-1.56a11,11,0,0,0-.32-1.71,5.73,5.73,0,0,0-.71-1.75,3.92,3.92,0,0,0-1.38-1.19,4.48,4.48,0,0,0-2.23-.49,5.54,5.54,0,0,0-3.34,1.24,8.7,8.7,0,0,0-2.45,3q.12,8.67.25,17.34c-3.08.05-6.15.08-9.23.11q-.19-20.11-.37-40.23Z"/><path class="cls-29" d="M433.83,346.65l1.26,27.17-9.1.4c-.05-1.3-.11-2.6-.16-3.89a10.7,10.7,0,0,1-8.92,4.77,10.37,10.37,0,0,1-6.45-1.61,10.07,10.07,0,0,1-3.59-4.08,13.82,13.82,0,0,1-.76-4.7q-.27-8.49-.52-17l9-.29.51,14.5c0,.91.07,1.59.1,2.06a13.09,13.09,0,0,0,.32,1.85,4.64,4.64,0,0,0,.71,1.75,3.7,3.7,0,0,0,1.35,1,4.42,4.42,0,0,0,2.13.39q3.48-.12,5.93-4.07-.37-9-.74-17.92Z"/><path class="cls-29" d="M450.27,345.8c.06,1.16.13,2.32.19,3.48a15.07,15.07,0,0,1,9.71-4.59,11.27,11.27,0,0,1,7.7,2,10.64,10.64,0,0,1,2.81,3.12c3.1-4.07,6.67-6.26,10.76-6.56,3.84-.29,6.85.76,9.06,3.15a11.75,11.75,0,0,1,2.94,7.28L494.76,370c-3,.25-6.06.48-9.09.71l-1.11-14.65c-.05-.7-.1-1.26-.15-1.67a10.76,10.76,0,0,0-.44-1.71A4.84,4.84,0,0,0,483,351a4.49,4.49,0,0,0-1.69-1.09,5.75,5.75,0,0,0-2.59-.34q-3.93.29-6.72,4.73.6,8.69,1.19,17.37l-9,.59-1-15.13a8.58,8.58,0,0,0-1-4,5.08,5.08,0,0,0-4.83-2.18q-3.57.21-6.64,3.87l1,18.2q-4.49.26-9,.48l-1.38-27.16Z"/><path class="cls-29" d="M531,360c.16,1.59.32,3.17.49,4.76a16.55,16.55,0,0,1-8.21,3.3,7,7,0,0,1-3.16-.28,3.55,3.55,0,0,1-1.57-1,7.76,7.76,0,0,1-.65-1.27,18.1,18.1,0,0,1-9.17,3.86,8.55,8.55,0,0,1-5.86-1.47,6.44,6.44,0,0,1-2.77-4.95c-.3-3.61,2.11-6.51,7.22-8.74q5.09-2.22,8.74-3.58a7.58,7.58,0,0,0-.22-1.35,6.85,6.85,0,0,0-.59-1.36,2.59,2.59,0,0,0-1.6-1.22,7.53,7.53,0,0,0-2.87-.21,13.06,13.06,0,0,0-4.88,1.48,18.5,18.5,0,0,0-3.49,2.23,12.36,12.36,0,0,0-1.74,1.81c-.2-2.32-.39-4.63-.59-6.94a23.67,23.67,0,0,1,12-4.38q8.5-.79,11.51,3.34,1,1.32,1.35,4.85c.35,3.56.71,7.12,1.06,10.68.15,1.45.69,2.13,1.64,2A9.88,9.88,0,0,0,531,360Zm-13.92,1.49c-.2-2.18-.41-4.35-.61-6.52l-1.16.55c-.7.32-1.36.64-2,.95l-1.22.62c-2.14,1.18-3.13,2.59-3,4.24a2.64,2.64,0,0,0,1.09,2,2.9,2.9,0,0,0,2,.62A7.53,7.53,0,0,0,517.09,361.44Z"/><path class="cls-29" d="M541.53,338.25l.42,3.87a12.25,12.25,0,0,1,8.68-5.43,10.28,10.28,0,0,1,6,.88,10,10,0,0,1,3.84,3.31,14.16,14.16,0,0,1,1.87,6.19q1,8,1.93,15.93-4.53.56-9.06,1.08l-1.77-15.24a11.52,11.52,0,0,0-.87-3.82,3.82,3.82,0,0,0-4.28-2.06q-3.55.39-5.73,4.91,1,8.72,1.91,17.42-4.5.49-9,1l-2.82-27.05Z"/><path class="cls-29" d="M600.67,344.56a13.59,13.59,0,0,1-.6,6.79,11.32,11.32,0,0,1-3.4,4.92,19.65,19.65,0,0,1-10,4.41,17.78,17.78,0,0,1-12-2.24,12.36,12.36,0,0,1-5.93-9.54,13,13,0,0,1,3.34-10.77A17.13,17.13,0,0,1,583,332.66a19.21,19.21,0,0,1,10.61,1.61,11.73,11.73,0,0,1,4.59,3.85A14,14,0,0,1,600.67,344.56Zm-9.6.82c-.77-5.58-3.33-8.06-7.69-7.47q-6.18.82-5,9.94,1.1,8.43,7.59,7.57C590.22,354.85,591.92,351.49,591.07,345.38Z"/><path class="cls-29" d="M624.16,328.66l1,6A20.31,20.31,0,0,0,616,333.4q-3.9.6-3.62,2.46a1.51,1.51,0,0,0,.83,1.16,13.77,13.77,0,0,0,3.05.94c1.9.38,3.35.73,4.36,1a30.15,30.15,0,0,1,3.47,1.3,7.05,7.05,0,0,1,3,2.22,8.15,8.15,0,0,1-.73,10.1c-1.8,1.81-4.54,3-8.21,3.57a28.1,28.1,0,0,1-6.07.26,17.74,17.74,0,0,1-4.44-.72l-.87-6a21.1,21.1,0,0,0,9.44,1.15,7.06,7.06,0,0,0,3.11-1.07,1.72,1.72,0,0,0,.89-1.63,1.83,1.83,0,0,0-1.21-1.48,38.51,38.51,0,0,0-4.76-1.31,51.49,51.49,0,0,1-5-1.39,7,7,0,0,1-4.68-5.87,7.37,7.37,0,0,1,2.18-6.4c1.79-1.9,4.47-3.11,8-3.66A20.85,20.85,0,0,1,624.16,328.66Z"/><path class="cls-10" d="M57.81,198.93a6.79,6.79,0,0,0-1.93-.58,3.74,3.74,0,0,0-4.49,2.07c-1.78,3.26-1.92,7-2.12,10.72a96.43,96.43,0,0,0,0,10.06c.12,1.38.4,3.08,2.11,3.29a7.25,7.25,0,0,0,3.68-1,4.48,4.48,0,0,0,2.75,4.25c1.63.61,4.18-.54,5.41-1.63a3.74,3.74,0,0,0,3.29,4.29c2.56.22,3.64-2.68,4.52-4.52.72.72,2.86.84,3.84.63a5.31,5.31,0,0,0,3.35-2.83,38,38,0,0,0,3.32-10c.79-3.64,1.46-6.52.39-10.15-.52-1.66-1.46-2.52-3.15-2.36s-2.59.79-4.17-.3c-1.41-1-2.6-1.78-4.39-1.22-.62.25-1.35,1.09-2.07,1.08s-1.31-.77-1.81-1.17a6.47,6.47,0,0,0-4.08-1.31c-1.09.09-2.2,1.13-3.21,1.11H59Z"/><path class="cls-21" d="M56,226.32A9.11,9.11,0,0,1,54.82,221a47,47,0,0,1,.5-5.44c.26-1.8.57-3.58.9-5.36a23.14,23.14,0,0,1,1.31-5.29c-.36,1.78-.34,3.58-.54,5.4s-.44,3.6-.69,5.39-.51,3.57-.71,5.35A11.25,11.25,0,0,0,56,226.32Z"/><path class="cls-21" d="M63.56,228.3a15.23,15.23,0,0,1-1-5.56c0-1.93.36-3.75.53-5.6s.44-3.7.75-5.55a19.09,19.09,0,0,1,.58-2.76c.14-.45.27-.89.39-1.34,0-.23.11-.45.14-.68a1.13,1.13,0,0,0,0-.68,2.56,2.56,0,0,1,.12,1.4c0,.47-.11.94-.17,1.4-.18.92-.2,1.82-.29,2.76-.15,1.85-.32,3.71-.53,5.57-.11.92-.23,1.85-.37,2.78s-.27,1.82-.36,2.73A23.36,23.36,0,0,0,63.56,228.3Z"/><path class="cls-21" d="M69.66,228.52a47.83,47.83,0,0,0,1.49-5.38c.17-.91.34-1.8.45-2.73l.4-2.77q.44-2.76.81-5.52c.17-1.9.85-3.67.81-5.54.43,1.87,0,3.78,0,5.61s-.33,3.75-.6,5.6a46.73,46.73,0,0,1-1.09,5.54A22,22,0,0,1,69.66,228.52Z"/><path class="cls-10" d="M194.72,215.59a6.62,6.62,0,0,1,2-.13,3.76,3.76,0,0,1,3.9,3c1,3.59.26,7.28-.4,10.92a93.3,93.3,0,0,1-2.28,9.8c-.43,1.32-1.09,2.92-2.81,2.72a7.21,7.21,0,0,1-3.35-1.81,4.47,4.47,0,0,1-3.65,3.5c-1.72.23-3.94-1.48-4.89-2.82a3.74,3.74,0,0,1-4.18,3.42c-2.54-.37-2.94-3.44-3.37-5.44-.86.54-3,.17-3.88-.26A5.31,5.31,0,0,1,169.2,235a37.89,37.89,0,0,1-.93-10.51c.06-3.73.07-6.69,1.94-10,.88-1.5,2-2.12,3.61-1.58s2.33,1.36,4.12.66c1.61-.67,2.95-1.13,4.55-.18.55.39,1.07,1.37,1.77,1.53s1.45-.45,2-.73a6.46,6.46,0,0,1,4.27-.34c1,.34,1.87,1.61,2.87,1.81h.06Z"/><path class="cls-21" d="M190.25,242.67a11.28,11.28,0,0,0,1.57-5c.21-1.79.38-3.58.53-5.38s.32-3.6.56-5.4.66-3.56.71-5.38a23.12,23.12,0,0,1,.07,5.45c-.08,1.81-.19,3.61-.35,5.42a47.25,47.25,0,0,1-.76,5.41A9,9,0,0,1,190.25,242.67Z"/><path class="cls-21" d="M182.4,242.86a23.12,23.12,0,0,0,1.45-5.34c.13-.91.23-1.81.27-2.74s.18-1.87.28-2.8c.22-1.85.48-3.7.76-5.54a25.66,25.66,0,0,0,.35-2.74c.05-.47.09-.94.16-1.41a2.5,2.5,0,0,1,.43-1.33,1.14,1.14,0,0,0-.16.66c0,.23,0,.46,0,.69,0,.46,0,.93.07,1.39a19.08,19.08,0,0,1-.07,2.83c-.12,1.87-.33,3.72-.54,5.57s-.34,3.69-.77,5.57A15.25,15.25,0,0,1,182.4,242.86Z"/><path class="cls-21" d="M176.42,241.67a21.72,21.72,0,0,1-1-5.56,44,44,0,0,1,.21-5.64c.16-1.87.36-3.74.69-5.59s.41-3.75,1.26-5.47a11.18,11.18,0,0,0-.31,2.76c0,.92-.06,1.9-.17,2.82q-.27,2.77-.48,5.56l-.24,2.79c-.11.93-.15,1.84-.18,2.76A45.27,45.27,0,0,0,176.42,241.67Z"/><path class="cls-9" d="M212.77,217.75a7,7,0,0,0-2-.48,3.75,3.75,0,0,0-4.37,2.31c-1.6,3.36-1.53,7.12-1.53,10.82a96.93,96.93,0,0,0,.52,10c.2,1.38.57,3.06,2.29,3.17a7.19,7.19,0,0,0,3.62-1.2,4.47,4.47,0,0,0,3,4.09c1.65.53,4.14-.76,5.31-1.92a3.74,3.74,0,0,0,3.52,4.11c2.56.08,3.49-2.88,4.26-4.76.76.68,2.91.69,3.87.42a5.35,5.35,0,0,0,3.2-3,37.74,37.74,0,0,0,2.76-10.18c.6-3.68,1.11-6.59-.16-10.16-.6-1.63-1.59-2.43-3.27-2.19s-2.54.94-4.18-.07c-1.46-.94-2.69-1.63-4.45-1-.6.28-1.29,1.15-2,1.19s-1.35-.7-1.88-1.07a6.4,6.4,0,0,0-4.15-1.09c-1.07.15-2.12,1.25-3.14,1.28H214Z"/><path class="cls-11" d="M212.42,245.2a9.07,9.07,0,0,1-1.44-5.26,49.64,49.64,0,0,1,.2-5.46c.17-1.81.38-3.61.61-5.4a23.62,23.62,0,0,1,1-5.36c-.27,1.81-.15,3.59-.25,5.42s-.24,3.62-.39,5.42-.32,3.59-.42,5.39A11.07,11.07,0,0,0,212.42,245.2Z"/><path class="cls-11" d="M220.1,246.76a15.45,15.45,0,0,1-1.27-5.5c-.09-1.92.15-3.76.22-5.62s.24-3.72.45-5.58a19,19,0,0,1,.43-2.79c.11-.45.22-.9.31-1.36a5.35,5.35,0,0,0,.11-.68,1.21,1.21,0,0,0,0-.68,2.64,2.64,0,0,1,.18,1.39c0,.47-.05.94-.09,1.41-.13.93-.09,1.82-.14,2.77,0,1.86-.11,3.72-.22,5.58-.06.94-.13,1.87-.22,2.8s-.17,1.83-.21,2.75A23.93,23.93,0,0,0,220.1,246.76Z"/><path class="cls-11" d="M226.21,246.65a45.34,45.34,0,0,0,1.19-5.45c.13-.92.25-1.82.31-2.75l.25-2.79c.19-1.85.35-3.71.51-5.56s.65-3.71.51-5.58c.53,1.85.19,3.78.27,5.61s-.13,3.76-.3,5.63a45,45,0,0,1-.78,5.59A22.06,22.06,0,0,1,226.21,246.65Z"/><path class="cls-9" d="M319.53,218.62a6.63,6.63,0,0,1,2-.35,3.76,3.76,0,0,1,4.21,2.6c1.37,3.45,1,7.2.8,10.89a91.31,91.31,0,0,1-1.19,10c-.28,1.36-.76,3-2.49,3a7.13,7.13,0,0,1-3.53-1.43,4.48,4.48,0,0,1-3.24,3.88c-1.69.42-4.09-1-5.18-2.27a3.74,3.74,0,0,1-3.78,3.87c-2.56-.09-3.29-3.11-3.94-5-.8.63-2.94.5-3.89.17a5.35,5.35,0,0,1-3-3.22,37.92,37.92,0,0,1-2.08-10.34c-.35-3.71-.66-6.65.83-10.12.72-1.59,1.76-2.33,3.42-2s2.47,1.1,4.17.21c1.52-.84,2.8-1.46,4.5-.68.59.32,1.21,1.24,1.93,1.32s1.39-.61,1.94-.94a6.36,6.36,0,0,1,4.21-.81c1.07.22,2,1.38,3,1.48h.06Z"/><path class="cls-11" d="M318.06,246a11.1,11.1,0,0,0,1-5.2c0-1.8,0-3.6-.06-5.4s-.08-3.62,0-5.43.26-3.61.11-5.43a22.64,22.64,0,0,1,.67,5.41c.12,1.81.21,3.61.25,5.43a47.42,47.42,0,0,1-.16,5.46A9.05,9.05,0,0,1,318.06,246Z"/><path class="cls-11" d="M310.29,247.07a23.86,23.86,0,0,0,.85-5.46c0-.92,0-1.82,0-2.76s0-1.87,0-2.8c0-1.87.08-3.73.15-5.59,0-1,.12-1.84,0-2.77q0-.7,0-1.41a2.72,2.72,0,0,1,.28-1.38,1.18,1.18,0,0,0-.08.67q0,.35.06.69c.06.46.14.92.22,1.38a17.91,17.91,0,0,1,.25,2.82c.08,1.86.07,3.73.07,5.59s.07,3.71-.15,5.62A15.11,15.11,0,0,1,310.29,247.07Z"/><path class="cls-11" d="M304.21,246.56a21.7,21.7,0,0,1-1.61-5.42,46.79,46.79,0,0,1-.41-5.63c-.05-1.88-.05-3.76.08-5.63s0-3.78.64-5.58c-.27,1.85.2,3.7.14,5.6s.07,3.71.14,5.58l.06,2.8c0,.93.06,1.84.12,2.76A45.74,45.74,0,0,0,304.21,246.56Z"/><path class="cls-9" d="M477.18,216a6.57,6.57,0,0,1,2-.34,3.74,3.74,0,0,1,4.21,2.59c1.37,3.46,1.06,7.21.81,10.9a94.14,94.14,0,0,1-1.19,10c-.29,1.36-.76,3-2.49,3a7.13,7.13,0,0,1-3.53-1.43,4.49,4.49,0,0,1-3.25,3.88c-1.68.42-4.08-1-5.17-2.27a3.74,3.74,0,0,1-3.78,3.87c-2.56-.09-3.29-3.11-3.94-5-.8.63-2.95.5-3.89.17a5.35,5.35,0,0,1-3-3.22,37.55,37.55,0,0,1-2.08-10.34c-.35-3.72-.66-6.65.83-10.12.71-1.59,1.75-2.33,3.41-2s2.47,1.1,4.18.21c1.52-.85,2.79-1.46,4.5-.68.58.32,1.21,1.24,1.92,1.32s1.4-.61,2-1a6.4,6.4,0,0,1,4.2-.8c1.07.22,2,1.38,3.06,1.48H476Z"/><path class="cls-11" d="M475.71,243.38a11.35,11.35,0,0,0,1-5.2c0-1.8,0-3.6-.07-5.4s-.08-3.62,0-5.43.26-3.61.11-5.43a23.16,23.16,0,0,1,.67,5.41c.11,1.81.2,3.61.25,5.43a47.49,47.49,0,0,1-.16,5.46A9.13,9.13,0,0,1,475.71,243.38Z"/><path class="cls-11" d="M467.94,244.42a24.42,24.42,0,0,0,.85-5.46c0-.92,0-1.82,0-2.76s0-1.87,0-2.81c0-1.86.07-3.73.15-5.59,0-.94.11-1.83.05-2.76,0-.47,0-.94,0-1.42a2.49,2.49,0,0,1,.28-1.37,1.1,1.1,0,0,0-.08.67q0,.35.06.69c.06.46.14.92.22,1.38a19,19,0,0,1,.25,2.81c.08,1.87.07,3.74.07,5.6s.07,3.71-.15,5.62A15.32,15.32,0,0,1,467.94,244.42Z"/><path class="cls-11" d="M461.85,243.91a22.1,22.1,0,0,1-1.6-5.42,49,49,0,0,1-.42-5.63c0-1.88,0-3.76.08-5.64s0-3.77.65-5.57c-.27,1.85.2,3.7.13,5.59s.08,3.72.14,5.59l.07,2.8c0,.93.06,1.84.12,2.76A46,46,0,0,0,461.85,243.91Z"/><path class="cls-3" d="M499.5,213.71a6.91,6.91,0,0,0-2,.1,3.76,3.76,0,0,0-3.53,3.47c-.57,3.67.57,7.25,1.63,10.8a96.33,96.33,0,0,0,3.37,9.48c.59,1.26,1.42,2.77,3.11,2.38a7.16,7.16,0,0,0,3.12-2.18,4.48,4.48,0,0,0,4,3.07c1.74,0,3.75-1.92,4.55-3.36a3.74,3.74,0,0,0,4.54,2.93c2.48-.66,2.52-3.76,2.72-5.79.92.44,3-.17,3.83-.7a5.33,5.33,0,0,0,2.21-3.79,37.68,37.68,0,0,0-.27-10.55c-.48-3.7-.83-6.63-3-9.69-1-1.39-2.23-1.88-3.77-1.16s-2.16,1.62-4,1.13c-1.67-.49-3.05-.8-4.54.34-.5.44-.91,1.47-1.59,1.71s-1.49-.28-2.1-.49a6.42,6.42,0,0,0-4.28.15c-1,.44-1.69,1.8-2.65,2.12h-.06Z"/><path class="cls-12" d="M507,240.11a9.06,9.06,0,0,1-2.89-4.63,48.87,48.87,0,0,1-1.36-5.29c-.36-1.78-.67-3.56-1-5.35a23.36,23.36,0,0,1-.55-5.42c.26,1.8.88,3.48,1.31,5.26s.8,3.54,1.17,5.31.73,3.53,1.14,5.28A11.18,11.18,0,0,0,507,240.11Z"/><path class="cls-12" d="M514.83,239.41A15.22,15.22,0,0,1,512,234.5c-.64-1.81-.94-3.65-1.4-5.44s-.83-3.63-1.17-5.47a18.8,18.8,0,0,1-.38-2.81c0-.46,0-.92-.09-1.39,0-.23-.05-.46-.09-.68a1.3,1.3,0,0,0-.23-.64,2.59,2.59,0,0,1,.58,1.28c.12.45.21.92.31,1.37.14.93.43,1.78.66,2.69.49,1.8.95,3.6,1.38,5.42.21.91.41,1.82.59,2.75s.36,1.8.58,2.69A23.57,23.57,0,0,0,514.83,239.41Z"/><path class="cls-12" d="M520.64,237.56a44.36,44.36,0,0,0-.41-5.56c-.14-.92-.29-1.82-.5-2.73l-.55-2.74q-.52-2.75-1.1-5.48c-.49-1.83-.44-3.73-1.11-5.49,1,1.62,1.27,3.57,1.86,5.3s1,3.64,1.33,5.47a48.89,48.89,0,0,1,.85,5.59A21.76,21.76,0,0,1,520.64,237.56Z"/><path class="cls-3" d="M624.52,192.94a6.8,6.8,0,0,1,1.91-.62,3.74,3.74,0,0,1,4.53,2c1.85,3.23,2.07,7,2.34,10.67a93.67,93.67,0,0,1,.24,10.06c-.1,1.39-.33,3.1-2,3.34a7.35,7.35,0,0,1-3.69-.92,4.5,4.5,0,0,1-2.66,4.3c-1.62.65-4.19-.45-5.45-1.52a3.74,3.74,0,0,1-3.19,4.36c-2.55.28-3.7-2.6-4.62-4.42-.7.73-2.84.9-3.82.71a5.33,5.33,0,0,1-3.42-2.76,38.11,38.11,0,0,1-3.52-9.94c-.87-3.63-1.6-6.5-.61-10.14.48-1.67,1.41-2.55,3.11-2.43s2.6.74,4.16-.39c1.38-1.05,2.56-1.83,4.36-1.31.62.24,1.37,1.06,2.09,1s1.29-.8,1.79-1.21a6.43,6.43,0,0,1,4.05-1.4c1.09.07,2.22,1.09,3.23,1h.06Z"/><path class="cls-12" d="M626.93,220.29a11.29,11.29,0,0,0,.27-5.29c-.24-1.78-.53-3.56-.83-5.34s-.59-3.57-.8-5.37-.25-3.61-.66-5.39a23.17,23.17,0,0,1,1.43,5.26q.55,2.66,1,5.34a49,49,0,0,1,.61,5.43A9.12,9.12,0,0,1,626.93,220.29Z"/><path class="cls-12" d="M619.38,222.42a23.83,23.83,0,0,0,.08-5.53c-.11-.91-.24-1.81-.42-2.72s-.3-1.85-.43-2.78c-.25-1.85-.46-3.7-.65-5.55-.11-.94-.15-1.84-.34-2.75-.08-.46-.15-.93-.2-1.4a2.56,2.56,0,0,1,.08-1.4,1.21,1.21,0,0,0,0,.68,5,5,0,0,0,.16.67c.12.45.26.89.41,1.33a19.33,19.33,0,0,1,.64,2.76c.35,1.84.6,3.68.87,5.53s.59,3.66.64,5.58A15.27,15.27,0,0,1,619.38,222.42Z"/><path class="cls-12" d="M613.29,222.76a21.68,21.68,0,0,1-2.35-5.13,46.54,46.54,0,0,1-1.21-5.52c-.31-1.85-.58-3.71-.71-5.58s-.55-3.74-.16-5.62c0,1.88.73,3.64.93,5.53s.6,3.67.93,5.5l.46,2.76c.13.93.31,1.82.51,2.73A45.14,45.14,0,0,0,613.29,222.76Z"/></g></g></g></svg>