<svg xmlns="http://www.w3.org/2000/svg" viewBox="0 0 547.77 213.84"><defs><style>.cls-1{fill:#fff;}</style></defs><g id="Capa_2" data-name="Capa 2"><g id="Capa_1-2" data-name="Capa 1"><path class="cls-1" d="M0,.43H13.34a27,27,0,0,1,8.88,1.3,14.38,14.38,0,0,1,2.12.91A16.55,16.55,0,0,1,27,4.49a16.9,16.9,0,0,1,2.76,2.85,14.65,14.65,0,0,1,2.06,4.06,16,16,0,0,1,.87,5.35,17.6,17.6,0,0,1-.27,3.07,21.31,21.31,0,0,1-1,3.6,12.27,12.27,0,0,1-2.48,4,15.28,15.28,0,0,1-4.22,3.29q-4.56,2.45-12,2.45H0ZM12.38,6.67H8.26V26.93h3.31a19.79,19.79,0,0,0,7.2-1,8.75,8.75,0,0,0,4-3.48,10.89,10.89,0,0,0,1.46-5.79q0-6.9-5.52-9.16A17.54,17.54,0,0,0,12.38,6.67Z"/><path class="cls-1" d="M46.7.43V33.17H38.45V.43Z"/><path class="cls-1" d="M54,.43H67.39a15.27,15.27,0,0,1,7.15,1.35,9.38,9.38,0,0,1,3.58,3.4,9.2,9.2,0,0,1,1.42,5,9.78,9.78,0,0,1-4.71,8.35,9,9,0,0,1-2.59,1.08,12.78,12.78,0,0,1-2.4.41c-.64,0-1.55.05-2.74.05H62.26V33.17H54ZM65.14,6.48H62.26V14h2.68q1.11,0,1.71,0a11,11,0,0,0,1.58-.21,3.59,3.59,0,0,0,1.49-.58,3.75,3.75,0,0,0,.94-1.15,3.86,3.86,0,0,0,.43-1.87,3.58,3.58,0,0,0-.43-1.8,3.35,3.35,0,0,0-1-1.11,4.19,4.19,0,0,0-1.49-.55A11.11,11.11,0,0,0,66.7,6.5Z"/><path class="cls-1" d="M110.21,27.07v6.1h-25V.43H93.5V27.07Z"/><path class="cls-1" d="M150.38,16.85a15.17,15.17,0,0,1-1.2,5.83,18.39,18.39,0,0,1-3.45,5.38,16.52,16.52,0,0,1-6,4,21.39,21.39,0,0,1-8.28,1.54,20.45,20.45,0,0,1-7.68-1.42,17.61,17.61,0,0,1-5.93-3.76,17.8,17.8,0,0,1-3.72-5.36A14.88,14.88,0,0,1,114,11a19.11,19.11,0,0,1,3.48-5.42,16.24,16.24,0,0,1,6-4A21,21,0,0,1,131.61,0a20.66,20.66,0,0,1,7.8,1.44,17.77,17.77,0,0,1,6,3.79,17.21,17.21,0,0,1,3.69,5.38A15.4,15.4,0,0,1,150.38,16.85Zm-11.49,7.46a9.15,9.15,0,0,0,3-7.27,9.77,9.77,0,0,0-2.8-7.34A10.37,10.37,0,0,0,131.57,7a10.5,10.5,0,0,0-7.4,2.66A9.56,9.56,0,0,0,121.29,17a11,11,0,0,0,.7,4,7.88,7.88,0,0,0,1.8,2.86,10.67,10.67,0,0,0,2.52,1.82,9.88,9.88,0,0,0,2.74,1,12.74,12.74,0,0,0,2.56.27A10.7,10.7,0,0,0,138.89,24.31Z"/><path class="cls-1" d="M191,.43V33.17h-8.26v-20L174,23.71h-1.2L164,13.15v20h-8.26V.43H163l10.37,12.43L183.84.43Z"/><path class="cls-1" d="M217.44.43,232,33.17H223.2l-2.69-6.48H205.87l-2.45,6.48h-8.64L208,.43ZM218.11,21,212.83,8.3,208,21Z"/><path class="cls-1" d="M235.77.43h13.35A27.08,27.08,0,0,1,258,1.73a14.76,14.76,0,0,1,2.11.91,16.55,16.55,0,0,1,2.66,1.85,16.9,16.9,0,0,1,2.76,2.85,14.93,14.93,0,0,1,2.07,4.06,16.26,16.26,0,0,1,.86,5.35,18.62,18.62,0,0,1-.26,3.07,22.44,22.44,0,0,1-1,3.6,12.4,12.4,0,0,1-2.47,4,15.33,15.33,0,0,1-4.23,3.29q-4.56,2.45-12,2.45H235.77Zm12.39,6.24H244V26.93h3.31a19.72,19.72,0,0,0,7.2-1,8.7,8.7,0,0,0,4-3.48A10.89,10.89,0,0,0,260,16.7q0-6.9-5.52-9.16A17.51,17.51,0,0,0,248.16,6.67Z"/><path class="cls-1" d="M309.84,16.85a15.17,15.17,0,0,1-1.2,5.83,18.22,18.22,0,0,1-3.46,5.38,16.48,16.48,0,0,1-6,4,21.43,21.43,0,0,1-8.28,1.54,20.37,20.37,0,0,1-7.68-1.42,17.09,17.09,0,0,1-9.65-9.12A14.77,14.77,0,0,1,273.48,11,18.68,18.68,0,0,1,277,5.57a16.08,16.08,0,0,1,6-4,22.12,22.12,0,0,1,16-.1,17.72,17.72,0,0,1,5.95,3.79,17.08,17.08,0,0,1,3.7,5.38A15.4,15.4,0,0,1,309.84,16.85Zm-11.5,7.46A9.16,9.16,0,0,0,301.39,17a9.78,9.78,0,0,0-2.81-7.34A10.34,10.34,0,0,0,291,7a10.47,10.47,0,0,0-7.39,2.66A9.56,9.56,0,0,0,280.75,17a10.81,10.81,0,0,0,.7,4,7.88,7.88,0,0,0,1.8,2.86,10.27,10.27,0,0,0,2.52,1.82,9.82,9.82,0,0,0,2.73,1,12.84,12.84,0,0,0,2.57.27A10.67,10.67,0,0,0,298.34,24.31Z"/><path class="cls-1" d="M359.37.43,344.25,33.6H340.7L324.86.43h8.88l8.64,18.67L350.59.43Z"/><path class="cls-1" d="M371.28.43V33.17H363V.43Z"/><path class="cls-1" d="M378.57.43h12.58c1.31,0,2.33,0,3.05,0a15,15,0,0,1,2.68.43,9.79,9.79,0,0,1,2.86,1.15,11,11,0,0,1,2.95,3.1A8.19,8.19,0,0,1,404,9.79c0,3.59-1.87,6.27-5.61,8.07,1.76.86,3.32,2.91,4.7,6.14.29.58,1.34,2.85,3.17,6.82l1.1,2.35h-9c-.23-.45-.93-2-2.12-4.61S394.4,24.4,394.17,24a15.81,15.81,0,0,0-1.53-2.37,4.07,4.07,0,0,0-1.56-1.25,5.23,5.23,0,0,0-1.4-.43,13,13,0,0,0-1.65-.08h-1.2V33.17h-8.26Zm12.39,6h-4.13v7.49h3.41c1.18-.06,2-.12,2.32-.17a3.37,3.37,0,0,0,1.18-.4,3.28,3.28,0,0,0,1.78-3.17Q395.52,6.38,391,6.38Z"/><path class="cls-1" d="M440.73.43V6.58H428.92V33.17h-8.3V6.58H408.76V.43Z"/><path class="cls-1" d="M478.27.43V18.24q0,6.63-2.83,10.08Q471,33.6,461.66,33.6t-13.78-5.81q-2.49-3.32-2.49-9.31V.43h8.25V16.66a17.69,17.69,0,0,0,.58,5.08,6.75,6.75,0,0,0,2.88,3.94A8.55,8.55,0,0,0,461.8,27a7.75,7.75,0,0,0,5-1.51,8.29,8.29,0,0,0,2.6-3.29,17.68,17.68,0,0,0,.57-5.56V.43Z"/><path class="cls-1" d="M504.47.43,519,33.17h-8.79l-2.68-6.48H492.91l-2.45,6.48h-8.64L495,.43ZM505.15,21,499.87,8.3,495.07,21Z"/><path class="cls-1" d="M547.77,27.07v6.1h-25V.43h8.26V27.07Z"/><path class="cls-1" d="M17,73l-.32,2.23h-9L6.34,84h8.42l-.32,2.23H6.05L4.32,97.56H1.84L5.48,73Z"/><path class="cls-1" d="M30.21,87.84c0,3.19-.78,5.68-2.34,7.45A7,7,0,0,1,22.47,98a6.81,6.81,0,0,1-1.07-.09A5.91,5.91,0,0,1,20,97.36a5.36,5.36,0,0,1-1.59-1.11,6.05,6.05,0,0,1-1.19-2.09,9.55,9.55,0,0,1-.5-3.22q0-4.68,2.32-7.31A7,7,0,0,1,24.38,81a5.54,5.54,0,0,1,4.14,1.76A7.1,7.1,0,0,1,30.21,87.84ZM19.12,91a8.36,8.36,0,0,0,.38,2.68,3.11,3.11,0,0,0,1,1.55,4.5,4.5,0,0,0,1.06.61,2.52,2.52,0,0,0,.88.16,3.85,3.85,0,0,0,2.88-1.35,8.42,8.42,0,0,0,1.86-3.17,11.86,11.86,0,0,0,.59-3.65,6.23,6.23,0,0,0-.92-3.55,2.93,2.93,0,0,0-2.57-1.35,4.28,4.28,0,0,0-3.67,2.38A10.51,10.51,0,0,0,19.12,91Z"/><path class="cls-1" d="M34.85,81.4h2.3l-.54,4A12.82,12.82,0,0,1,39,82.08,3.76,3.76,0,0,1,41.62,81a4.8,4.8,0,0,1,1.47.29l-.25,2.37a4.18,4.18,0,0,0-1.47-.36,2.85,2.85,0,0,0-1.14.24,3.93,3.93,0,0,0-1,.65,10.75,10.75,0,0,0-.92.86,6.66,6.66,0,0,0-.79,1l-.6.92c-.15.24-.31.5-.48.79l-.22.43-1.33,9.36H32.48Z"/><path class="cls-1" d="M52.49,81.4l-.29,1.94H48.42L47.23,90q-.54,3.24-.54,3.81a2,2,0,0,0,.67,1.66,2.34,2.34,0,0,0,1.42.5,5.15,5.15,0,0,0,3.13-1.22l-.07,2.27a7.35,7.35,0,0,1-3.42.9,4.29,4.29,0,0,1-2.86-1,3.53,3.53,0,0,1-1.21-2.83,18.07,18.07,0,0,1,.51-3.88l1.26-6.88h-3l.29-1.94h3l.61-3.5h2.31l-.58,3.5Z"/><path class="cls-1" d="M68.33,81.4,66,97.56h-2.3l.29-1.91A7.54,7.54,0,0,1,59,97.78,5,5,0,0,1,55.14,96a6.43,6.43,0,0,1-1.61-4.43,9.91,9.91,0,0,1,3.14-7.69,11.31,11.31,0,0,1,8-2.86A20.93,20.93,0,0,1,68.33,81.4ZM64.26,93.31l1.48-10.22a5.29,5.29,0,0,0-1.48-.15,8,8,0,0,0-5.88,2.38A8.18,8.18,0,0,0,56,91.4a5.24,5.24,0,0,0,1,3.12,3.17,3.17,0,0,0,2.72,1.38,4.76,4.76,0,0,0,2.57-.81A7.18,7.18,0,0,0,64.26,93.31Z"/><path class="cls-1" d="M76.32,73,72.76,97.56H70.45L74,73Z"/><path class="cls-1" d="M91,89.06H80.17c0,.53-.07,1-.07,1.41a5.69,5.69,0,0,0,1.41,4A4.3,4.3,0,0,0,84.78,96a6.72,6.72,0,0,0,1.35-.14,7.35,7.35,0,0,0,1.15-.33,5.69,5.69,0,0,0,1-.5l.81-.5A7.77,7.77,0,0,0,89.8,94a5.16,5.16,0,0,1,.49-.37l-.36,2.59A8.51,8.51,0,0,1,84.71,98a6.22,6.22,0,0,1-5.22-2.36,8.6,8.6,0,0,1-1.84-5.42,9.26,9.26,0,0,1,2.4-6.66A7.09,7.09,0,0,1,85.25,81a5.21,5.21,0,0,1,4.18,1.93,7.41,7.41,0,0,1,1.62,4.95A9,9,0,0,1,91,89.06ZM80.53,87.41h8.25a4.89,4.89,0,0,0-1-3.31,3.21,3.21,0,0,0-2.52-1.16,4.29,4.29,0,0,0-2.79,1.14A6.31,6.31,0,0,0,80.53,87.41Z"/><path class="cls-1" d="M106.53,81.29l-.33,2.23a12.61,12.61,0,0,0-2.84-.36,6.82,6.82,0,0,0-5.31,2.29A7.47,7.47,0,0,0,96,90.61a5.9,5.9,0,0,0,1.2,3.67A4.43,4.43,0,0,0,101,95.87a9,9,0,0,0,4.5-1.48l-.36,2.45A10,10,0,0,1,100.62,98a6.74,6.74,0,0,1-5.22-2,7.41,7.41,0,0,1-1.87-5.24,9.6,9.6,0,0,1,.63-3.4A10.29,10.29,0,0,1,96,84.19a8.72,8.72,0,0,1,3.2-2.31,11,11,0,0,1,4.52-.88A15.77,15.77,0,0,1,106.53,81.29Z"/><path class="cls-1" d="M112.28,81.4l-2.34,16.16h-2.3l2.3-16.16Zm.72-4.22a1.64,1.64,0,0,1-2.3,0,1.56,1.56,0,0,1-.47-1.15,1.6,1.6,0,0,1,1.62-1.62,1.56,1.56,0,0,1,1.15.47,1.64,1.64,0,0,1,0,2.3Z"/><path class="cls-1" d="M116.71,81.4H119l-.4,2.84.36-.36.43-.43.45-.42.52-.45.53-.41a3.31,3.31,0,0,1,.61-.4l.65-.3a2.81,2.81,0,0,1,.72-.25l.73-.15a4.5,4.5,0,0,1,.83-.07q3.06,0,3.82,3.6,3.06-3.6,6.12-3.6a3.84,3.84,0,0,1,2.91,1.12,4.1,4.1,0,0,1,1.08,3,17.08,17.08,0,0,1-.18,2l-1.47,10.44h-2.34L135.9,86.9a10.84,10.84,0,0,0,.11-1.51c0-1.63-.71-2.45-2.13-2.45q-2.62,0-5.61,3.71l-1.55,10.91h-2.34l1.4-9.83a9.44,9.44,0,0,0,.22-2.3,3.54,3.54,0,0,0-.13-.9,2.26,2.26,0,0,0-.68-1,2,2,0,0,0-1.42-.54,4.72,4.72,0,0,0-1.86.38,5.83,5.83,0,0,0-1.71,1.19c-.55.54-.91.91-1.09,1.12s-.47.55-.85,1.06l-1.62,10.87h-2.27Z"/><path class="cls-1" d="M145.51,81.4l-2.34,16.16h-2.3l2.3-16.16Zm.72-4.22a1.64,1.64,0,0,1-2.3,0,1.56,1.56,0,0,1-.47-1.15,1.58,1.58,0,0,1,.47-1.15,1.64,1.64,0,0,1,2.3,0A1.58,1.58,0,0,1,146.7,76,1.56,1.56,0,0,1,146.23,77.18Z"/><path class="cls-1" d="M161.39,89.06h-10.8c-.05.53-.07,1-.07,1.41a5.68,5.68,0,0,0,1.4,4A4.33,4.33,0,0,0,155.2,96a6.88,6.88,0,0,0,1.35-.14,8,8,0,0,0,1.15-.33,6,6,0,0,0,1-.5l.81-.5c.18-.12.41-.3.69-.53a5.85,5.85,0,0,1,.48-.37l-.36,2.59A8.47,8.47,0,0,1,155.12,98a6.25,6.25,0,0,1-5.22-2.36,8.6,8.6,0,0,1-1.83-5.42,9.29,9.29,0,0,1,2.39-6.66,7.11,7.11,0,0,1,5.2-2.52,5.19,5.19,0,0,1,4.18,1.93,7.41,7.41,0,0,1,1.62,4.95A9,9,0,0,1,161.39,89.06ZM151,87.41h8.24a4.84,4.84,0,0,0-1-3.31,3.21,3.21,0,0,0-2.52-1.16,4.29,4.29,0,0,0-2.79,1.14A6.24,6.24,0,0,0,151,87.41Z"/><path class="cls-1" d="M165.89,81.4h2.34l-.43,3a19.07,19.07,0,0,1,3-2.53,5.29,5.29,0,0,1,2.94-.85,3.64,3.64,0,0,1,3,1.21,4.56,4.56,0,0,1,1,3,13.71,13.71,0,0,1-.14,1.77L176,97.56h-2.3l1.51-10.51a9.79,9.79,0,0,0,.11-1.55c0-1.7-.77-2.56-2.31-2.56a3.86,3.86,0,0,0-1.22.18,7,7,0,0,0-1.69,1.1,25.66,25.66,0,0,0-2.74,2.65l-1.55,10.69h-2.34Z"/><path class="cls-1" d="M189.76,81.4l-.29,1.94h-3.78L184.5,90q-.54,3.24-.54,3.81a1.94,1.94,0,0,0,.67,1.66,2.32,2.32,0,0,0,1.42.5,5.17,5.17,0,0,0,3.13-1.22l-.07,2.27a7.35,7.35,0,0,1-3.42.9,4.27,4.27,0,0,1-2.86-1,3.5,3.5,0,0,1-1.21-2.83,18.63,18.63,0,0,1,.5-3.88l1.26-6.88h-3l.28-1.94h3l.61-3.5h2.3l-.57,3.5Z"/><path class="cls-1" d="M204.41,87.84c0,3.19-.78,5.68-2.34,7.45a7,7,0,0,1-5.4,2.67,6.81,6.81,0,0,1-1.07-.09,5.91,5.91,0,0,1-1.45-.51,5.36,5.36,0,0,1-1.59-1.11,5.89,5.89,0,0,1-1.18-2.09,9.3,9.3,0,0,1-.51-3.22,10.7,10.7,0,0,1,2.32-7.31A7,7,0,0,1,198.58,81a5.54,5.54,0,0,1,4.14,1.76A7.1,7.1,0,0,1,204.41,87.84ZM193.32,91a8.36,8.36,0,0,0,.38,2.68,3.11,3.11,0,0,0,1,1.55,4.5,4.5,0,0,0,1.06.61,2.52,2.52,0,0,0,.88.16,3.85,3.85,0,0,0,2.88-1.35,8.42,8.42,0,0,0,1.86-3.17,11.86,11.86,0,0,0,.59-3.65,6.23,6.23,0,0,0-.92-3.55,2.93,2.93,0,0,0-2.57-1.35,4.28,4.28,0,0,0-3.67,2.38A10.51,10.51,0,0,0,193.32,91Z"/><path class="cls-1" d="M232.56,73,229,97.45a16,16,0,0,1-4.14.51,9,9,0,0,1-6.19-2,6.66,6.66,0,0,1-2.27-5.24,9.34,9.34,0,0,1,.65-3.37A10.45,10.45,0,0,1,219,84.24a9.09,9.09,0,0,1,3.38-2.34,12.26,12.26,0,0,1,4.82-.9c.6,0,1.22,0,1.84.07L230.22,73Zm-5.65,22.82L228.74,83a12.15,12.15,0,0,0-1.4-.08,10.38,10.38,0,0,0-3.58.58,7,7,0,0,0-2.45,1.42,7.38,7.38,0,0,0-1.46,2,8.29,8.29,0,0,0-.77,2,7.48,7.48,0,0,0-.2,1.7,5.15,5.15,0,0,0,1.64,4,6,6,0,0,0,4.26,1.51A9.24,9.24,0,0,0,226.91,95.83Z"/><path class="cls-1" d="M247.07,89.06h-10.8c-.05.53-.08,1-.08,1.41a5.69,5.69,0,0,0,1.41,4A4.31,4.31,0,0,0,240.87,96a6.72,6.72,0,0,0,1.35-.14,7.84,7.84,0,0,0,1.16-.33,6,6,0,0,0,1-.5l.81-.5c.18-.12.41-.3.69-.53a4.4,4.4,0,0,1,.48-.37L246,96.23A8.47,8.47,0,0,1,240.8,98a6.25,6.25,0,0,1-5.22-2.36,8.6,8.6,0,0,1-1.83-5.42,9.25,9.25,0,0,1,2.39-6.66,7.11,7.11,0,0,1,5.2-2.52,5.19,5.19,0,0,1,4.18,1.93,7.41,7.41,0,0,1,1.62,4.95A11.17,11.17,0,0,1,247.07,89.06Zm-10.44-1.65h8.24a4.89,4.89,0,0,0-1-3.31,3.21,3.21,0,0,0-2.52-1.16,4.29,4.29,0,0,0-2.79,1.14A6.24,6.24,0,0,0,236.63,87.41Z"/><path class="cls-1" d="M264.67,73l-3.56,24.55H258.8L262.37,73Z"/><path class="cls-1" d="M280.65,81.4l-2.37,16.16H276l.29-1.91a7.52,7.52,0,0,1-4.93,2.13,5,5,0,0,1-3.87-1.8,6.42,6.42,0,0,1-1.6-4.43A9.9,9.9,0,0,1,269,83.86,11.34,11.34,0,0,1,277,81,20.92,20.92,0,0,1,280.65,81.4Zm-4.06,11.91,1.47-10.22a5.21,5.21,0,0,0-1.47-.15,8,8,0,0,0-5.89,2.38,8.17,8.17,0,0,0-2.39,6.08,5.18,5.18,0,0,0,1,3.12A3.15,3.15,0,0,0,272,95.9a4.77,4.77,0,0,0,2.58-.81A7.47,7.47,0,0,0,276.59,93.31Z"/><path class="cls-1" d="M305.38,81.29l-.32,2.23a12.61,12.61,0,0,0-2.84-.36,6.82,6.82,0,0,0-5.31,2.29,7.47,7.47,0,0,0-2.07,5.16,5.9,5.9,0,0,0,1.2,3.67,4.43,4.43,0,0,0,3.76,1.59,8.92,8.92,0,0,0,4.5-1.48l-.36,2.45A9.92,9.92,0,0,1,299.48,98a6.74,6.74,0,0,1-5.22-2,7.41,7.41,0,0,1-1.87-5.24,9.6,9.6,0,0,1,.63-3.4,10.47,10.47,0,0,1,1.83-3.09,8.85,8.85,0,0,1,3.21-2.31,11,11,0,0,1,4.52-.88A15.57,15.57,0,0,1,305.38,81.29Z"/><path class="cls-1" d="M321.4,81.4,319,97.56h-2.31l.29-1.91a7.52,7.52,0,0,1-4.93,2.13,5,5,0,0,1-3.87-1.8,6.42,6.42,0,0,1-1.6-4.43,9.9,9.9,0,0,1,3.13-7.69,11.34,11.34,0,0,1,8-2.86A20.92,20.92,0,0,1,321.4,81.4Zm-4.06,11.91,1.47-10.22a5.21,5.21,0,0,0-1.47-.15,8.06,8.06,0,0,0-5.89,2.38,8.17,8.17,0,0,0-2.39,6.08,5.24,5.24,0,0,0,1,3.12,3.15,3.15,0,0,0,2.71,1.38,4.77,4.77,0,0,0,2.58-.81A7.32,7.32,0,0,0,317.34,93.31Z"/><path class="cls-1" d="M327,77.69h2.31l-.61,4.14A7.79,7.79,0,0,1,332.2,81a6.16,6.16,0,0,1,4.41,2,7.37,7.37,0,0,1,2,5.53,8.66,8.66,0,0,1-2.93,7A10.16,10.16,0,0,1,328.89,98c-1.22,0-2.06,0-2.52,0l-1.15,7.6H323l3-20.49A12.81,12.81,0,0,0,324,87l-.43.61c-.17.24-.29.42-.38.53s-.15.16-.2.16-.18-.11-.18-.33a5,5,0,0,1,.87-2,11.87,11.87,0,0,1,2.45-2.79Zm1.44,5.9-1.76,12.35a8.6,8.6,0,0,0,1.55.11,9.58,9.58,0,0,0,3.78-.7,5.9,5.9,0,0,0,2.48-1.88A8.49,8.49,0,0,0,335.75,91a8.07,8.07,0,0,0,.41-2.59,6.77,6.77,0,0,0-.5-2.72A4.19,4.19,0,0,0,334.38,84a5.8,5.8,0,0,0-1.51-.85,4.14,4.14,0,0,0-1.42-.27A6.69,6.69,0,0,0,328.42,83.59Z"/><path class="cls-1" d="M356,81.4l-2.38,16.16h-2.3l.28-1.91a7.52,7.52,0,0,1-4.93,2.13,5,5,0,0,1-3.87-1.8,6.42,6.42,0,0,1-1.6-4.43,9.9,9.9,0,0,1,3.13-7.69,11.34,11.34,0,0,1,8-2.86A21,21,0,0,1,356,81.4ZM352,93.31l1.47-10.22a5.21,5.21,0,0,0-1.47-.15,8.06,8.06,0,0,0-5.89,2.38,8.21,8.21,0,0,0-2.39,6.08,5.24,5.24,0,0,0,1,3.12,3.16,3.16,0,0,0,2.72,1.38,4.76,4.76,0,0,0,2.57-.81A7.32,7.32,0,0,0,352,93.31Z"/><path class="cls-1" d="M371.37,81.29l-.32,2.23a12.63,12.63,0,0,0-2.85-.36,6.82,6.82,0,0,0-5.31,2.29,7.47,7.47,0,0,0-2.07,5.16A5.91,5.91,0,0,0,362,94.28a4.41,4.41,0,0,0,3.76,1.59,8.92,8.92,0,0,0,4.5-1.48l-.36,2.45A10,10,0,0,1,365.47,98a6.74,6.74,0,0,1-5.22-2,7.41,7.41,0,0,1-1.87-5.24,9.6,9.6,0,0,1,.63-3.4,10.47,10.47,0,0,1,1.83-3.09,8.76,8.76,0,0,1,3.21-2.31,11,11,0,0,1,4.51-.88A15.68,15.68,0,0,1,371.37,81.29Z"/><path class="cls-1" d="M377.13,81.4l-2.34,16.16h-2.3l2.3-16.16Zm.72-4.22a1.64,1.64,0,0,1-2.3,0,1.56,1.56,0,0,1-.47-1.15,1.58,1.58,0,0,1,.47-1.15,1.64,1.64,0,0,1,2.3,0,1.58,1.58,0,0,1,.47,1.15A1.56,1.56,0,0,1,377.85,77.18Z"/><path class="cls-1" d="M395.78,73l-3.53,24.44a16,16,0,0,1-4.14.51,9.05,9.05,0,0,1-6.19-2,6.66,6.66,0,0,1-2.27-5.24,9.34,9.34,0,0,1,.65-3.37,10.45,10.45,0,0,1,1.91-3.11,9.09,9.09,0,0,1,3.38-2.34,12.31,12.31,0,0,1,4.83-.9c.6,0,1.21,0,1.83.07L393.44,73Zm-5.65,22.82L392,83a12.15,12.15,0,0,0-1.4-.08,10.38,10.38,0,0,0-3.58.58,7,7,0,0,0-2.45,1.42,7.6,7.6,0,0,0-1.46,2,8.29,8.29,0,0,0-.77,2,8.09,8.09,0,0,0-.2,1.7,5.19,5.19,0,0,0,1.64,4A6,6,0,0,0,388,96.08,9.24,9.24,0,0,0,390.13,95.83Z"/><path class="cls-1" d="M411.62,81.4l-2.38,16.16h-2.3l.29-1.91a7.56,7.56,0,0,1-4.94,2.13,5,5,0,0,1-3.86-1.8,6.43,6.43,0,0,1-1.61-4.43A9.91,9.91,0,0,1,400,83.86a11.29,11.29,0,0,1,8-2.86A21,21,0,0,1,411.62,81.4Zm-4.07,11.91L409,83.09a5.34,5.34,0,0,0-1.48-.15,8,8,0,0,0-5.88,2.38,8.18,8.18,0,0,0-2.4,6.08,5.24,5.24,0,0,0,1,3.12A3.17,3.17,0,0,0,403,95.9a4.76,4.76,0,0,0,2.57-.81A7.32,7.32,0,0,0,407.55,93.31Z"/><path class="cls-1" d="M430.09,73l-3.53,24.44a16,16,0,0,1-4.14.51,9,9,0,0,1-6.19-2A6.62,6.62,0,0,1,414,90.72a9.13,9.13,0,0,1,.65-3.37,10.25,10.25,0,0,1,1.91-3.11,9,9,0,0,1,3.38-2.34,12.22,12.22,0,0,1,4.82-.9c.6,0,1.21,0,1.84.07L427.75,73Zm-5.65,22.82L426.27,83a12.15,12.15,0,0,0-1.4-.08,10.38,10.38,0,0,0-3.58.58,6.86,6.86,0,0,0-2.45,1.42,7.38,7.38,0,0,0-1.46,2,8.37,8.37,0,0,0-.78,2,8,8,0,0,0-.19,1.7,5.18,5.18,0,0,0,1.63,4,6.06,6.06,0,0,0,4.27,1.51A9.3,9.3,0,0,0,424.44,95.83Z"/><path class="cls-1" d="M456.76,73l-3.53,24.44a16,16,0,0,1-4.14.51,9.05,9.05,0,0,1-6.19-2,6.66,6.66,0,0,1-2.27-5.24,9.34,9.34,0,0,1,.65-3.37,10.45,10.45,0,0,1,1.91-3.11,9.18,9.18,0,0,1,3.38-2.34,12.31,12.31,0,0,1,4.83-.9c.6,0,1.21,0,1.83.07L454.42,73Zm-5.65,22.82L453,83a12.33,12.33,0,0,0-1.41-.08,10.42,10.42,0,0,0-3.58.58,7,7,0,0,0-2.45,1.42,7.6,7.6,0,0,0-1.46,2,8.29,8.29,0,0,0-.77,2,8.09,8.09,0,0,0-.2,1.7,5.19,5.19,0,0,0,1.64,4A6,6,0,0,0,449,96.08,9.22,9.22,0,0,0,451.11,95.83Z"/><path class="cls-1" d="M471.27,89.06h-10.8c-.05.53-.07,1-.07,1.41a5.73,5.73,0,0,0,1.4,4A4.33,4.33,0,0,0,465.08,96a6.88,6.88,0,0,0,1.35-.14,7.68,7.68,0,0,0,1.15-.33,6,6,0,0,0,1-.5l.81-.5c.18-.12.4-.3.68-.53a5.16,5.16,0,0,1,.49-.37l-.36,2.59A8.51,8.51,0,0,1,465,98a6.22,6.22,0,0,1-5.22-2.36A8.55,8.55,0,0,1,458,90.18a9.29,9.29,0,0,1,2.39-6.66A7.11,7.11,0,0,1,465.55,81a5.19,5.19,0,0,1,4.17,1.93,7.41,7.41,0,0,1,1.62,4.95A9,9,0,0,1,471.27,89.06Zm-10.44-1.65h8.24a4.89,4.89,0,0,0-1-3.31,3.23,3.23,0,0,0-2.52-1.16,4.29,4.29,0,0,0-2.79,1.14A6.25,6.25,0,0,0,460.83,87.41Z"/><path class="cls-1" d="M3.68,117.4H6l-.54,4a12.82,12.82,0,0,1,2.41-3.28A3.78,3.78,0,0,1,10.44,117a4.91,4.91,0,0,1,1.48.29l-.25,2.37a4.23,4.23,0,0,0-1.48-.36,2.83,2.83,0,0,0-1.13.24,4,4,0,0,0-1.05.65,10.61,10.61,0,0,0-.91.86,6.71,6.71,0,0,0-.8,1l-.59.92c-.16.24-.32.5-.49.79L5,124.2l-1.33,9.36H1.3Z"/><path class="cls-1" d="M25.35,125.06H14.55c-.05.53-.08,1-.08,1.41a5.69,5.69,0,0,0,1.41,4A4.31,4.31,0,0,0,19.15,132a6.72,6.72,0,0,0,1.35-.14,7.84,7.84,0,0,0,1.16-.33,6,6,0,0,0,1-.5l.81-.5c.18-.12.41-.3.69-.53a4.4,4.4,0,0,1,.48-.37l-.36,2.59A8.47,8.47,0,0,1,19.08,134a6.25,6.25,0,0,1-5.22-2.36A8.6,8.6,0,0,1,12,126.18a9.25,9.25,0,0,1,2.39-6.66,7.11,7.11,0,0,1,5.2-2.52,5.19,5.19,0,0,1,4.18,1.93,7.41,7.41,0,0,1,1.62,4.95A11.17,11.17,0,0,1,25.35,125.06Zm-10.44-1.65h8.24a4.89,4.89,0,0,0-1-3.31,3.21,3.21,0,0,0-2.52-1.16,4.29,4.29,0,0,0-2.79,1.14A6.24,6.24,0,0,0,14.91,123.41Z"/><path class="cls-1" d="M38.38,118.76,38,121a9,9,0,0,0-4.9-1.91,2.6,2.6,0,0,0-1.94.63,1.94,1.94,0,0,0-.61,1.38,1.88,1.88,0,0,0,.72,1.41c.48.43,1.72,1.35,3.74,2.77q2.63,1.8,2.63,4.21a4,4,0,0,1-1.53,3.21A5.67,5.67,0,0,1,32.4,134,9.19,9.19,0,0,1,27,131.9l.36-2.44a8,8,0,0,0,5.15,2.41,3,3,0,0,0,2-.6,1.81,1.81,0,0,0,.74-1.49,2.42,2.42,0,0,0-.14-.86,4.25,4.25,0,0,0-.88-1.1,16,16,0,0,0-2.18-1.71,14.74,14.74,0,0,1-2.9-2.4,3.58,3.58,0,0,1-.88-2.43,4,4,0,0,1,1.33-3A5.13,5.13,0,0,1,33.3,117,9.32,9.32,0,0,1,38.38,118.76Z"/><path class="cls-1" d="M43.89,113.69h2.3l-.61,4.14a7.8,7.8,0,0,1,3.53-.83,6.19,6.19,0,0,1,4.41,2,7.4,7.4,0,0,1,2,5.53,8.63,8.63,0,0,1-2.93,7A10.16,10.16,0,0,1,45.79,134c-1.22,0-2.06,0-2.52,0l-1.15,7.6H39.85l3-20.49a13.29,13.29,0,0,0-1.91,2l-.43.61c-.17.24-.29.42-.38.53s-.15.16-.19.16-.18-.11-.18-.33a4.88,4.88,0,0,1,.86-2,12.11,12.11,0,0,1,2.45-2.79Zm1.44,5.9-1.77,12.35a8.6,8.6,0,0,0,1.55.11,9.58,9.58,0,0,0,3.78-.7,5.9,5.9,0,0,0,2.48-1.88A8.25,8.25,0,0,0,52.65,127a8.08,8.08,0,0,0,.42-2.59,6.77,6.77,0,0,0-.51-2.72A4.1,4.1,0,0,0,51.28,120a5.8,5.8,0,0,0-1.51-.85,4.1,4.1,0,0,0-1.42-.27A6.65,6.65,0,0,0,45.33,119.59Z"/><path class="cls-1" d="M70.24,133.56H67.9l.43-3a18.68,18.68,0,0,1-3,2.54,5.31,5.31,0,0,1-2.93.85,3.69,3.69,0,0,1-3-1.21,4.57,4.57,0,0,1-1-3,12.15,12.15,0,0,1,.15-1.76l1.55-10.58h2.3l-1.51,10.51a9.79,9.79,0,0,0-.11,1.55c0,1.7.77,2.55,2.3,2.55a3.88,3.88,0,0,0,1.23-.18,6.61,6.61,0,0,0,1.69-1.1,25.41,25.41,0,0,0,2.74-2.64l1.54-10.69h2.34Z"/><path class="cls-1" d="M88.2,125.06H77.4c-.05.53-.07,1-.07,1.41a5.73,5.73,0,0,0,1.4,4A4.33,4.33,0,0,0,82,132a6.72,6.72,0,0,0,1.35-.14,7.68,7.68,0,0,0,1.15-.33,5.69,5.69,0,0,0,1-.5l.81-.5A7.77,7.77,0,0,0,87,130a5.16,5.16,0,0,1,.49-.37l-.36,2.59A8.51,8.51,0,0,1,81.94,134a6.22,6.22,0,0,1-5.22-2.36,8.55,8.55,0,0,1-1.84-5.42,9.26,9.26,0,0,1,2.4-6.66,7.09,7.09,0,0,1,5.2-2.52,5.19,5.19,0,0,1,4.17,1.93,7.41,7.41,0,0,1,1.62,4.95A9,9,0,0,1,88.2,125.06Zm-10.44-1.65H86a4.89,4.89,0,0,0-1-3.31,3.21,3.21,0,0,0-2.52-1.16,4.29,4.29,0,0,0-2.79,1.14A6.31,6.31,0,0,0,77.76,123.41Z"/><path class="cls-1" d="M101.23,118.76l-.36,2.24A9,9,0,0,0,96,119.09a2.63,2.63,0,0,0-2,.63,1.94,1.94,0,0,0-.61,1.38,1.88,1.88,0,0,0,.72,1.41q.72.64,3.75,2.77,2.63,1.8,2.62,4.21A4,4,0,0,1,99,132.7,5.66,5.66,0,0,1,95.26,134a9.22,9.22,0,0,1-5.37-2.06l.36-2.44a8,8,0,0,0,5.15,2.41,3.08,3.08,0,0,0,2-.6,1.83,1.83,0,0,0,.74-1.49,2.21,2.21,0,0,0-.15-.86,4,4,0,0,0-.88-1.1,15.37,15.37,0,0,0-2.18-1.71,14.62,14.62,0,0,1-2.89-2.4,3.59,3.59,0,0,1-.89-2.43,4,4,0,0,1,1.34-3A5.11,5.11,0,0,1,96.16,117,9.27,9.27,0,0,1,101.23,118.76Z"/><path class="cls-1" d="M112.82,117.4l-.28,1.94h-3.78l-1.19,6.7q-.54,3.24-.54,3.81a2,2,0,0,0,.66,1.66,2.37,2.37,0,0,0,1.43.5,5.17,5.17,0,0,0,3.13-1.22l-.07,2.27a7.41,7.41,0,0,1-3.42.9,4.27,4.27,0,0,1-2.86-1,3.5,3.5,0,0,1-1.21-2.83,18.63,18.63,0,0,1,.5-3.88l1.26-6.88h-3l.29-1.94h3l.61-3.5h2.3l-.57,3.5Z"/><path class="cls-1" d="M128.66,117.4l-2.37,16.16H124l.29-1.91a7.52,7.52,0,0,1-4.93,2.13,5,5,0,0,1-3.87-1.8,6.42,6.42,0,0,1-1.6-4.43,9.9,9.9,0,0,1,3.13-7.69,11.34,11.34,0,0,1,8-2.86A20.92,20.92,0,0,1,128.66,117.4Zm-4.06,11.91,1.47-10.22a5.21,5.21,0,0,0-1.47-.15,8.06,8.06,0,0,0-5.89,2.38,8.17,8.17,0,0,0-2.39,6.08,5.24,5.24,0,0,0,1,3.12A3.15,3.15,0,0,0,120,131.9a4.77,4.77,0,0,0,2.58-.81A7.32,7.32,0,0,0,124.6,129.31Z"/><path class="cls-1" d="M156.53,109,153,133.45a16,16,0,0,1-4.14.51,9,9,0,0,1-6.19-2,6.66,6.66,0,0,1-2.27-5.24,9.34,9.34,0,0,1,.65-3.37,10.45,10.45,0,0,1,1.91-3.11,9.09,9.09,0,0,1,3.38-2.34,12.26,12.26,0,0,1,4.82-.9c.6,0,1.22,0,1.84.07l1.19-8.06Zm-5.65,22.82L152.71,119a12.15,12.15,0,0,0-1.4-.08,10.38,10.38,0,0,0-3.58.58,7,7,0,0,0-2.45,1.42,7.38,7.38,0,0,0-1.46,2,8.29,8.29,0,0,0-.77,2,7.48,7.48,0,0,0-.2,1.7,5.15,5.15,0,0,0,1.64,4,6,6,0,0,0,4.26,1.51A9.24,9.24,0,0,0,150.88,131.83Z"/><path class="cls-1" d="M171,125.06h-10.8c-.05.53-.08,1-.08,1.41a5.69,5.69,0,0,0,1.41,4,4.31,4.31,0,0,0,3.27,1.53,6.72,6.72,0,0,0,1.35-.14,7.84,7.84,0,0,0,1.16-.33,6,6,0,0,0,1-.5l.81-.5c.18-.12.41-.3.69-.53a4.4,4.4,0,0,1,.48-.37l-.36,2.59a8.47,8.47,0,0,1-5.22,1.73,6.25,6.25,0,0,1-5.22-2.36,8.6,8.6,0,0,1-1.83-5.42,9.25,9.25,0,0,1,2.39-6.66,7.11,7.11,0,0,1,5.2-2.52,5.19,5.19,0,0,1,4.18,1.93,7.41,7.41,0,0,1,1.62,4.95A11.17,11.17,0,0,1,171,125.06Zm-10.44-1.65h8.24a4.89,4.89,0,0,0-1-3.31,3.21,3.21,0,0,0-2.52-1.16,4.29,4.29,0,0,0-2.79,1.14A6.24,6.24,0,0,0,160.6,123.41Z"/><path class="cls-1" d="M188.64,109l-3.57,24.55h-2.3L186.33,109Z"/><path class="cls-1" d="M194.36,117.4,192,133.56h-2.3L192,117.4Zm3.82-8.54-5,5.66h-1.58l3.31-5.66Z"/><path class="cls-1" d="M213,109l-3.53,24.44a16,16,0,0,1-4.14.51,9.05,9.05,0,0,1-6.19-2,6.66,6.66,0,0,1-2.27-5.24,9.34,9.34,0,0,1,.65-3.37,10.45,10.45,0,0,1,1.91-3.11,9.18,9.18,0,0,1,3.38-2.34,12.31,12.31,0,0,1,4.83-.9c.6,0,1.21,0,1.83.07l1.19-8.06Zm-5.65,22.82L209.19,119a12.15,12.15,0,0,0-1.4-.08,10.42,10.42,0,0,0-3.58.58,7,7,0,0,0-2.45,1.42,7.6,7.6,0,0,0-1.46,2,8.29,8.29,0,0,0-.77,2,8.09,8.09,0,0,0-.2,1.7,5.19,5.19,0,0,0,1.64,4,6,6,0,0,0,4.26,1.51A9.24,9.24,0,0,0,207.36,131.83Z"/><path class="cls-1" d="M227.52,125.06h-10.8c-.05.53-.07,1-.07,1.41a5.68,5.68,0,0,0,1.4,4,4.33,4.33,0,0,0,3.28,1.53,6.88,6.88,0,0,0,1.35-.14,8,8,0,0,0,1.15-.33,6,6,0,0,0,1-.5l.81-.5c.18-.12.41-.3.69-.53a5.85,5.85,0,0,1,.48-.37l-.36,2.59a8.47,8.47,0,0,1-5.22,1.73A6.25,6.25,0,0,1,216,131.6a8.6,8.6,0,0,1-1.83-5.42,9.29,9.29,0,0,1,2.39-6.66,7.11,7.11,0,0,1,5.2-2.52,5.19,5.19,0,0,1,4.18,1.93,7.41,7.41,0,0,1,1.62,4.95A9,9,0,0,1,227.52,125.06Zm-10.44-1.65h8.24a4.84,4.84,0,0,0-1-3.31,3.21,3.21,0,0,0-2.52-1.16,4.29,4.29,0,0,0-2.79,1.14A6.24,6.24,0,0,0,217.08,123.41Z"/><path class="cls-1" d="M232.09,117.4h2.3l-.54,4a12.82,12.82,0,0,1,2.42-3.28,3.76,3.76,0,0,1,2.59-1.08,4.8,4.8,0,0,1,1.47.29l-.25,2.37a4.18,4.18,0,0,0-1.47-.36,2.85,2.85,0,0,0-1.14.24,3.93,3.93,0,0,0-1,.65,10.75,10.75,0,0,0-.92.86,6.66,6.66,0,0,0-.79,1l-.6.92c-.15.24-.31.5-.48.79l-.22.43-1.33,9.36h-2.38Z"/><path class="cls-1" d="M253.76,125.06H243c-.05.53-.07,1-.07,1.41a5.73,5.73,0,0,0,1.4,4,4.33,4.33,0,0,0,3.28,1.53,6.8,6.8,0,0,0,1.35-.14,7.68,7.68,0,0,0,1.15-.33,5.69,5.69,0,0,0,1-.5l.81-.5c.18-.12.4-.3.68-.53a5.16,5.16,0,0,1,.49-.37l-.36,2.59A8.51,8.51,0,0,1,247.5,134a6.22,6.22,0,0,1-5.22-2.36,8.55,8.55,0,0,1-1.84-5.42,9.26,9.26,0,0,1,2.4-6.66A7.09,7.09,0,0,1,248,117a5.19,5.19,0,0,1,4.17,1.93,7.41,7.41,0,0,1,1.62,4.95A9,9,0,0,1,253.76,125.06Zm-10.44-1.65h8.25a4.89,4.89,0,0,0-1-3.31,3.21,3.21,0,0,0-2.52-1.16,4.29,4.29,0,0,0-2.79,1.14A6.31,6.31,0,0,0,243.32,123.41Z"/><path class="cls-1" d="M266.79,118.76l-.36,2.24a9,9,0,0,0-4.89-1.91,2.63,2.63,0,0,0-2,.63,1.94,1.94,0,0,0-.61,1.38,1.88,1.88,0,0,0,.72,1.41q.72.64,3.74,2.77c1.76,1.2,2.63,2.6,2.63,4.21a4,4,0,0,1-1.53,3.21,5.66,5.66,0,0,1-3.72,1.26,9.19,9.19,0,0,1-5.37-2.06l.36-2.44a8,8,0,0,0,5.15,2.41,3.08,3.08,0,0,0,2-.6,1.83,1.83,0,0,0,.74-1.49,2.21,2.21,0,0,0-.15-.86,4,4,0,0,0-.88-1.1,15.37,15.37,0,0,0-2.18-1.71,15,15,0,0,1-2.9-2.4,3.63,3.63,0,0,1-.88-2.43,4,4,0,0,1,1.33-3,5.15,5.15,0,0,1,3.68-1.26A9.29,9.29,0,0,1,266.79,118.76Z"/><path class="cls-1" d="M268,137.92l.18-1.44a3.13,3.13,0,0,0,1.73-1,2.07,2.07,0,0,0,.47-1.87,1.85,1.85,0,0,1-1.3-1.73,2,2,0,0,1,.49-1.29A1.77,1.77,0,0,1,271,130a1.94,1.94,0,0,1,1.58.73,2.82,2.82,0,0,1,.62,1.86,5.14,5.14,0,0,1-1.39,3.42A6,6,0,0,1,268,137.92Z"/><path class="cls-1" d="M292.75,109l-3.57,24.55h-2.3L290.44,109Z"/><path class="cls-1" d="M298.47,117.4l-2.34,16.16h-2.3l2.3-16.16Zm.72-4.22a1.64,1.64,0,0,1-2.3,0,1.56,1.56,0,0,1-.47-1.15,1.58,1.58,0,0,1,.47-1.15,1.64,1.64,0,0,1,2.3,0,1.58,1.58,0,0,1,.47,1.15A1.56,1.56,0,0,1,299.19,113.18Z"/><path class="cls-1" d="M317.12,109l-3.53,24.44a16,16,0,0,1-4.14.51,9,9,0,0,1-6.19-2,6.66,6.66,0,0,1-2.27-5.24,9.34,9.34,0,0,1,.65-3.37,10.45,10.45,0,0,1,1.91-3.11,9.09,9.09,0,0,1,3.38-2.34,12.31,12.31,0,0,1,4.83-.9c.59,0,1.21,0,1.83.07l1.19-8.06Zm-5.65,22.82L313.3,119a12.15,12.15,0,0,0-1.4-.08,10.38,10.38,0,0,0-3.58.58,7,7,0,0,0-2.45,1.42,7.38,7.38,0,0,0-1.46,2,8.29,8.29,0,0,0-.77,2,7.48,7.48,0,0,0-.2,1.7,5.15,5.15,0,0,0,1.64,4,6,6,0,0,0,4.26,1.51A9.24,9.24,0,0,0,311.47,131.83Z"/><path class="cls-1" d="M331.63,125.06h-10.8c-.05.53-.08,1-.08,1.41a5.69,5.69,0,0,0,1.41,4,4.32,4.32,0,0,0,3.28,1.53,6.88,6.88,0,0,0,1.35-.14,8,8,0,0,0,1.15-.33,6,6,0,0,0,1-.5l.81-.5c.18-.12.41-.3.69-.53a4.4,4.4,0,0,1,.48-.37l-.36,2.59a8.47,8.47,0,0,1-5.22,1.73,6.25,6.25,0,0,1-5.22-2.36,8.6,8.6,0,0,1-1.83-5.42,9.25,9.25,0,0,1,2.39-6.66,7.11,7.11,0,0,1,5.2-2.52,5.19,5.19,0,0,1,4.18,1.93,7.41,7.41,0,0,1,1.62,4.95A11.17,11.17,0,0,1,331.63,125.06Zm-10.44-1.65h8.24a4.89,4.89,0,0,0-1-3.31,3.21,3.21,0,0,0-2.52-1.16,4.29,4.29,0,0,0-2.79,1.14A6.24,6.24,0,0,0,321.19,123.41Z"/><path class="cls-1" d="M336.2,117.4h2.3l-.54,4a13.06,13.06,0,0,1,2.41-3.28A3.81,3.81,0,0,1,343,117a4.85,4.85,0,0,1,1.47.29l-.25,2.37a4.18,4.18,0,0,0-1.48-.36,2.83,2.83,0,0,0-1.13.24,3.93,3.93,0,0,0-1,.65,10.75,10.75,0,0,0-.92.86,6.66,6.66,0,0,0-.79,1l-.6.92c-.15.24-.32.5-.48.79l-.22.43-1.33,9.36h-2.38Z"/><path class="cls-1" d="M357.87,125.06h-10.8c-.05.53-.07,1-.07,1.41a5.73,5.73,0,0,0,1.4,4,4.33,4.33,0,0,0,3.28,1.53,6.88,6.88,0,0,0,1.35-.14,7.68,7.68,0,0,0,1.15-.33,6,6,0,0,0,1-.5l.81-.5c.18-.12.4-.3.68-.53a5.16,5.16,0,0,1,.49-.37l-.36,2.59a8.51,8.51,0,0,1-5.22,1.73,6.22,6.22,0,0,1-5.22-2.36,8.55,8.55,0,0,1-1.84-5.42,9.29,9.29,0,0,1,2.39-6.66,7.11,7.11,0,0,1,5.21-2.52,5.19,5.19,0,0,1,4.17,1.93,7.41,7.41,0,0,1,1.62,4.95A9,9,0,0,1,357.87,125.06Zm-10.44-1.65h8.24a4.89,4.89,0,0,0-1-3.31,3.23,3.23,0,0,0-2.52-1.16,4.29,4.29,0,0,0-2.79,1.14A6.25,6.25,0,0,0,347.43,123.41Z"/><path class="cls-1" d="M370.9,118.76l-.36,2.24a9,9,0,0,0-4.89-1.91,2.63,2.63,0,0,0-1.95.63,1.94,1.94,0,0,0-.61,1.38,1.88,1.88,0,0,0,.72,1.41q.72.64,3.74,2.77c1.76,1.2,2.63,2.6,2.63,4.21a4,4,0,0,1-1.53,3.21,5.66,5.66,0,0,1-3.72,1.26,9.19,9.19,0,0,1-5.37-2.06l.36-2.44a8,8,0,0,0,5.15,2.41,3.08,3.08,0,0,0,2-.6,1.83,1.83,0,0,0,.74-1.49,2.21,2.21,0,0,0-.15-.86,4,4,0,0,0-.88-1.1,15.37,15.37,0,0,0-2.18-1.71,15,15,0,0,1-2.9-2.4,3.63,3.63,0,0,1-.88-2.43,4,4,0,0,1,1.33-3,5.15,5.15,0,0,1,3.68-1.26A9.29,9.29,0,0,1,370.9,118.76Z"/><path class="cls-1" d="M387.86,117.4l-2.38,16.16h-2.3l.29-1.91a7.56,7.56,0,0,1-4.94,2.13,5,5,0,0,1-3.87-1.8,6.47,6.47,0,0,1-1.6-4.43,9.93,9.93,0,0,1,3.13-7.69,11.34,11.34,0,0,1,8-2.86A21,21,0,0,1,387.86,117.4Zm-4.07,11.91,1.48-10.22a5.34,5.34,0,0,0-1.48-.15,8.06,8.06,0,0,0-5.89,2.38,8.21,8.21,0,0,0-2.39,6.08,5.24,5.24,0,0,0,1,3.12,3.17,3.17,0,0,0,2.72,1.38,4.76,4.76,0,0,0,2.57-.81A7.32,7.32,0,0,0,383.79,129.31Z"/><path class="cls-1" d="M400.67,118.76l-.36,2.24a9,9,0,0,0-4.89-1.91,2.63,2.63,0,0,0-1.95.63,1.94,1.94,0,0,0-.61,1.38,1.88,1.88,0,0,0,.72,1.41q.72.64,3.75,2.77,2.63,1.8,2.62,4.21a4,4,0,0,1-1.53,3.21A5.66,5.66,0,0,1,394.7,134a9.22,9.22,0,0,1-5.37-2.06l.36-2.44a8,8,0,0,0,5.15,2.41,3.08,3.08,0,0,0,2-.6,1.83,1.83,0,0,0,.74-1.49,2.21,2.21,0,0,0-.15-.86,4,4,0,0,0-.88-1.1,15.37,15.37,0,0,0-2.18-1.71,14.62,14.62,0,0,1-2.89-2.4,3.59,3.59,0,0,1-.89-2.43,4,4,0,0,1,1.34-3A5.11,5.11,0,0,1,395.6,117,9.27,9.27,0,0,1,400.67,118.76Z"/><path class="cls-1" d="M422.81,118.76l-.36,2.24a9,9,0,0,0-4.89-1.91,2.63,2.63,0,0,0-1.95.63,1.94,1.94,0,0,0-.61,1.38,1.88,1.88,0,0,0,.72,1.41q.72.64,3.74,2.77c1.76,1.2,2.63,2.6,2.63,4.21a4,4,0,0,1-1.53,3.21,5.66,5.66,0,0,1-3.72,1.26,9.19,9.19,0,0,1-5.37-2.06l.36-2.44a8,8,0,0,0,5.15,2.41,3.08,3.08,0,0,0,2-.6,1.83,1.83,0,0,0,.74-1.49,2.21,2.21,0,0,0-.15-.86,4,4,0,0,0-.88-1.1,15.37,15.37,0,0,0-2.18-1.71,15,15,0,0,1-2.9-2.4,3.63,3.63,0,0,1-.88-2.43,4,4,0,0,1,1.33-3,5.15,5.15,0,0,1,3.68-1.26A9.29,9.29,0,0,1,422.81,118.76Z"/><path class="cls-1" d="M438.58,123.84c0,3.19-.78,5.68-2.34,7.45a7,7,0,0,1-5.4,2.67,6.6,6.6,0,0,1-1.06-.09,6,6,0,0,1-1.46-.51,5.19,5.19,0,0,1-1.58-1.11,5.75,5.75,0,0,1-1.19-2.09,9.3,9.3,0,0,1-.51-3.22,10.66,10.66,0,0,1,2.33-7.31,7,7,0,0,1,5.38-2.63,5.54,5.54,0,0,1,4.14,1.76A7.05,7.05,0,0,1,438.58,123.84ZM427.49,127a8.36,8.36,0,0,0,.38,2.68,3.11,3.11,0,0,0,1,1.55,4.5,4.5,0,0,0,1.06.61,2.57,2.57,0,0,0,.88.16,3.85,3.85,0,0,0,2.88-1.35,8.42,8.42,0,0,0,1.86-3.17,11.86,11.86,0,0,0,.59-3.65,6.16,6.16,0,0,0-.92-3.55,2.93,2.93,0,0,0-2.57-1.35,4.3,4.3,0,0,0-3.67,2.38A10.51,10.51,0,0,0,427.49,127Z"/><path class="cls-1" d="M454.2,117.29l-.32,2.23a12.61,12.61,0,0,0-2.84-.36,6.82,6.82,0,0,0-5.31,2.29,7.47,7.47,0,0,0-2.07,5.16,5.9,5.9,0,0,0,1.2,3.67,4.43,4.43,0,0,0,3.76,1.59,8.92,8.92,0,0,0,4.5-1.48l-.36,2.45A9.92,9.92,0,0,1,448.3,134a6.74,6.74,0,0,1-5.22-2,7.41,7.41,0,0,1-1.87-5.24,9.6,9.6,0,0,1,.63-3.4,10.47,10.47,0,0,1,1.83-3.09,8.85,8.85,0,0,1,3.21-2.31,11,11,0,0,1,4.52-.88A15.57,15.57,0,0,1,454.2,117.29Z"/><path class="cls-1" d="M460,117.4l-2.34,16.16h-2.3l2.3-16.16Zm.72-4.22a1.64,1.64,0,0,1-2.3,0,1.56,1.56,0,0,1-.47-1.15,1.6,1.6,0,0,1,1.62-1.62,1.56,1.56,0,0,1,1.15.47,1.64,1.64,0,0,1,0,2.3Z"/><path class="cls-1" d="M477.17,117.4l-2.37,16.16h-2.31l.29-1.91a7.54,7.54,0,0,1-4.93,2.13A5,5,0,0,1,464,132a6.42,6.42,0,0,1-1.6-4.43,9.9,9.9,0,0,1,3.13-7.69,11.33,11.33,0,0,1,7.95-2.86A20.93,20.93,0,0,1,477.17,117.4Zm-4.07,11.91,1.48-10.22a5.29,5.29,0,0,0-1.48-.15,8,8,0,0,0-5.88,2.38,8.18,8.18,0,0,0-2.4,6.08,5.24,5.24,0,0,0,1,3.12,3.17,3.17,0,0,0,2.72,1.38,4.79,4.79,0,0,0,2.58-.81A7.27,7.27,0,0,0,473.1,129.31Z"/><path class="cls-1" d="M485.16,109l-3.56,24.55h-2.3L482.86,109Z"/><path class="cls-1" d="M499.81,125.06H489c0,.53-.08,1-.08,1.41a5.69,5.69,0,0,0,1.41,4,4.31,4.31,0,0,0,3.27,1.53,6.72,6.72,0,0,0,1.35-.14,7.35,7.35,0,0,0,1.15-.33,5.69,5.69,0,0,0,1-.5l.81-.5c.18-.12.41-.3.69-.53a4.4,4.4,0,0,1,.48-.37l-.36,2.59a8.49,8.49,0,0,1-5.22,1.73,6.24,6.24,0,0,1-5.22-2.36,8.6,8.6,0,0,1-1.83-5.42,9.25,9.25,0,0,1,2.39-6.66,7.09,7.09,0,0,1,5.2-2.52,5.21,5.21,0,0,1,4.18,1.93,7.41,7.41,0,0,1,1.62,4.95A9,9,0,0,1,499.81,125.06Zm-10.43-1.65h8.24a4.89,4.89,0,0,0-1-3.31,3.21,3.21,0,0,0-2.52-1.16,4.29,4.29,0,0,0-2.79,1.14A6.24,6.24,0,0,0,489.38,123.41Z"/><path class="cls-1" d="M512.85,118.76l-.36,2.24a9,9,0,0,0-4.9-1.91,2.59,2.59,0,0,0-1.94.63,2,2,0,0,0-.62,1.38,1.88,1.88,0,0,0,.72,1.41q.72.64,3.75,2.77,2.63,1.8,2.63,4.21a4,4,0,0,1-1.53,3.21,5.69,5.69,0,0,1-3.73,1.26,9.19,9.19,0,0,1-5.36-2.06l.36-2.44a8,8,0,0,0,5.14,2.41,3.08,3.08,0,0,0,2-.6,1.83,1.83,0,0,0,.74-1.49,2.42,2.42,0,0,0-.14-.86,4.13,4.13,0,0,0-.89-1.1,15.18,15.18,0,0,0-2.17-1.71,14.74,14.74,0,0,1-2.9-2.4,3.58,3.58,0,0,1-.88-2.43,4,4,0,0,1,1.33-3,5.13,5.13,0,0,1,3.67-1.26A9.32,9.32,0,0,1,512.85,118.76Z"/><path class="cls-1" d="M538.23,117.4,526,141.84H523.5L528,133l-3.06-15.55h2.34l2.34,12.27,6.15-12.27Z"/><path class="cls-1" d="M17.79,145l-3.53,24.44a16,16,0,0,1-4.14.51,9,9,0,0,1-6.19-2,6.66,6.66,0,0,1-2.27-5.24,9.34,9.34,0,0,1,.65-3.37,10.45,10.45,0,0,1,1.91-3.11A9.09,9.09,0,0,1,7.6,153.9a12.26,12.26,0,0,1,4.82-.9c.6,0,1.21,0,1.84.07L15.45,145Zm-5.65,22.82L14,155a12.15,12.15,0,0,0-1.4-.08,10.38,10.38,0,0,0-3.58.58,6.86,6.86,0,0,0-2.45,1.42,7.38,7.38,0,0,0-1.46,1.95,7.89,7.89,0,0,0-.77,2,7.48,7.48,0,0,0-.2,1.7,5.15,5.15,0,0,0,1.64,4A6,6,0,0,0,10,168.08,9.24,9.24,0,0,0,12.14,167.83Z"/><path class="cls-1" d="M32.29,161.06H21.5c-.05.53-.08,1-.08,1.41a5.69,5.69,0,0,0,1.41,4A4.3,4.3,0,0,0,26.1,168a6.72,6.72,0,0,0,1.35-.14,7.35,7.35,0,0,0,1.15-.33,5.69,5.69,0,0,0,1-.5l.81-.5a7.77,7.77,0,0,0,.68-.53,5.16,5.16,0,0,1,.49-.37l-.36,2.59A8.49,8.49,0,0,1,26,170a6.24,6.24,0,0,1-5.22-2.36A8.6,8.6,0,0,1,19,162.18a9.25,9.25,0,0,1,2.39-6.66,7.09,7.09,0,0,1,5.2-2.52,5.21,5.21,0,0,1,4.18,1.93,7.41,7.41,0,0,1,1.62,4.95A9,9,0,0,1,32.29,161.06Zm-10.44-1.65H30.1a4.89,4.89,0,0,0-1-3.31,3.21,3.21,0,0,0-2.52-1.16,4.29,4.29,0,0,0-2.79,1.14A6.31,6.31,0,0,0,21.85,159.41Z"/><path class="cls-1" d="M43.81,153.4l-.28,1.94H40L36.9,176.47H34.6l3-21.13H34.71L35,153.4h3l.43-2.42a9,9,0,0,1,1.11-3.09,6,6,0,0,1,1.82-2,8.13,8.13,0,0,1,2-1,6.63,6.63,0,0,1,1.89-.29,11.48,11.48,0,0,1,4.14.87L49,147.78a8,8,0,0,0-3.71-1,4.14,4.14,0,0,0-3.15,1.32,6.78,6.78,0,0,0-1.64,3.58l-.29,1.73Z"/><path class="cls-1" d="M57.57,161.06H46.77c-.05.53-.08,1-.08,1.41a5.69,5.69,0,0,0,1.41,4A4.31,4.31,0,0,0,51.37,168a6.72,6.72,0,0,0,1.35-.14,7.84,7.84,0,0,0,1.16-.33,6,6,0,0,0,1-.5l.81-.5c.18-.12.41-.3.69-.53a4.4,4.4,0,0,1,.48-.37l-.36,2.59A8.47,8.47,0,0,1,51.3,170a6.25,6.25,0,0,1-5.22-2.36,8.6,8.6,0,0,1-1.83-5.42,9.25,9.25,0,0,1,2.39-6.66,7.11,7.11,0,0,1,5.2-2.52A5.19,5.19,0,0,1,56,154.93a7.41,7.41,0,0,1,1.62,4.95A11.17,11.17,0,0,1,57.57,161.06Zm-10.44-1.65h8.24a4.89,4.89,0,0,0-1-3.31,3.21,3.21,0,0,0-2.52-1.16,4.29,4.29,0,0,0-2.79,1.14A6.24,6.24,0,0,0,47.13,159.41Z"/><path class="cls-1" d="M62.07,153.4h2.34l-.44,3a19.08,19.08,0,0,1,3-2.53,5.26,5.26,0,0,1,2.93-.85,3.65,3.65,0,0,1,3,1.21,4.56,4.56,0,0,1,1,3,13.71,13.71,0,0,1-.14,1.77l-1.55,10.58H69.91l1.52-10.51a9.9,9.9,0,0,0,.1-1.55c0-1.7-.76-2.56-2.3-2.56a3.82,3.82,0,0,0-1.22.18,7.24,7.24,0,0,0-1.7,1.1,25.7,25.7,0,0,0-2.73,2.65L62,169.56H59.69Z"/><path class="cls-1" d="M87.09,154.76,86.73,157a9,9,0,0,0-4.9-1.91,2.59,2.59,0,0,0-1.94.63,2,2,0,0,0-.62,1.38,1.88,1.88,0,0,0,.72,1.41q.72.65,3.75,2.77,2.63,1.8,2.63,4.21a4,4,0,0,1-1.53,3.21A5.69,5.69,0,0,1,81.11,170a9.19,9.19,0,0,1-5.36-2.06l.36-2.44a8,8,0,0,0,5.14,2.41,3.08,3.08,0,0,0,2-.6,1.83,1.83,0,0,0,.74-1.49,2.42,2.42,0,0,0-.14-.86,4.13,4.13,0,0,0-.89-1.1,15.18,15.18,0,0,0-2.17-1.71,14.74,14.74,0,0,1-2.9-2.4,3.58,3.58,0,0,1-.88-2.43,4,4,0,0,1,1.33-3A5.13,5.13,0,0,1,82,153,9.32,9.32,0,0,1,87.09,154.76Z"/><path class="cls-1" d="M102.85,159.84c0,3.19-.78,5.68-2.34,7.45a7,7,0,0,1-5.4,2.67,6.69,6.69,0,0,1-1.06-.09,6,6,0,0,1-1.46-.51A5.31,5.31,0,0,1,91,168.25a5.9,5.9,0,0,1-1.19-2.09,9.55,9.55,0,0,1-.5-3.22q0-4.68,2.32-7.31A7,7,0,0,1,97,153a5.54,5.54,0,0,1,4.14,1.76A7.05,7.05,0,0,1,102.85,159.84ZM91.77,163a8.38,8.38,0,0,0,.37,2.68,3.25,3.25,0,0,0,1,1.55,4.53,4.53,0,0,0,1.07.61,2.52,2.52,0,0,0,.88.16A3.85,3.85,0,0,0,98,166.66a8.27,8.27,0,0,0,1.85-3.17,11.58,11.58,0,0,0,.6-3.65,6.23,6.23,0,0,0-.92-3.55,2.94,2.94,0,0,0-2.58-1.35,4.31,4.31,0,0,0-3.67,2.38A10.59,10.59,0,0,0,91.77,163Z"/><path class="cls-1" d="M107.5,153.4h2.3l-.54,4a13.06,13.06,0,0,1,2.41-3.28,3.81,3.81,0,0,1,2.6-1.08,4.85,4.85,0,0,1,1.47.29l-.25,2.37a4.18,4.18,0,0,0-1.48-.36,2.83,2.83,0,0,0-1.13.24,3.93,3.93,0,0,0-1,.65,10.75,10.75,0,0,0-.92.86,6.66,6.66,0,0,0-.79,1l-.6.92c-.15.24-.32.5-.48.79l-.22.43-1.33,9.36h-2.38Z"/><path class="cls-1" d="M129.17,161.06h-10.8c-.05.53-.07,1-.07,1.41a5.73,5.73,0,0,0,1.4,4A4.33,4.33,0,0,0,123,168a6.88,6.88,0,0,0,1.35-.14,8,8,0,0,0,1.15-.33,5.62,5.62,0,0,0,1-.5l.81-.5A7.68,7.68,0,0,0,128,166a5.85,5.85,0,0,1,.48-.37l-.36,2.59A8.47,8.47,0,0,1,122.9,170a6.22,6.22,0,0,1-5.21-2.36,8.55,8.55,0,0,1-1.84-5.42,9.29,9.29,0,0,1,2.39-6.66,7.11,7.11,0,0,1,5.2-2.52,5.19,5.19,0,0,1,4.18,1.93,7.41,7.41,0,0,1,1.62,4.95A9,9,0,0,1,129.17,161.06Zm-10.44-1.65H127a4.84,4.84,0,0,0-1-3.31,3.21,3.21,0,0,0-2.52-1.16,4.31,4.31,0,0,0-2.79,1.14A6.24,6.24,0,0,0,118.73,159.41Z"/><path class="cls-1" d="M142.2,154.76l-.36,2.24a9,9,0,0,0-4.9-1.91,2.62,2.62,0,0,0-1.94.63,1.94,1.94,0,0,0-.61,1.38,1.88,1.88,0,0,0,.72,1.41q.72.65,3.74,2.77,2.63,1.8,2.63,4.21A4,4,0,0,1,140,168.7a5.67,5.67,0,0,1-3.73,1.26,9.19,9.19,0,0,1-5.36-2.06l.36-2.44a8,8,0,0,0,5.15,2.41,3.1,3.1,0,0,0,2-.6,1.82,1.82,0,0,0,.73-1.49,2.22,2.22,0,0,0-.14-.86,4.25,4.25,0,0,0-.88-1.1,15.37,15.37,0,0,0-2.18-1.71,15,15,0,0,1-2.9-2.4,3.58,3.58,0,0,1-.88-2.43,4,4,0,0,1,1.33-3,5.13,5.13,0,0,1,3.67-1.26A9.32,9.32,0,0,1,142.2,154.76Z"/><path class="cls-1" d="M159.73,177.84h-1.62a28.6,28.6,0,0,1-2.61-6.73,28.3,28.3,0,0,1-1-7.06q0-9.8,8.71-19.37h1.84a34.12,34.12,0,0,0-5.89,9.47,29.27,29.27,0,0,0-2.32,11.49A26.63,26.63,0,0,0,159.73,177.84Z"/><path class="cls-1" d="M166.75,153.4h2.31l-.54,4a12.82,12.82,0,0,1,2.41-3.28,3.76,3.76,0,0,1,2.59-1.08,4.91,4.91,0,0,1,1.48.29l-.26,2.37a4.18,4.18,0,0,0-1.47-.36,2.88,2.88,0,0,0-1.14.24,3.93,3.93,0,0,0-1,.65,12.48,12.48,0,0,0-.92.86,6.66,6.66,0,0,0-.79,1l-.59.92c-.16.24-.32.5-.49.79l-.22.43-1.33,9.36h-2.37Z"/><path class="cls-1" d="M189.75,153.4l-2.37,16.16h-2.31l.29-1.91a7.52,7.52,0,0,1-4.93,2.13,5,5,0,0,1-3.87-1.8,6.42,6.42,0,0,1-1.6-4.43,9.9,9.9,0,0,1,3.13-7.69,11.34,11.34,0,0,1,8-2.86A20.92,20.92,0,0,1,189.75,153.4Zm-4.06,11.91,1.47-10.22a5.21,5.21,0,0,0-1.47-.15,8.06,8.06,0,0,0-5.89,2.38,8.17,8.17,0,0,0-2.39,6.08,5.24,5.24,0,0,0,1,3.12,3.15,3.15,0,0,0,2.71,1.38,4.77,4.77,0,0,0,2.58-.81A7.32,7.32,0,0,0,185.69,165.31Z"/><path class="cls-1" d="M202.57,154.76l-.36,2.24a9,9,0,0,0-4.9-1.91,2.62,2.62,0,0,0-1.94.63,1.94,1.94,0,0,0-.61,1.38,1.88,1.88,0,0,0,.72,1.41q.72.65,3.74,2.77,2.63,1.8,2.63,4.21a4,4,0,0,1-1.53,3.21,5.67,5.67,0,0,1-3.73,1.26,9.19,9.19,0,0,1-5.36-2.06l.36-2.44a8,8,0,0,0,5.15,2.41,3.1,3.1,0,0,0,2-.6,1.82,1.82,0,0,0,.73-1.49,2.22,2.22,0,0,0-.14-.86,4.25,4.25,0,0,0-.88-1.1,15.37,15.37,0,0,0-2.18-1.71,15,15,0,0,1-2.9-2.4,3.58,3.58,0,0,1-.88-2.43,4,4,0,0,1,1.33-3,5.13,5.13,0,0,1,3.67-1.26A9.32,9.32,0,0,1,202.57,154.76Z"/><path class="cls-1" d="M206.42,144.68H208a28.69,28.69,0,0,1,2.61,6.74,28.17,28.17,0,0,1,1,7.05q0,9.79-8.71,19.37h-1.84a34,34,0,0,0,5.89-9.47,29,29,0,0,0,2.32-11.48A26.67,26.67,0,0,0,206.42,144.68Z"/><path class="cls-1" d="M241.23,145l-3.52,24.44a16.08,16.08,0,0,1-4.14.51,9.08,9.08,0,0,1-6.2-2,6.65,6.65,0,0,1-2.26-5.24,9.32,9.32,0,0,1,.64-3.37,10.66,10.66,0,0,1,1.91-3.11,9.13,9.13,0,0,1,3.39-2.34,12.22,12.22,0,0,1,4.82-.9c.6,0,1.21,0,1.84.07l1.18-8.06Zm-5.65,22.82L237.42,155a12.2,12.2,0,0,0-1.41-.08,10.46,10.46,0,0,0-3.58.58,7,7,0,0,0-2.45,1.42,7.56,7.56,0,0,0-1.45,1.95,8,8,0,0,0-.78,2,8.09,8.09,0,0,0-.2,1.7,5.19,5.19,0,0,0,1.64,4,6,6,0,0,0,4.27,1.51A9.22,9.22,0,0,0,235.58,167.83Z"/><path class="cls-1" d="M255.74,161.06h-10.8c-.05.53-.07,1-.07,1.41a5.73,5.73,0,0,0,1.4,4,4.33,4.33,0,0,0,3.28,1.53,6.8,6.8,0,0,0,1.35-.14,7.68,7.68,0,0,0,1.15-.33,5.69,5.69,0,0,0,1-.5l.81-.5c.18-.12.4-.3.68-.53a5.16,5.16,0,0,1,.49-.37l-.36,2.59a8.51,8.51,0,0,1-5.22,1.73,6.22,6.22,0,0,1-5.22-2.36,8.55,8.55,0,0,1-1.84-5.42,9.26,9.26,0,0,1,2.4-6.66A7.09,7.09,0,0,1,250,153a5.19,5.19,0,0,1,4.17,1.93,7.41,7.41,0,0,1,1.62,4.95A9,9,0,0,1,255.74,161.06Zm-10.44-1.65h8.25a4.89,4.89,0,0,0-1-3.31,3.21,3.21,0,0,0-2.52-1.16,4.29,4.29,0,0,0-2.79,1.14A6.31,6.31,0,0,0,245.3,159.41Z"/><path class="cls-1" d="M283.82,145l-3.53,24.44a16,16,0,0,1-4.14.51,9.05,9.05,0,0,1-6.19-2,6.66,6.66,0,0,1-2.27-5.24,9.34,9.34,0,0,1,.65-3.37,10.45,10.45,0,0,1,1.91-3.11,9.18,9.18,0,0,1,3.38-2.34,12.31,12.31,0,0,1,4.83-.9c.6,0,1.21,0,1.83.07l1.19-8.06Zm-5.65,22.82L280,155a12.15,12.15,0,0,0-1.4-.08,10.42,10.42,0,0,0-3.58.58,7,7,0,0,0-2.45,1.42,7.6,7.6,0,0,0-1.46,1.95,8.29,8.29,0,0,0-.77,2,8.09,8.09,0,0,0-.2,1.7,5.19,5.19,0,0,0,1.64,4,6,6,0,0,0,4.26,1.51A9.24,9.24,0,0,0,278.17,167.83Z"/><path class="cls-1" d="M298.33,161.06h-10.8c0,.53-.07,1-.07,1.41a5.68,5.68,0,0,0,1.4,4,4.33,4.33,0,0,0,3.28,1.53,6.88,6.88,0,0,0,1.35-.14,8,8,0,0,0,1.15-.33,6,6,0,0,0,1-.5l.81-.5c.18-.12.41-.3.69-.53a5.85,5.85,0,0,1,.48-.37l-.36,2.59a8.47,8.47,0,0,1-5.22,1.73,6.25,6.25,0,0,1-5.22-2.36,8.6,8.6,0,0,1-1.83-5.42,9.29,9.29,0,0,1,2.39-6.66,7.11,7.11,0,0,1,5.2-2.52,5.19,5.19,0,0,1,4.18,1.93,7.41,7.41,0,0,1,1.62,4.95A9,9,0,0,1,298.33,161.06Zm-10.44-1.65h8.24a4.84,4.84,0,0,0-1-3.31,3.21,3.21,0,0,0-2.52-1.16,4.29,4.29,0,0,0-2.79,1.14A6.24,6.24,0,0,0,287.89,159.41Z"/><path class="cls-1" d="M302.9,153.4h2.3l-.54,4a12.82,12.82,0,0,1,2.42-3.28,3.76,3.76,0,0,1,2.59-1.08,4.8,4.8,0,0,1,1.47.29l-.25,2.37a4.18,4.18,0,0,0-1.47-.36,2.85,2.85,0,0,0-1.14.24,3.93,3.93,0,0,0-1,.65,10.75,10.75,0,0,0-.92.86,6.66,6.66,0,0,0-.79,1l-.6.92c-.15.24-.31.5-.48.79l-.22.43-1.33,9.36h-2.38Z"/><path class="cls-1" d="M324.57,161.06h-10.8c0,.53-.07,1-.07,1.41a5.73,5.73,0,0,0,1.4,4,4.33,4.33,0,0,0,3.28,1.53,6.8,6.8,0,0,0,1.35-.14,7.68,7.68,0,0,0,1.15-.33,5.69,5.69,0,0,0,1-.5l.81-.5c.18-.12.4-.3.68-.53a5.16,5.16,0,0,1,.49-.37l-.36,2.59a8.51,8.51,0,0,1-5.22,1.73,6.22,6.22,0,0,1-5.22-2.36,8.55,8.55,0,0,1-1.84-5.42,9.26,9.26,0,0,1,2.4-6.66,7.09,7.09,0,0,1,5.2-2.52,5.19,5.19,0,0,1,4.17,1.93,7.41,7.41,0,0,1,1.62,4.95A9,9,0,0,1,324.57,161.06Zm-10.44-1.65h8.25a4.89,4.89,0,0,0-1-3.31,3.21,3.21,0,0,0-2.52-1.16,4.29,4.29,0,0,0-2.79,1.14A6.31,6.31,0,0,0,314.13,159.41Z"/><path class="cls-1" d="M340.12,153.29l-.32,2.23a12.61,12.61,0,0,0-2.84-.36,6.8,6.8,0,0,0-5.31,2.29,7.44,7.44,0,0,0-2.08,5.16,5.91,5.91,0,0,0,1.21,3.67,4.41,4.41,0,0,0,3.76,1.59,8.92,8.92,0,0,0,4.5-1.48l-.36,2.45a10,10,0,0,1-4.46,1.12,6.74,6.74,0,0,1-5.22-2,7.41,7.41,0,0,1-1.87-5.24,9.6,9.6,0,0,1,.63-3.4,10.47,10.47,0,0,1,1.83-3.09,8.76,8.76,0,0,1,3.21-2.31,11,11,0,0,1,4.51-.88A15.68,15.68,0,0,1,340.12,153.29Z"/><path class="cls-1" d="M344.59,145h2.34l-1.62,11.37a19.07,19.07,0,0,1,3-2.53,5.29,5.29,0,0,1,2.94-.85,3.64,3.64,0,0,1,3,1.21,4.56,4.56,0,0,1,1,3,13.71,13.71,0,0,1-.14,1.77l-1.55,10.58h-2.3l1.51-10.51a9.79,9.79,0,0,0,.11-1.55c0-1.7-.77-2.56-2.31-2.56a3.86,3.86,0,0,0-1.22.18,7,7,0,0,0-1.69,1.1,25.66,25.66,0,0,0-2.74,2.65l-1.55,10.69H341Z"/><path class="cls-1" d="M371.44,159.84c0,3.19-.78,5.68-2.34,7.45a7,7,0,0,1-5.4,2.67,6.69,6.69,0,0,1-1.06-.09,6,6,0,0,1-1.46-.51,5.19,5.19,0,0,1-1.58-1.11,5.9,5.9,0,0,1-1.19-2.09,9.31,9.31,0,0,1-.5-3.22q0-4.68,2.32-7.31a7,7,0,0,1,5.38-2.63,5.54,5.54,0,0,1,4.14,1.76A7.05,7.05,0,0,1,371.44,159.84ZM360.35,163a8.36,8.36,0,0,0,.38,2.68,3.11,3.11,0,0,0,1,1.55,4.5,4.5,0,0,0,1.06.61,2.58,2.58,0,0,0,.89.16,3.85,3.85,0,0,0,2.88-1.35,8.4,8.4,0,0,0,1.85-3.17,11.57,11.57,0,0,0,.59-3.65,6.23,6.23,0,0,0-.91-3.55,3,3,0,0,0-2.58-1.35,4.3,4.3,0,0,0-3.67,2.38A10.59,10.59,0,0,0,360.35,163Z"/><path class="cls-1" d="M384.55,154.76l-.36,2.24a9,9,0,0,0-4.9-1.91,2.59,2.59,0,0,0-1.94.63,2,2,0,0,0-.62,1.38,1.88,1.88,0,0,0,.72,1.41q.72.65,3.75,2.77,2.63,1.8,2.63,4.21a4,4,0,0,1-1.53,3.21,5.69,5.69,0,0,1-3.73,1.26,9.19,9.19,0,0,1-5.36-2.06l.36-2.44a8,8,0,0,0,5.14,2.41,3.08,3.08,0,0,0,2-.6,1.83,1.83,0,0,0,.74-1.49,2.42,2.42,0,0,0-.14-.86,4.13,4.13,0,0,0-.89-1.1,15.18,15.18,0,0,0-2.17-1.71,14.74,14.74,0,0,1-2.9-2.4,3.58,3.58,0,0,1-.88-2.43,4,4,0,0,1,1.33-3,5.13,5.13,0,0,1,3.67-1.26A9.32,9.32,0,0,1,384.55,154.76Z"/><path class="cls-1" d="M399.34,145h2.34l-1.62,11.37a19.08,19.08,0,0,1,3-2.53A5.23,5.23,0,0,1,406,153a3.65,3.65,0,0,1,3,1.21,4.56,4.56,0,0,1,1,3,12.28,12.28,0,0,1-.15,1.77l-1.54,10.58H406l1.51-10.51a8.73,8.73,0,0,0,.11-1.55c0-1.7-.77-2.56-2.3-2.56a3.88,3.88,0,0,0-1.23.18,7.24,7.24,0,0,0-1.69,1.1,24.78,24.78,0,0,0-2.73,2.65l-1.55,10.69h-2.34Z"/><path class="cls-1" d="M424.69,169.56h-2.34l.43-3a18.68,18.68,0,0,1-3,2.54,5.31,5.31,0,0,1-2.93.85,3.68,3.68,0,0,1-3-1.21,4.57,4.57,0,0,1-1-3A12.15,12.15,0,0,1,413,164l1.54-10.58h2.31l-1.51,10.51a8.73,8.73,0,0,0-.11,1.55c0,1.7.76,2.55,2.3,2.55a3.88,3.88,0,0,0,1.23-.18,6.61,6.61,0,0,0,1.69-1.1,24.56,24.56,0,0,0,2.73-2.64l1.55-10.69h2.34Z"/><path class="cls-1" d="M431.2,153.4h2.3l-.39,2.84.36-.36.43-.43.45-.42.52-.45.53-.41a3.31,3.31,0,0,1,.61-.4l.64-.3a3,3,0,0,1,.73-.25l.73-.15a4.5,4.5,0,0,1,.83-.07q3.06,0,3.82,3.6,3.06-3.6,6.12-3.6a3.84,3.84,0,0,1,2.91,1.12,4.1,4.1,0,0,1,1.08,3,17.08,17.08,0,0,1-.18,2l-1.47,10.44h-2.34l1.51-10.66a10.84,10.84,0,0,0,.11-1.51c0-1.63-.71-2.45-2.13-2.45q-2.62,0-5.61,3.71l-1.55,10.91h-2.34l1.4-9.83a9.44,9.44,0,0,0,.22-2.3,3.54,3.54,0,0,0-.13-.9,2.26,2.26,0,0,0-.68-1.05,2,2,0,0,0-1.42-.54,4.72,4.72,0,0,0-1.86.38,5.58,5.58,0,0,0-1.71,1.19c-.55.54-.92.91-1.1,1.12s-.46.55-.84,1.06l-1.62,10.87h-2.27Z"/><path class="cls-1" d="M470.26,153.4l-2.38,16.16h-2.3l.29-1.91a7.54,7.54,0,0,1-4.93,2.13,5,5,0,0,1-3.87-1.8,6.43,6.43,0,0,1-1.61-4.43,9.91,9.91,0,0,1,3.14-7.69,11.31,11.31,0,0,1,7.95-2.86A20.93,20.93,0,0,1,470.26,153.4Zm-4.07,11.91,1.48-10.22a5.29,5.29,0,0,0-1.48-.15,8,8,0,0,0-5.88,2.38,8.18,8.18,0,0,0-2.4,6.08,5.24,5.24,0,0,0,1,3.12,3.17,3.17,0,0,0,2.72,1.38,4.76,4.76,0,0,0,2.57-.81A7.18,7.18,0,0,0,466.19,165.31Z"/><path class="cls-1" d="M474.54,153.4h2.34l-.43,3a19.08,19.08,0,0,1,3-2.53,5.23,5.23,0,0,1,2.93-.85,3.65,3.65,0,0,1,3,1.21,4.56,4.56,0,0,1,1,3,12.28,12.28,0,0,1-.15,1.77l-1.54,10.58h-2.31l1.51-10.51a8.73,8.73,0,0,0,.11-1.55c0-1.7-.77-2.56-2.3-2.56a3.88,3.88,0,0,0-1.23.18,7.24,7.24,0,0,0-1.69,1.1,24.78,24.78,0,0,0-2.73,2.65l-1.55,10.69h-2.34Z"/><path class="cls-1" d="M502.59,159.84c0,3.19-.78,5.68-2.34,7.45a7,7,0,0,1-5.4,2.67,6.6,6.6,0,0,1-1.06-.09,5.82,5.82,0,0,1-1.46-.51,5.36,5.36,0,0,1-1.59-1.11,5.89,5.89,0,0,1-1.18-2.09,9.3,9.3,0,0,1-.51-3.22,10.7,10.7,0,0,1,2.32-7.31,7,7,0,0,1,5.39-2.63,5.54,5.54,0,0,1,4.14,1.76A7.1,7.1,0,0,1,502.59,159.84ZM491.5,163a8.36,8.36,0,0,0,.38,2.68,3.11,3.11,0,0,0,1,1.55,4.5,4.5,0,0,0,1.06.61,2.52,2.52,0,0,0,.88.16,3.85,3.85,0,0,0,2.88-1.35,8.42,8.42,0,0,0,1.86-3.17,11.86,11.86,0,0,0,.59-3.65,6.23,6.23,0,0,0-.92-3.55,2.93,2.93,0,0,0-2.57-1.35,4.28,4.28,0,0,0-3.67,2.38A10.51,10.51,0,0,0,491.5,163Z"/><path class="cls-1" d="M515.69,154.76l-.36,2.24a9,9,0,0,0-4.89-1.91,2.63,2.63,0,0,0-1.95.63,1.94,1.94,0,0,0-.61,1.38,1.88,1.88,0,0,0,.72,1.41q.72.65,3.74,2.77c1.76,1.2,2.63,2.6,2.63,4.21a4,4,0,0,1-1.53,3.21,5.66,5.66,0,0,1-3.72,1.26,9.19,9.19,0,0,1-5.37-2.06l.36-2.44a8,8,0,0,0,5.15,2.41,3.08,3.08,0,0,0,2-.6,1.83,1.83,0,0,0,.74-1.49,2.21,2.21,0,0,0-.15-.86,4,4,0,0,0-.88-1.1,15.37,15.37,0,0,0-2.18-1.71,15,15,0,0,1-2.9-2.4,3.63,3.63,0,0,1-.88-2.43,4,4,0,0,1,1.33-3,5.15,5.15,0,0,1,3.68-1.26A9.29,9.29,0,0,1,515.69,154.76Z"/><path class="cls-1" d="M516.88,173.92l.18-1.44a3.13,3.13,0,0,0,1.73-1,2.07,2.07,0,0,0,.47-1.87,1.85,1.85,0,0,1-1.3-1.73,2,2,0,0,1,.49-1.29,1.77,1.77,0,0,1,1.49-.61,1.94,1.94,0,0,1,1.58.73,2.82,2.82,0,0,1,.62,1.86,5.14,5.14,0,0,1-1.39,3.42A6,6,0,0,1,516.88,173.92Z"/><path class="cls-1" d="M10.62,189.4l-.29,1.94H6.77L3.71,212.47H1.41l3-21.13H1.52l.28-1.94h3L5.19,187a8.77,8.77,0,0,1,1.11-3.09,6,6,0,0,1,1.82-2,8,8,0,0,1,2-1,6.63,6.63,0,0,1,1.89-.29,11.48,11.48,0,0,1,4.14.87l-.32,2.23a8,8,0,0,0-3.71-1A4.14,4.14,0,0,0,9,184.09a6.78,6.78,0,0,0-1.64,3.58L7,189.4Z"/><path class="cls-1" d="M13,189.4h2.3l-.54,4a12.82,12.82,0,0,1,2.41-3.28A3.78,3.78,0,0,1,19.8,189a4.91,4.91,0,0,1,1.48.29L21,191.66a4.23,4.23,0,0,0-1.48-.36,2.83,2.83,0,0,0-1.13.24,4,4,0,0,0-1.05.65,10.61,10.61,0,0,0-.91.86,6.71,6.71,0,0,0-.8,1l-.59.92c-.16.24-.32.5-.49.79l-.21.43L13,205.56H10.66Z"/><path class="cls-1" d="M34.71,197.06H23.91c-.05.53-.08,1-.08,1.41a5.69,5.69,0,0,0,1.41,4A4.31,4.31,0,0,0,28.51,204a6.72,6.72,0,0,0,1.35-.14,7.84,7.84,0,0,0,1.16-.33,6,6,0,0,0,1-.5l.81-.5c.18-.12.41-.3.69-.53a4.4,4.4,0,0,1,.48-.37l-.36,2.59A8.47,8.47,0,0,1,28.44,206a6.25,6.25,0,0,1-5.22-2.36,8.6,8.6,0,0,1-1.83-5.42,9.25,9.25,0,0,1,2.39-6.66A7.11,7.11,0,0,1,29,189a5.19,5.19,0,0,1,4.18,1.93,7.41,7.41,0,0,1,1.62,4.95A11.17,11.17,0,0,1,34.71,197.06Zm-10.44-1.65h8.24a4.89,4.89,0,0,0-1-3.31A3.21,3.21,0,0,0,29,190.94a4.29,4.29,0,0,0-2.79,1.14A6.24,6.24,0,0,0,24.27,195.41Z"/><path class="cls-1" d="M39.21,189.4h2.34l-.44,3a19.08,19.08,0,0,1,3-2.53,5.26,5.26,0,0,1,2.93-.85,3.65,3.65,0,0,1,3,1.21,4.56,4.56,0,0,1,1,3,13.71,13.71,0,0,1-.14,1.77l-1.55,10.58H47.05l1.52-10.51a9.9,9.9,0,0,0,.1-1.55c0-1.7-.76-2.56-2.3-2.56a3.82,3.82,0,0,0-1.22.18,7.24,7.24,0,0,0-1.7,1.1,25.7,25.7,0,0,0-2.73,2.65l-1.55,10.69H36.83Z"/><path class="cls-1" d="M63.07,189.4l-.28,1.94H59L57.82,198q-.54,3.24-.54,3.81a2,2,0,0,0,.66,1.66,2.37,2.37,0,0,0,1.43.5,5.17,5.17,0,0,0,3.13-1.22l-.07,2.27A7.41,7.41,0,0,1,59,206a4.32,4.32,0,0,1-2.87-1,3.52,3.52,0,0,1-1.2-2.83,18.63,18.63,0,0,1,.5-3.88l1.26-6.88h-3L54,189.4h3l.61-3.5h2.3l-.57,3.5Z"/><path class="cls-1" d="M77.58,197.06H66.78c0,.53-.07,1-.07,1.41a5.73,5.73,0,0,0,1.4,4A4.33,4.33,0,0,0,71.39,204a6.72,6.72,0,0,0,1.35-.14,7.68,7.68,0,0,0,1.15-.33,5.69,5.69,0,0,0,1-.5l.81-.5a7.77,7.77,0,0,0,.68-.53,5.16,5.16,0,0,1,.49-.37l-.36,2.59A8.51,8.51,0,0,1,71.32,206a6.22,6.22,0,0,1-5.22-2.36,8.55,8.55,0,0,1-1.84-5.42,9.26,9.26,0,0,1,2.4-6.66,7.09,7.09,0,0,1,5.2-2.52A5.19,5.19,0,0,1,76,190.93a7.41,7.41,0,0,1,1.62,4.95A9,9,0,0,1,77.58,197.06Zm-10.44-1.65h8.25a4.89,4.89,0,0,0-1-3.31,3.21,3.21,0,0,0-2.52-1.16,4.29,4.29,0,0,0-2.79,1.14A6.31,6.31,0,0,0,67.14,195.41Z"/><path class="cls-1" d="M104.22,189.4l-2.38,16.16h-2.3l.29-1.91a7.54,7.54,0,0,1-4.93,2.13A5,5,0,0,1,91,204a6.43,6.43,0,0,1-1.61-4.43,9.91,9.91,0,0,1,3.14-7.69,11.31,11.31,0,0,1,8-2.86A20.93,20.93,0,0,1,104.22,189.4Zm-4.07,11.91,1.48-10.22a5.29,5.29,0,0,0-1.48-.15,8,8,0,0,0-5.88,2.38,8.18,8.18,0,0,0-2.4,6.08,5.24,5.24,0,0,0,1,3.12,3.17,3.17,0,0,0,2.72,1.38,4.76,4.76,0,0,0,2.57-.81A7.18,7.18,0,0,0,100.15,201.31Z"/><path class="cls-1" d="M124.92,189.4l-.29,1.94h-3.56L118,212.47H115.7l3-21.13h-2.92l.29-1.94h3l.43-2.42a9,9,0,0,1,1.12-3.09,5.88,5.88,0,0,1,1.82-2,7.8,7.8,0,0,1,2-1,6.52,6.52,0,0,1,1.89-.29,11.48,11.48,0,0,1,4.14.87l-.33,2.23a7.91,7.91,0,0,0-3.7-1,4.11,4.11,0,0,0-3.15,1.32,6.71,6.71,0,0,0-1.64,3.58l-.29,1.73Z"/><path class="cls-1" d="M140,189.4l-2.37,16.16h-2.31l.29-1.91a7.52,7.52,0,0,1-4.93,2.13,5,5,0,0,1-3.87-1.8,6.42,6.42,0,0,1-1.6-4.43,9.9,9.9,0,0,1,3.13-7.69,11.34,11.34,0,0,1,8-2.86A20.92,20.92,0,0,1,140,189.4Zm-4.06,11.91,1.47-10.22a5.21,5.21,0,0,0-1.47-.15,8.06,8.06,0,0,0-5.89,2.38,8.17,8.17,0,0,0-2.39,6.08,5.24,5.24,0,0,0,1,3.12,3.15,3.15,0,0,0,2.71,1.38,4.77,4.77,0,0,0,2.58-.81A7.32,7.32,0,0,0,135.94,201.31Z"/><path class="cls-1" d="M155.34,189.29l-.32,2.23a12.69,12.69,0,0,0-2.85-.36,6.82,6.82,0,0,0-5.31,2.29,7.47,7.47,0,0,0-2.07,5.16,5.85,5.85,0,0,0,1.21,3.67,4.41,4.41,0,0,0,3.76,1.59,9,9,0,0,0,4.5-1.48l-.36,2.45a10,10,0,0,1-4.46,1.12,6.71,6.71,0,0,1-5.22-2,7.42,7.42,0,0,1-1.88-5.24,9.6,9.6,0,0,1,.63-3.4,10.5,10.5,0,0,1,1.84-3.09,8.72,8.72,0,0,1,3.2-2.31,11.08,11.08,0,0,1,4.52-.88A15.68,15.68,0,0,1,155.34,189.29Z"/><path class="cls-1" d="M166,189.4l-.29,1.94h-3.78l-1.19,6.7q-.54,3.24-.54,3.81a1.94,1.94,0,0,0,.67,1.66,2.32,2.32,0,0,0,1.42.5,5.17,5.17,0,0,0,3.13-1.22l-.07,2.27a7.35,7.35,0,0,1-3.42.9,4.27,4.27,0,0,1-2.86-1,3.5,3.5,0,0,1-1.21-2.83,18.63,18.63,0,0,1,.5-3.88l1.26-6.88h-3l.28-1.94h3l.61-3.5h2.3l-.57,3.5Z"/><path class="cls-1" d="M180.65,195.84c0,3.19-.78,5.68-2.34,7.45a7,7,0,0,1-5.4,2.67,6.81,6.81,0,0,1-1.07-.09,5.91,5.91,0,0,1-1.45-.51,5.36,5.36,0,0,1-1.59-1.11,6.05,6.05,0,0,1-1.19-2.09,9.55,9.55,0,0,1-.5-3.22q0-4.68,2.32-7.31a7,7,0,0,1,5.38-2.63,5.55,5.55,0,0,1,4.15,1.76A7.1,7.1,0,0,1,180.65,195.84ZM169.56,199a8.36,8.36,0,0,0,.38,2.68,3.11,3.11,0,0,0,1,1.55,4.31,4.31,0,0,0,1.06.61,2.52,2.52,0,0,0,.88.16,3.85,3.85,0,0,0,2.88-1.35,8.27,8.27,0,0,0,1.85-3.17,11.58,11.58,0,0,0,.6-3.65,6.23,6.23,0,0,0-.92-3.55,2.93,2.93,0,0,0-2.57-1.35,4.28,4.28,0,0,0-3.67,2.38A10.51,10.51,0,0,0,169.56,199Z"/><path class="cls-1" d="M185.29,189.4h2.3l-.54,4a12.82,12.82,0,0,1,2.42-3.28,3.76,3.76,0,0,1,2.59-1.08,4.8,4.8,0,0,1,1.47.29l-.25,2.37a4.18,4.18,0,0,0-1.47-.36,2.85,2.85,0,0,0-1.14.24,3.93,3.93,0,0,0-1,.65,10.75,10.75,0,0,0-.92.86,6.66,6.66,0,0,0-.79,1l-.6.92c-.15.24-.31.5-.48.79l-.22.43-1.33,9.36h-2.37Z"/><path class="cls-1" d="M207,197.06h-10.8c0,.53-.07,1-.07,1.41a5.73,5.73,0,0,0,1.4,4,4.33,4.33,0,0,0,3.28,1.53,6.72,6.72,0,0,0,1.35-.14,7.68,7.68,0,0,0,1.15-.33,5.69,5.69,0,0,0,1-.5l.81-.5a7.77,7.77,0,0,0,.68-.53,5.16,5.16,0,0,1,.49-.37l-.36,2.59A8.51,8.51,0,0,1,200.7,206a6.22,6.22,0,0,1-5.22-2.36,8.55,8.55,0,0,1-1.84-5.42,9.26,9.26,0,0,1,2.4-6.66,7.09,7.09,0,0,1,5.2-2.52,5.19,5.19,0,0,1,4.17,1.93,7.41,7.41,0,0,1,1.62,4.95A9,9,0,0,1,207,197.06Zm-10.44-1.65h8.25a4.89,4.89,0,0,0-1-3.31,3.21,3.21,0,0,0-2.52-1.16,4.29,4.29,0,0,0-2.79,1.14A6.31,6.31,0,0,0,196.52,195.41Z"/><path class="cls-1" d="M220,190.76l-.36,2.24a8.93,8.93,0,0,0-4.89-1.91,2.63,2.63,0,0,0-2,.63,2,2,0,0,0-.61,1.38,1.88,1.88,0,0,0,.72,1.41q.72.65,3.75,2.77,2.63,1.8,2.62,4.21a4,4,0,0,1-1.53,3.21A5.66,5.66,0,0,1,214,206a9.22,9.22,0,0,1-5.37-2.06l.36-2.44a8,8,0,0,0,5.15,2.41,3.08,3.08,0,0,0,2-.6,1.83,1.83,0,0,0,.74-1.49,2.21,2.21,0,0,0-.15-.86,4,4,0,0,0-.88-1.1,15.37,15.37,0,0,0-2.18-1.71,14.62,14.62,0,0,1-2.89-2.4,3.59,3.59,0,0,1-.89-2.43,4,4,0,0,1,1.34-3,5.11,5.11,0,0,1,3.67-1.26A9.27,9.27,0,0,1,220,190.76Z"/><path class="cls-1" d="M247.79,181l-3.53,24.44a16.08,16.08,0,0,1-4.14.51,9,9,0,0,1-6.19-2,6.62,6.62,0,0,1-2.27-5.24,9.13,9.13,0,0,1,.65-3.37,10.42,10.42,0,0,1,1.9-3.11,9.13,9.13,0,0,1,3.39-2.34,12.22,12.22,0,0,1,4.82-.9c.6,0,1.21,0,1.84.07l1.19-8.06Zm-5.66,22.82L244,191a12.15,12.15,0,0,0-1.4-.08,10.48,10.48,0,0,0-3.59.58,6.89,6.89,0,0,0-2.44,1.42,7.38,7.38,0,0,0-1.46,1.95,8.37,8.37,0,0,0-.78,2,8.09,8.09,0,0,0-.2,1.7,5.19,5.19,0,0,0,1.64,4,6,6,0,0,0,4.27,1.51A9.15,9.15,0,0,0,242.13,203.83Z"/><path class="cls-1" d="M262.29,197.06h-10.8c-.05.53-.07,1-.07,1.41a5.69,5.69,0,0,0,1.41,4A4.3,4.3,0,0,0,256.1,204a6.72,6.72,0,0,0,1.35-.14,7.35,7.35,0,0,0,1.15-.33,5.69,5.69,0,0,0,1-.5l.81-.5a7.77,7.77,0,0,0,.68-.53,5.16,5.16,0,0,1,.49-.37l-.36,2.59A8.51,8.51,0,0,1,256,206a6.22,6.22,0,0,1-5.22-2.36,8.55,8.55,0,0,1-1.84-5.42,9.26,9.26,0,0,1,2.4-6.66,7.09,7.09,0,0,1,5.2-2.52,5.21,5.21,0,0,1,4.18,1.93,7.41,7.41,0,0,1,1.61,4.95A9,9,0,0,1,262.29,197.06Zm-10.44-1.65h8.25a4.89,4.89,0,0,0-1-3.31,3.21,3.21,0,0,0-2.52-1.16,4.29,4.29,0,0,0-2.79,1.14A6.31,6.31,0,0,0,251.85,195.41Z"/><path class="cls-1" d="M276.26,189.4h2.3l-.54,4a12.82,12.82,0,0,1,2.42-3.28A3.76,3.76,0,0,1,283,189a4.8,4.8,0,0,1,1.47.29l-.25,2.37a4.18,4.18,0,0,0-1.47-.36,2.85,2.85,0,0,0-1.14.24,3.93,3.93,0,0,0-1,.65,10.75,10.75,0,0,0-.92.86,6.66,6.66,0,0,0-.79,1l-.6.92c-.15.24-.31.5-.48.79l-.22.43-1.33,9.36h-2.38Z"/><path class="cls-1" d="M289,189.4l-2.34,16.16h-2.3l2.3-16.16Zm.72-4.22a1.64,1.64,0,0,1-2.3,0A1.56,1.56,0,0,1,287,184a1.6,1.6,0,0,1,1.62-1.62,1.56,1.56,0,0,1,1.15.47,1.64,1.64,0,0,1,0,2.3Z"/><path class="cls-1" d="M304.88,197.06h-10.8c-.05.53-.07,1-.07,1.41a5.73,5.73,0,0,0,1.4,4,4.33,4.33,0,0,0,3.28,1.53,6.88,6.88,0,0,0,1.35-.14,7.68,7.68,0,0,0,1.15-.33,6,6,0,0,0,1-.5l.81-.5c.18-.12.4-.3.68-.53a4,4,0,0,1,.49-.37l-.36,2.59a8.51,8.51,0,0,1-5.22,1.73,6.22,6.22,0,0,1-5.22-2.36,8.55,8.55,0,0,1-1.84-5.42,9.29,9.29,0,0,1,2.39-6.66,7.11,7.11,0,0,1,5.21-2.52,5.19,5.19,0,0,1,4.17,1.93,7.41,7.41,0,0,1,1.62,4.95A9,9,0,0,1,304.88,197.06Zm-10.44-1.65h8.24a4.89,4.89,0,0,0-1-3.31,3.23,3.23,0,0,0-2.52-1.16,4.29,4.29,0,0,0-2.79,1.14A6.25,6.25,0,0,0,294.44,195.41Z"/><path class="cls-1" d="M317.91,190.76l-.36,2.24a9,9,0,0,0-4.9-1.91,2.62,2.62,0,0,0-1.94.63,1.94,1.94,0,0,0-.61,1.38,1.88,1.88,0,0,0,.72,1.41q.72.65,3.74,2.77,2.63,1.8,2.63,4.21a4,4,0,0,1-1.53,3.21,5.66,5.66,0,0,1-3.72,1.26,9.19,9.19,0,0,1-5.37-2.06l.36-2.44a8,8,0,0,0,5.15,2.41,3.1,3.1,0,0,0,2-.6,1.82,1.82,0,0,0,.73-1.49,2.22,2.22,0,0,0-.14-.86,4.25,4.25,0,0,0-.88-1.1,15.37,15.37,0,0,0-2.18-1.71,15,15,0,0,1-2.9-2.4,3.58,3.58,0,0,1-.88-2.43,4,4,0,0,1,1.33-3,5.13,5.13,0,0,1,3.67-1.26A9.32,9.32,0,0,1,317.91,190.76Z"/><path class="cls-1" d="M335.3,189.4l-.25,1.76h-3.86a5.16,5.16,0,0,1,1.73,3.92,6.08,6.08,0,0,1-1.58,4.25q-1.59,1.72-5.19,2.16c-2.06.24-3.09.76-3.09,1.55,0,.6,1,1.12,3.09,1.55a12.2,12.2,0,0,1,5,1.91,3.43,3.43,0,0,1,1.34,2.73,3.86,3.86,0,0,1-1.91,3.33,8.72,8.72,0,0,1-4.93,1.28,9.2,9.2,0,0,1-5.08-1.17,3.41,3.41,0,0,1-1.76-2.9q0-2.45,5.11-3.67a5,5,0,0,1-2.4-1.22,2.25,2.25,0,0,1-.73-1.44,2.41,2.41,0,0,1,.77-1.57,4.8,4.8,0,0,1,2.54-1.24,4.52,4.52,0,0,1-2.11-1.5,4.89,4.89,0,0,1-1.06-3.36,6.33,6.33,0,0,1,1.76-4.56,6.43,6.43,0,0,1,4.83-1.81Zm-9.36,17.35a10.13,10.13,0,0,0-3.46,1.19,2.34,2.34,0,0,0-1.4,1.94,1.86,1.86,0,0,0,1.13,1.58,6.77,6.77,0,0,0,3.33.65,7.15,7.15,0,0,0,3.46-.72,2.17,2.17,0,0,0,1.29-1.94Q330.29,207.68,325.94,206.75Zm.68-7.27a3.78,3.78,0,0,0,2.88-1.3,4.56,4.56,0,0,0,1.19-3.2,3.57,3.57,0,0,0-1-2.61,3.32,3.32,0,0,0-2.48-1,3.88,3.88,0,0,0-2.77,1.19,4.24,4.24,0,0,0-1.23,3.2,4,4,0,0,0,.92,2.61A3,3,0,0,0,326.62,199.48Z"/><path class="cls-1" d="M349.45,195.84c0,3.19-.78,5.68-2.34,7.45a7,7,0,0,1-5.4,2.67,6.81,6.81,0,0,1-1.07-.09,5.91,5.91,0,0,1-1.45-.51,5.36,5.36,0,0,1-1.59-1.11,6.05,6.05,0,0,1-1.19-2.09,9.55,9.55,0,0,1-.5-3.22q0-4.68,2.32-7.31a7,7,0,0,1,5.38-2.63,5.51,5.51,0,0,1,4.14,1.76A7.05,7.05,0,0,1,349.45,195.84ZM338.36,199a8.09,8.09,0,0,0,.38,2.68,3.11,3.11,0,0,0,1,1.55,4.31,4.31,0,0,0,1.06.61,2.52,2.52,0,0,0,.88.16,3.85,3.85,0,0,0,2.88-1.35,8.27,8.27,0,0,0,1.85-3.17,11.58,11.58,0,0,0,.6-3.65,6.23,6.23,0,0,0-.92-3.55,2.93,2.93,0,0,0-2.57-1.35,4.31,4.31,0,0,0-3.68,2.38A10.59,10.59,0,0,0,338.36,199Z"/></g></g></svg>