<svg xmlns="http://www.w3.org/2000/svg" viewBox="0 0 827 503.78"><defs><style>.cls-1{fill:#efcd34;}.cls-2{fill:#003163;}.cls-3{fill:#eb8d00;}</style></defs><g id="Capa_2" data-name="Capa 2"><g id="Capa_1-2" data-name="Capa 1"><rect class="cls-1" y="81.78" width="827" height="422"/><path class="cls-2" d="M188.26,143.75v40.92H177.94v-25l-11,13.2h-1.5l-11-13.2v25H144.16V143.75h9.06l13,15.54,13.14-15.54Z"/><path class="cls-2" d="M226.18,170.93a14.53,14.53,0,0,1-1.5,6.75,11.42,11.42,0,0,1-3.9,4.47,18.8,18.8,0,0,1-4.95,2.31,18.1,18.1,0,0,1-5.13.75,16.62,16.62,0,0,1-11.13-3.84A12.9,12.9,0,0,1,195,171a13.42,13.42,0,0,1,4.53-10.44,16.11,16.11,0,0,1,11.19-4.08,17.79,17.79,0,0,1,5.1.75,18.41,18.41,0,0,1,4.92,2.34,11.61,11.61,0,0,1,3.9,4.53A14.86,14.86,0,0,1,226.18,170.93Zm-9.3-.54q0-8.58-6.42-8.58-6.06,0-6.06,9.36,0,8.64,6.3,8.64T216.88,170.39Zm2.94-25.56L210,153.59h-4.5l4.5-8.76Z"/><path class="cls-2" d="M260.08,143.75v40.92h-8.64v-2.22a12.24,12.24,0,0,1-7.68,2.76,12.62,12.62,0,0,1-8.94-3.78q-4-3.78-4-10.62,0-6.66,3.87-10.5a13,13,0,0,1,9.51-3.84,15.67,15.67,0,0,1,7.2,1.74V143.75Zm-8.64,33.36v-13.2a7.58,7.58,0,0,0-4.86-1.62,6.37,6.37,0,0,0-4.68,1.92q-2.1,2.22-2.1,6.72a11.17,11.17,0,0,0,.78,4.44,5.16,5.16,0,0,0,2,2.52,9.21,9.21,0,0,0,2.1,1,6.21,6.21,0,0,0,1.65.24A8.57,8.57,0,0,0,251.44,177.11Z"/><path class="cls-2" d="M294.88,157v27.66h-8.76v-4a10.15,10.15,0,0,1-8.76,4.5,9.67,9.67,0,0,1-6.15-1.86,10.29,10.29,0,0,1-3.33-4.26,14.92,14.92,0,0,1-.6-4.8V157H276v14.76q0,1.38,0,2.1a14.68,14.68,0,0,0,.24,1.89,4.81,4.81,0,0,0,.63,1.8,3.65,3.65,0,0,0,1.26,1.11,4.05,4.05,0,0,0,2,.48q3.36,0,5.88-3.9V157Z"/><path class="cls-2" d="M311.08,143.75v40.92h-8.76V143.75Z"/><path class="cls-2" d="M348.16,170.93a14.53,14.53,0,0,1-1.5,6.75,11.42,11.42,0,0,1-3.9,4.47,18.8,18.8,0,0,1-4.95,2.31,18.1,18.1,0,0,1-5.13.75,16.62,16.62,0,0,1-11.13-3.84A12.9,12.9,0,0,1,317,171a13.42,13.42,0,0,1,4.53-10.44,16.11,16.11,0,0,1,11.19-4.08,17.79,17.79,0,0,1,5.1.75,18.41,18.41,0,0,1,4.92,2.34,11.61,11.61,0,0,1,3.9,4.53A14.86,14.86,0,0,1,348.16,170.93Zm-9.3-.54q0-8.58-6.42-8.58-6.06,0-6.06,9.36,0,8.64,6.3,8.64T338.86,170.39Z"/><path class="cls-2" d="M388.3,143.21v41.46h-9.36V143.21Z"/><path class="cls-2" d="M160.64,229.6a18.65,18.65,0,0,1-1.4,7.22,13.88,13.88,0,0,1-4.16,5.62,9.66,9.66,0,0,1-6.21,2.21,8.25,8.25,0,0,1-6.19-2.63q-2.52-2.62-2.52-7.67a17.57,17.57,0,0,1,.76-5,18.75,18.75,0,0,1,2.16-4.78,11.2,11.2,0,0,1,3.74-3.66,9.77,9.77,0,0,1,5.18-1.42,8.19,8.19,0,0,1,6.14,2.59Q160.65,224.64,160.64,229.6Zm-2.66-.47q0-3.81-1.71-5.63a5.71,5.71,0,0,0-4.34-1.82,6.89,6.89,0,0,0-5,2.14,12.88,12.88,0,0,0-3.15,5.06,18.08,18.08,0,0,0-1,5.83c0,2.69.62,4.65,1.84,5.87a5.94,5.94,0,0,0,4.36,1.84q4,0,6.46-3.91A17,17,0,0,0,158,229.13Z"/><path class="cls-2" d="M171.88,228.16l-.29,2H168L165,251.24h-2.3l3-21.13h-2.91l.29-2H166l.43-2.41a9,9,0,0,1,1.12-3.1,6.05,6.05,0,0,1,1.81-2,8.07,8.07,0,0,1,2-.95,6.63,6.63,0,0,1,1.89-.29,11.58,11.58,0,0,1,4.14.86l-.32,2.24a7.83,7.83,0,0,0-3.71-1,4.17,4.17,0,0,0-3.15,1.31,6.82,6.82,0,0,0-1.64,3.58l-.28,1.73Z"/><path class="cls-2" d="M185.63,235.83h-10.8c-.05.53-.07,1-.07,1.4a5.69,5.69,0,0,0,1.4,4,4.33,4.33,0,0,0,3.28,1.53,6.21,6.21,0,0,0,1.35-.15,8.11,8.11,0,0,0,1.15-.32,6.8,6.8,0,0,0,1-.5l.81-.51c.18-.12.41-.29.69-.52s.44-.35.48-.38l-.36,2.59a8.41,8.41,0,0,1-5.22,1.73,6.22,6.22,0,0,1-5.22-2.36,8.57,8.57,0,0,1-1.83-5.41,9.29,9.29,0,0,1,2.39-6.66,7.11,7.11,0,0,1,5.2-2.52,5.21,5.21,0,0,1,4.18,1.92,7.45,7.45,0,0,1,1.62,4.95A9.17,9.17,0,0,1,185.63,235.83Zm-10.44-1.66h8.24a4.84,4.84,0,0,0-1-3.31,3.2,3.2,0,0,0-2.52-1.15,4.33,4.33,0,0,0-2.79,1.13A6.28,6.28,0,0,0,175.19,234.17Z"/><path class="cls-2" d="M190.2,228.16h2.3l-.54,4a12.93,12.93,0,0,1,2.42-3.27,3.76,3.76,0,0,1,2.59-1.08,4.75,4.75,0,0,1,1.47.28l-.25,2.38a4.18,4.18,0,0,0-1.48-.36,3,3,0,0,0-1.13.23,4.21,4.21,0,0,0-1,.65c-.33.28-.63.57-.92.87a6.57,6.57,0,0,0-.79,1c-.24.38-.44.68-.6.92l-.48.79-.22.44-1.33,9.36h-2.38Z"/><path class="cls-2" d="M207.84,228.16l-.29,2h-3.78l-1.19,6.69c-.36,2.16-.54,3.43-.54,3.82a1.91,1.91,0,0,0,.67,1.65,2.29,2.29,0,0,0,1.42.51,5.11,5.11,0,0,0,3.13-1.23l-.07,2.27a7.35,7.35,0,0,1-3.42.9,4.28,4.28,0,0,1-2.86-1,3.51,3.51,0,0,1-1.21-2.83,18.15,18.15,0,0,1,.51-3.89l1.26-6.87h-3l.29-2h3l.61-3.49h2.31l-.58,3.49Z"/><path class="cls-2" d="M223.68,228.16l-2.38,16.17H219l.29-1.91a7.59,7.59,0,0,1-4.94,2.12,5,5,0,0,1-3.87-1.8,6.45,6.45,0,0,1-1.6-4.43,9.93,9.93,0,0,1,3.13-7.68,11.34,11.34,0,0,1,8-2.86A21.87,21.87,0,0,1,223.68,228.16Zm-4.07,11.92,1.48-10.23a5.86,5.86,0,0,0-1.48-.14,8,8,0,0,0-5.89,2.38,8.21,8.21,0,0,0-2.39,6.08,5.21,5.21,0,0,0,1,3.11,3.16,3.16,0,0,0,2.72,1.39,4.76,4.76,0,0,0,2.57-.81A7.32,7.32,0,0,0,219.61,240.08Z"/><path class="cls-2" d="M239.84,228.16l-2.34,16.17h-2.3l2.3-16.17Zm.72-4.21a1.64,1.64,0,0,1-2.3,0,1.58,1.58,0,0,1-.47-1.15,1.56,1.56,0,0,1,.47-1.15,1.64,1.64,0,0,1,2.3,0,1.56,1.56,0,0,1,.47,1.15A1.58,1.58,0,0,1,240.56,224Z"/><path class="cls-2" d="M244.31,228.16h2.34l-.44,3a19.22,19.22,0,0,1,3-2.54,5.33,5.33,0,0,1,2.93-.84,3.67,3.67,0,0,1,3,1.2,4.6,4.6,0,0,1,1,3,13.57,13.57,0,0,1-.14,1.76l-1.55,10.59h-2.31l1.52-10.52a9.77,9.77,0,0,0,.1-1.54c0-1.71-.76-2.56-2.3-2.56a3.82,3.82,0,0,0-1.22.18,6.91,6.91,0,0,0-1.7,1.1,25.46,25.46,0,0,0-2.73,2.64l-1.55,10.7h-2.34Z"/><path class="cls-2" d="M269.33,229.53l-.36,2.23a9,9,0,0,0-4.9-1.91,2.63,2.63,0,0,0-1.95.63,2,2,0,0,0-.61,1.39,1.88,1.88,0,0,0,.72,1.4c.48.44,1.73,1.36,3.75,2.78q2.63,1.8,2.63,4.21a4,4,0,0,1-1.53,3.2,5.71,5.71,0,0,1-3.73,1.26,9.15,9.15,0,0,1-5.36-2.05l.36-2.45a7.92,7.92,0,0,0,5.14,2.41,3.08,3.08,0,0,0,2-.59,1.85,1.85,0,0,0,.74-1.49,2.48,2.48,0,0,0-.14-.87,4.3,4.3,0,0,0-.89-1.1,15.18,15.18,0,0,0-2.17-1.71,14.81,14.81,0,0,1-2.9-2.39,3.58,3.58,0,0,1-.88-2.43,4,4,0,0,1,1.33-3,5.11,5.11,0,0,1,3.67-1.26A9.24,9.24,0,0,1,269.33,229.53Z"/><path class="cls-2" d="M280.92,228.16l-.29,2h-3.78l-1.19,6.69c-.36,2.16-.54,3.43-.54,3.82a1.91,1.91,0,0,0,.67,1.65,2.29,2.29,0,0,0,1.42.51,5.11,5.11,0,0,0,3.13-1.23l-.07,2.27a7.35,7.35,0,0,1-3.42.9,4.28,4.28,0,0,1-2.86-1,3.51,3.51,0,0,1-1.21-2.83,18.15,18.15,0,0,1,.51-3.89l1.25-6.87h-3l.29-2h3l.61-3.49h2.31l-.58,3.49Z"/><path class="cls-2" d="M286.5,228.16l-2.34,16.17h-2.31l2.31-16.17Zm.72-4.21a1.6,1.6,0,0,1-1.16.47,1.59,1.59,0,0,1-1.61-1.62,1.62,1.62,0,1,1,3.24,0A1.58,1.58,0,0,1,287.22,224Z"/><path class="cls-2" d="M298.34,228.16l-.29,2h-3.78l-1.19,6.69c-.36,2.16-.54,3.43-.54,3.82a1.93,1.93,0,0,0,.67,1.65,2.29,2.29,0,0,0,1.42.51,5.11,5.11,0,0,0,3.13-1.23l-.07,2.27a7.35,7.35,0,0,1-3.42.9,4.28,4.28,0,0,1-2.86-1,3.54,3.54,0,0,1-1.2-2.83,18.06,18.06,0,0,1,.5-3.89l1.26-6.87h-3l.29-2h3l.61-3.49h2.31l-.58,3.49Z"/><path class="cls-2" d="M311.48,244.33h-2.34l.43-3a19.68,19.68,0,0,1-3,2.54,5.36,5.36,0,0,1-2.94.84,3.66,3.66,0,0,1-3-1.2,4.6,4.6,0,0,1-1-3,12,12,0,0,1,.14-1.76l1.55-10.59h2.3l-1.51,10.51a9.88,9.88,0,0,0-.11,1.55c0,1.71.77,2.56,2.31,2.56a3.86,3.86,0,0,0,1.22-.18,6.91,6.91,0,0,0,1.69-1.1,24.7,24.7,0,0,0,2.74-2.65l1.55-10.69h2.34Z"/><path class="cls-2" d="M329.08,228.05l-.32,2.24a12.61,12.61,0,0,0-2.84-.36,6.85,6.85,0,0,0-5.31,2.28,7.51,7.51,0,0,0-2.07,5.17,5.92,5.92,0,0,0,1.2,3.67,4.42,4.42,0,0,0,3.76,1.58,9,9,0,0,0,4.5-1.47l-.36,2.45a9.9,9.9,0,0,1-4.46,1.11,6.76,6.76,0,0,1-5.22-2,7.43,7.43,0,0,1-1.87-5.24,9.56,9.56,0,0,1,.63-3.4,10.52,10.52,0,0,1,1.83-3.1,8.83,8.83,0,0,1,3.21-2.3,11,11,0,0,1,4.52-.88A15.5,15.5,0,0,1,329.08,228.05Z"/><path class="cls-2" d="M334.84,228.16l-2.34,16.17h-2.3l2.3-16.17Zm.72-4.21a1.56,1.56,0,0,1-1.15.47,1.6,1.6,0,0,1-1.62-1.62,1.56,1.56,0,0,1,.47-1.15,1.63,1.63,0,0,1,2.3,2.3Z"/><path class="cls-2" d="M350.86,234.61q0,4.78-2.34,7.45a7,7,0,0,1-5.4,2.66,6.69,6.69,0,0,1-1.06-.09,6.3,6.3,0,0,1-1.46-.5A5.22,5.22,0,0,1,339,243a5.81,5.81,0,0,1-1.19-2.09,9.51,9.51,0,0,1-.5-3.22,10.67,10.67,0,0,1,2.32-7.31,7,7,0,0,1,5.38-2.62,5.5,5.5,0,0,1,4.14,1.76A7.05,7.05,0,0,1,350.86,234.61Zm-11.08,3.16a8.44,8.44,0,0,0,.37,2.69,3.14,3.14,0,0,0,1,1.54,4.43,4.43,0,0,0,1.07.62,2.73,2.73,0,0,0,.88.16,3.85,3.85,0,0,0,2.88-1.35,8.34,8.34,0,0,0,1.85-3.17,11.58,11.58,0,0,0,.6-3.65,6.21,6.21,0,0,0-.92-3.55,3,3,0,0,0-2.58-1.35,4.28,4.28,0,0,0-3.67,2.38A10.58,10.58,0,0,0,339.78,237.77Z"/><path class="cls-2" d="M355.44,228.16h2.34l-.44,3a19.22,19.22,0,0,1,3-2.54,5.31,5.31,0,0,1,2.93-.84,3.67,3.67,0,0,1,3,1.2,4.6,4.6,0,0,1,1,3,12.15,12.15,0,0,1-.15,1.76l-1.54,10.59h-2.31l1.51-10.52a8.61,8.61,0,0,0,.11-1.54c0-1.71-.77-2.56-2.3-2.56a3.82,3.82,0,0,0-1.22.18,6.91,6.91,0,0,0-1.7,1.1,25.46,25.46,0,0,0-2.73,2.64l-1.55,10.7h-2.34Z"/><path class="cls-2" d="M384.67,228.16l-2.38,16.17H380l.29-1.91a7.59,7.59,0,0,1-4.94,2.12,5,5,0,0,1-3.87-1.8,6.4,6.4,0,0,1-1.6-4.43,9.93,9.93,0,0,1,3.13-7.68,11.34,11.34,0,0,1,8-2.86A21.87,21.87,0,0,1,384.67,228.16Zm-4.07,11.92,1.48-10.23a5.86,5.86,0,0,0-1.48-.14,8,8,0,0,0-5.89,2.38,8.21,8.21,0,0,0-2.39,6.08,5.21,5.21,0,0,0,1,3.11,3.16,3.16,0,0,0,2.72,1.39,4.76,4.76,0,0,0,2.57-.81A7.32,7.32,0,0,0,380.6,240.08Z"/><path class="cls-2" d="M392.66,219.77l-3.57,24.56h-2.3l3.57-24.56Z"/><path class="cls-2" d="M419.48,219.77,416,244.22a16.42,16.42,0,0,1-4.14.5,9,9,0,0,1-6.19-2,6.63,6.63,0,0,1-2.27-5.23,9.34,9.34,0,0,1,.65-3.37,10.33,10.33,0,0,1,1.91-3.11,9.09,9.09,0,0,1,3.38-2.34,12.26,12.26,0,0,1,4.82-.9c.6,0,1.22,0,1.84.07l1.19-8.07Zm-5.65,22.83,1.83-12.82a12.25,12.25,0,0,0-1.4-.07,10.15,10.15,0,0,0-3.58.58,6.8,6.8,0,0,0-2.45,1.42,7.33,7.33,0,0,0-1.46,1.94,8.2,8.2,0,0,0-.77,2,7.39,7.39,0,0,0-.2,1.69,5.16,5.16,0,0,0,1.64,4,6,6,0,0,0,4.26,1.51A9.24,9.24,0,0,0,413.83,242.6Z"/><path class="cls-2" d="M434,235.83h-10.8c-.05.53-.08,1-.08,1.4a5.7,5.7,0,0,0,1.41,4,4.31,4.31,0,0,0,3.27,1.53,6.07,6.07,0,0,0,1.35-.15,7.91,7.91,0,0,0,1.16-.32,6.8,6.8,0,0,0,1-.5l.81-.51c.18-.12.41-.29.69-.52a5.36,5.36,0,0,1,.48-.38l-.36,2.59a8.41,8.41,0,0,1-5.22,1.73,6.22,6.22,0,0,1-5.22-2.36,8.57,8.57,0,0,1-1.83-5.41,9.25,9.25,0,0,1,2.39-6.66,7.11,7.11,0,0,1,5.2-2.52,5.21,5.21,0,0,1,4.18,1.92,7.45,7.45,0,0,1,1.62,4.95A11.37,11.37,0,0,1,434,235.83Zm-10.44-1.66h8.24a4.89,4.89,0,0,0-1-3.31,3.2,3.2,0,0,0-2.52-1.15,4.33,4.33,0,0,0-2.79,1.13A6.28,6.28,0,0,0,423.55,234.17Z"/><path class="cls-2" d="M451.59,219.77,448,244.33h-2.31l3.57-24.56Z"/><path class="cls-2" d="M467.57,228.16l-2.37,16.17h-2.31l.29-1.91a7.57,7.57,0,0,1-4.93,2.12,5,5,0,0,1-3.87-1.8,6.4,6.4,0,0,1-1.6-4.43,9.89,9.89,0,0,1,3.13-7.68,11.34,11.34,0,0,1,8-2.86A21.77,21.77,0,0,1,467.57,228.16Zm-4.07,11.92L465,229.85a5.75,5.75,0,0,0-1.48-.14,8,8,0,0,0-5.88,2.38,8.18,8.18,0,0,0-2.4,6.08,5.21,5.21,0,0,0,1,3.11,3.17,3.17,0,0,0,2.72,1.39,4.79,4.79,0,0,0,2.58-.81A7.27,7.27,0,0,0,463.5,240.08Z"/><path class="cls-2" d="M483.09,219.77h3.74a15.55,15.55,0,0,1,5.85,1,11.26,11.26,0,0,1,4.23,2.82,12.56,12.56,0,0,1,3.31,8.59,11.72,11.72,0,0,1-3.4,8.73q-3.4,3.36-9.41,3.37h-7.92Zm3.49,2.24h-1.33l-2.95,20.08H486a16.45,16.45,0,0,0,5.55-.84,8.41,8.41,0,0,0,3.6-2.31,9.35,9.35,0,0,0,1.83-3.13,10.75,10.75,0,0,0,.58-3.58,12,12,0,0,0-.29-2.59,9.64,9.64,0,0,0-1.08-2.7,10,10,0,0,0-2-2.49,9.09,9.09,0,0,0-3.17-1.76A13.48,13.48,0,0,0,486.58,222Z"/><path class="cls-2" d="M516.24,235.83h-10.8c0,.53-.07,1-.07,1.4a5.7,5.7,0,0,0,1.41,4,4.3,4.3,0,0,0,3.27,1.53,6.07,6.07,0,0,0,1.35-.15,7.42,7.42,0,0,0,1.15-.32,6.44,6.44,0,0,0,1-.5l.81-.51a7.36,7.36,0,0,0,.68-.52c.28-.23.44-.35.49-.38L515.2,243a8.45,8.45,0,0,1-5.22,1.73,6.2,6.2,0,0,1-5.22-2.36,8.58,8.58,0,0,1-1.84-5.41,9.26,9.26,0,0,1,2.4-6.66,7.09,7.09,0,0,1,5.2-2.52,5.23,5.23,0,0,1,4.18,1.92,7.45,7.45,0,0,1,1.62,4.95A9.14,9.14,0,0,1,516.24,235.83Zm-10.44-1.66h8.25a4.89,4.89,0,0,0-1-3.31,3.2,3.2,0,0,0-2.52-1.15,4.33,4.33,0,0,0-2.79,1.13A6.35,6.35,0,0,0,505.8,234.17Z"/><path class="cls-2" d="M527.76,228.16l-.28,2h-3.57l-3.06,21.13h-2.3l3-21.13h-2.91l.28-2h3l.43-2.41a9,9,0,0,1,1.11-3.1,6.19,6.19,0,0,1,1.82-2,8.07,8.07,0,0,1,2-.95,6.63,6.63,0,0,1,1.89-.29,11.67,11.67,0,0,1,4.14.86l-.32,2.24a7.83,7.83,0,0,0-3.71-1,4.17,4.17,0,0,0-3.15,1.31,6.82,6.82,0,0,0-1.64,3.58l-.29,1.73Z"/><path class="cls-2" d="M541.52,235.83h-10.8c-.05.53-.08,1-.08,1.4a5.7,5.7,0,0,0,1.41,4,4.31,4.31,0,0,0,3.27,1.53,6.07,6.07,0,0,0,1.35-.15,7.91,7.91,0,0,0,1.16-.32,6.8,6.8,0,0,0,1-.5l.81-.51c.18-.12.41-.29.69-.52a5.36,5.36,0,0,1,.48-.38l-.36,2.59a8.41,8.41,0,0,1-5.22,1.73,6.22,6.22,0,0,1-5.22-2.36A8.57,8.57,0,0,1,528.2,237a9.25,9.25,0,0,1,2.39-6.66,7.11,7.11,0,0,1,5.2-2.52,5.21,5.21,0,0,1,4.18,1.92,7.45,7.45,0,0,1,1.62,4.95A11.37,11.37,0,0,1,541.52,235.83Zm-10.44-1.66h8.24a4.89,4.89,0,0,0-1-3.31,3.2,3.2,0,0,0-2.52-1.15,4.33,4.33,0,0,0-2.79,1.13A6.28,6.28,0,0,0,531.08,234.17Z"/><path class="cls-2" d="M546,228.16h2.34l-.44,3a19.22,19.22,0,0,1,3-2.54,5.31,5.31,0,0,1,2.93-.84,3.67,3.67,0,0,1,3,1.2,4.6,4.6,0,0,1,1,3,12.15,12.15,0,0,1-.15,1.76l-1.54,10.59h-2.31l1.52-10.52a9.77,9.77,0,0,0,.1-1.54c0-1.71-.77-2.56-2.3-2.56a3.82,3.82,0,0,0-1.22.18,6.91,6.91,0,0,0-1.7,1.1,25.46,25.46,0,0,0-2.73,2.64L546,244.33h-2.34Z"/><path class="cls-2" d="M571,229.53l-.36,2.23a9,9,0,0,0-4.9-1.91,2.63,2.63,0,0,0-1.95.63,2,2,0,0,0-.61,1.39,1.88,1.88,0,0,0,.72,1.4c.48.44,1.73,1.36,3.75,2.78q2.63,1.8,2.62,4.21a4,4,0,0,1-1.52,3.2,5.71,5.71,0,0,1-3.73,1.26,9.15,9.15,0,0,1-5.36-2.05l.35-2.45a8,8,0,0,0,5.15,2.41,3.08,3.08,0,0,0,2-.59,1.85,1.85,0,0,0,.74-1.49,2.26,2.26,0,0,0-.15-.87,4.19,4.19,0,0,0-.88-1.1,14.8,14.8,0,0,0-2.18-1.71,15,15,0,0,1-2.89-2.39,3.58,3.58,0,0,1-.88-2.43,4,4,0,0,1,1.33-3,5.11,5.11,0,0,1,3.67-1.26A9.24,9.24,0,0,1,571,229.53Z"/><path class="cls-2" d="M586.8,234.61q0,4.78-2.34,7.45a7,7,0,0,1-5.4,2.66,6.69,6.69,0,0,1-1.06-.09,6.3,6.3,0,0,1-1.46-.5A5.22,5.22,0,0,1,575,243a5.81,5.81,0,0,1-1.19-2.09,9.27,9.27,0,0,1-.5-3.22,10.67,10.67,0,0,1,2.32-7.31,7,7,0,0,1,5.38-2.62,5.5,5.5,0,0,1,4.14,1.76A7.05,7.05,0,0,1,586.8,234.61Zm-11.09,3.16a8.42,8.42,0,0,0,.38,2.69,3.08,3.08,0,0,0,1,1.54,4.59,4.59,0,0,0,1.06.62,2.84,2.84,0,0,0,.89.16,3.85,3.85,0,0,0,2.88-1.35,8.34,8.34,0,0,0,1.85-3.17,11.57,11.57,0,0,0,.59-3.65,6.21,6.21,0,0,0-.91-3.55,3,3,0,0,0-2.58-1.35,4.28,4.28,0,0,0-3.67,2.38A10.58,10.58,0,0,0,575.71,237.77Z"/><path class="cls-2" d="M591.45,228.16h2.3l-.54,4a13.17,13.17,0,0,1,2.41-3.27,3.78,3.78,0,0,1,2.59-1.08,4.8,4.8,0,0,1,1.48.28l-.25,2.38a4.18,4.18,0,0,0-1.48-.36,3,3,0,0,0-1.13.23,4.21,4.21,0,0,0-1,.65,10.94,10.94,0,0,0-.92.87,6.62,6.62,0,0,0-.8,1l-.59.92c-.16.24-.32.51-.49.79l-.21.44-1.33,9.36h-2.38Z"/><path class="cls-2" d="M604.19,228.16l-2.34,16.17h-2.3l2.3-16.17Zm3.82-8.53-5,5.65h-1.59l3.32-5.65Z"/><path class="cls-2" d="M621.4,228.16,619,244.33h-2.3l.29-1.91a7.59,7.59,0,0,1-4.94,2.12,5,5,0,0,1-3.87-1.8,6.45,6.45,0,0,1-1.6-4.43,9.93,9.93,0,0,1,3.13-7.68,11.34,11.34,0,0,1,8-2.86A21.87,21.87,0,0,1,621.4,228.16Zm-4.07,11.92,1.48-10.23a5.86,5.86,0,0,0-1.48-.14,8,8,0,0,0-5.89,2.38,8.21,8.21,0,0,0-2.39,6.08,5.21,5.21,0,0,0,1,3.11,3.16,3.16,0,0,0,2.72,1.39,4.76,4.76,0,0,0,2.57-.81A7.32,7.32,0,0,0,617.33,240.08Z"/><path class="cls-2" d="M649.26,219.77l-3.53,24.45a16.42,16.42,0,0,1-4.14.5,9,9,0,0,1-6.19-2,6.63,6.63,0,0,1-2.27-5.23,9.34,9.34,0,0,1,.65-3.37,10.33,10.33,0,0,1,1.91-3.11,9.18,9.18,0,0,1,3.38-2.34,12.31,12.31,0,0,1,4.83-.9c.6,0,1.21,0,1.83.07l1.19-8.07Zm-5.65,22.83,1.84-12.82a12.55,12.55,0,0,0-1.41-.07,10.18,10.18,0,0,0-3.58.58,6.89,6.89,0,0,0-2.45,1.42,7.55,7.55,0,0,0-1.46,1.94,8.2,8.2,0,0,0-.77,2,8,8,0,0,0-.2,1.69,5.19,5.19,0,0,0,1.64,4,6,6,0,0,0,4.27,1.51A9.22,9.22,0,0,0,643.61,242.6Z"/><path class="cls-2" d="M663.77,235.83H653c-.05.53-.07,1-.07,1.4a5.74,5.74,0,0,0,1.4,4,4.33,4.33,0,0,0,3.28,1.53,6.21,6.21,0,0,0,1.35-.15,8.11,8.11,0,0,0,1.15-.32,6.88,6.88,0,0,0,1-.5l.81-.51c.18-.12.4-.29.68-.52l.48-.38-.36,2.59a8.41,8.41,0,0,1-5.22,1.73,6.19,6.19,0,0,1-5.21-2.36,8.52,8.52,0,0,1-1.84-5.41,9.29,9.29,0,0,1,2.39-6.66,7.11,7.11,0,0,1,5.2-2.52,5.21,5.21,0,0,1,4.18,1.92,7.45,7.45,0,0,1,1.62,4.95A9.17,9.17,0,0,1,663.77,235.83Zm-10.44-1.66h8.24a4.84,4.84,0,0,0-1-3.31,3.2,3.2,0,0,0-2.52-1.15,4.35,4.35,0,0,0-2.79,1.13A6.34,6.34,0,0,0,653.33,234.17Z"/><path class="cls-2" d="M672,219.77l-3.57,24.56h-2.3l3.56-24.56Z"/><path class="cls-2" d="M143,255.77h4.18a11,11,0,0,1,3.36.47,6.76,6.76,0,0,1,2.27,1.15,5.53,5.53,0,0,1,1.31,1.62,6.43,6.43,0,0,1,.67,1.73,8.13,8.13,0,0,1,.16,1.66,6.8,6.8,0,0,1-2.18,5.16,8.7,8.7,0,0,1-6.24,2.07h-3l-1.51,10.7h-2.56Zm4,2.24h-1.77l-1.33,9.39h2.59a6.22,6.22,0,0,0,4.36-1.33,4.58,4.58,0,0,0,1.44-3.53,5,5,0,0,0-.24-1.56,4.39,4.39,0,0,0-.77-1.44,3.65,3.65,0,0,0-1.64-1.12A7.4,7.4,0,0,0,147,258Z"/><path class="cls-2" d="M167.84,280.33H165.5l.44-3a19.22,19.22,0,0,1-3,2.54,5.33,5.33,0,0,1-2.93.84,3.67,3.67,0,0,1-3-1.2,4.6,4.6,0,0,1-1-3,13.57,13.57,0,0,1,.14-1.76l1.55-10.59H160l-1.52,10.51a10,10,0,0,0-.1,1.55c0,1.71.76,2.56,2.3,2.56a3.82,3.82,0,0,0,1.22-.18,6.91,6.91,0,0,0,1.7-1.1,24.74,24.74,0,0,0,2.73-2.65l1.55-10.69h2.34Z"/><path class="cls-2" d="M185.81,271.83H175c0,.53-.07,1-.07,1.4a5.69,5.69,0,0,0,1.4,4,4.33,4.33,0,0,0,3.28,1.53,6.21,6.21,0,0,0,1.35-.15,8.11,8.11,0,0,0,1.15-.32,6.8,6.8,0,0,0,1-.5l.81-.51c.18-.12.41-.29.69-.52s.44-.35.48-.38l-.36,2.59a8.41,8.41,0,0,1-5.22,1.73,6.22,6.22,0,0,1-5.22-2.36,8.57,8.57,0,0,1-1.83-5.41,9.29,9.29,0,0,1,2.39-6.66,7.11,7.11,0,0,1,5.2-2.52,5.21,5.21,0,0,1,4.18,1.92,7.45,7.45,0,0,1,1.62,4.95A9.17,9.17,0,0,1,185.81,271.83Zm-10.44-1.66h8.24a4.84,4.84,0,0,0-1-3.31,3.2,3.2,0,0,0-2.52-1.15,4.33,4.33,0,0,0-2.79,1.13A6.28,6.28,0,0,0,175.37,270.17Z"/><path class="cls-2" d="M191.53,255.77h2.41L192.47,266a6.21,6.21,0,0,1,4.61-2.23,5.15,5.15,0,0,1,2.75.72,5,5,0,0,1,1.8,1.85,9.42,9.42,0,0,1,.92,2.27,9,9,0,0,1,.29,2.21,10.76,10.76,0,0,1-.54,3.4,10.35,10.35,0,0,1-1.71,3.15,8,8,0,0,1-3.39,2.43,13.35,13.35,0,0,1-5.2.92,35,35,0,0,1-4-.25Zm.65,12.21-1.55,10.73a10.49,10.49,0,0,0,1.59.14,8,8,0,0,0,6-2.25,7.85,7.85,0,0,0,2.2-5.74,5.89,5.89,0,0,0-1.1-3.8,3.55,3.55,0,0,0-2.9-1.35,4.38,4.38,0,0,0-2.28.67A7.2,7.2,0,0,0,192.18,268Z"/><path class="cls-2" d="M211.12,255.77l-3.57,24.56h-2.3l3.56-24.56Z"/><path class="cls-2" d="M225.91,270.61q0,4.78-2.34,7.45a7,7,0,0,1-5.4,2.66,6.6,6.6,0,0,1-1.06-.09,6.3,6.3,0,0,1-1.46-.5,5.22,5.22,0,0,1-1.58-1.12,5.66,5.66,0,0,1-1.19-2.09,9.27,9.27,0,0,1-.5-3.22,10.67,10.67,0,0,1,2.32-7.31,7,7,0,0,1,5.38-2.62,5.5,5.5,0,0,1,4.14,1.76A7.05,7.05,0,0,1,225.91,270.61Zm-11.09,3.16a8.42,8.42,0,0,0,.38,2.69,3.08,3.08,0,0,0,1,1.54,4.59,4.59,0,0,0,1.06.62,2.83,2.83,0,0,0,.88.16,3.88,3.88,0,0,0,2.89-1.35,8.47,8.47,0,0,0,1.85-3.17,11.57,11.57,0,0,0,.59-3.65,6.13,6.13,0,0,0-.92-3.55,2.93,2.93,0,0,0-2.57-1.35,4.28,4.28,0,0,0-3.67,2.38A10.49,10.49,0,0,0,214.82,273.77Z"/><path class="cls-2" d="M241.17,260.45h2.31l-.61,4.14a7.78,7.78,0,0,1,3.52-.82,6.16,6.16,0,0,1,4.41,2,7.36,7.36,0,0,1,2,5.52,8.68,8.68,0,0,1-2.93,7,10.15,10.15,0,0,1-6.79,2.5q-1.83,0-2.52,0l-1.15,7.59h-2.27l3-20.48a12,12,0,0,0-1.91,2l-.43.61c-.17.24-.29.41-.38.52s-.15.16-.2.16-.17-.1-.17-.32a4.88,4.88,0,0,1,.86-2,11.68,11.68,0,0,1,2.45-2.79Zm1.45,5.91-1.77,12.35a8.78,8.78,0,0,0,1.55.1,9.41,9.41,0,0,0,3.78-.7,5.89,5.89,0,0,0,2.48-1.87,8.62,8.62,0,0,0,1.28-2.43,8.11,8.11,0,0,0,.41-2.59,6.77,6.77,0,0,0-.5-2.72,4.22,4.22,0,0,0-1.28-1.75,6,6,0,0,0-1.51-.84,4.14,4.14,0,0,0-1.42-.27A6.62,6.62,0,0,0,242.62,266.36Z"/><path class="cls-2" d="M270.23,264.16l-2.38,16.17h-2.3l.28-1.91a7.55,7.55,0,0,1-4.93,2.12,5,5,0,0,1-3.87-1.8,6.4,6.4,0,0,1-1.6-4.43,9.89,9.89,0,0,1,3.13-7.68,11.34,11.34,0,0,1,8-2.86A21.87,21.87,0,0,1,270.23,264.16Zm-4.07,11.92,1.47-10.23a5.71,5.71,0,0,0-1.47-.14,8,8,0,0,0-5.89,2.38,8.21,8.21,0,0,0-2.39,6.08,5.21,5.21,0,0,0,1,3.11,3.14,3.14,0,0,0,2.72,1.39,4.76,4.76,0,0,0,2.57-.81A7.32,7.32,0,0,0,266.16,276.08Z"/><path class="cls-2" d="M274.58,264.16h2.31l-.54,4a12.92,12.92,0,0,1,2.41-3.27,3.76,3.76,0,0,1,2.59-1.08,4.86,4.86,0,0,1,1.48.28l-.26,2.38a4.18,4.18,0,0,0-1.47-.36,3.05,3.05,0,0,0-1.14.23,4.21,4.21,0,0,0-1,.65c-.32.28-.63.57-.92.87a6.57,6.57,0,0,0-.79,1l-.59.92c-.16.24-.32.51-.49.79l-.22.44-1.33,9.36h-2.37Z"/><path class="cls-2" d="M297.59,264.16l-2.38,16.17h-2.3l.28-1.91a7.55,7.55,0,0,1-4.93,2.12,5,5,0,0,1-3.87-1.8,6.4,6.4,0,0,1-1.6-4.43,9.89,9.89,0,0,1,3.13-7.68,11.34,11.34,0,0,1,8-2.86A21.87,21.87,0,0,1,297.59,264.16Zm-4.07,11.92L295,265.85a5.71,5.71,0,0,0-1.47-.14,8,8,0,0,0-5.89,2.38,8.21,8.21,0,0,0-2.39,6.08,5.21,5.21,0,0,0,1,3.11,3.14,3.14,0,0,0,2.72,1.39,4.76,4.76,0,0,0,2.57-.81A7.32,7.32,0,0,0,293.52,276.08Z"/><path class="cls-2" d="M322.68,271.83h-10.8c-.05.53-.08,1-.08,1.4a5.7,5.7,0,0,0,1.41,4,4.32,4.32,0,0,0,3.28,1.53,6.21,6.21,0,0,0,1.35-.15,8.11,8.11,0,0,0,1.15-.32,6.8,6.8,0,0,0,1-.5l.81-.51c.18-.12.41-.29.69-.52s.44-.35.48-.38l-.36,2.59a8.41,8.41,0,0,1-5.22,1.73,6.22,6.22,0,0,1-5.22-2.36,8.57,8.57,0,0,1-1.83-5.41,9.25,9.25,0,0,1,2.39-6.66,7.11,7.11,0,0,1,5.2-2.52,5.21,5.21,0,0,1,4.18,1.92,7.45,7.45,0,0,1,1.62,4.95A11.37,11.37,0,0,1,322.68,271.83Zm-10.44-1.66h8.24a4.89,4.89,0,0,0-1-3.31,3.2,3.2,0,0,0-2.52-1.15,4.33,4.33,0,0,0-2.79,1.13A6.28,6.28,0,0,0,312.24,270.17Z"/><path class="cls-2" d="M330.88,255.77l-3.56,24.56H325l3.56-24.56Z"/><path class="cls-2" d="M356.26,264.16l-2.37,16.17h-2.31l.29-1.91a7.55,7.55,0,0,1-4.93,2.12,5,5,0,0,1-3.87-1.8,6.4,6.4,0,0,1-1.6-4.43,9.89,9.89,0,0,1,3.13-7.68,11.34,11.34,0,0,1,8-2.86A21.77,21.77,0,0,1,356.26,264.16Zm-4.06,11.92,1.47-10.23a5.71,5.71,0,0,0-1.47-.14,8,8,0,0,0-5.89,2.38,8.17,8.17,0,0,0-2.39,6.08,5.21,5.21,0,0,0,1,3.11,3.14,3.14,0,0,0,2.71,1.39,4.77,4.77,0,0,0,2.58-.81A7.32,7.32,0,0,0,352.2,276.08Z"/><path class="cls-2" d="M371.6,264.05l-.32,2.24a12.69,12.69,0,0,0-2.85-.36,6.85,6.85,0,0,0-5.31,2.28,7.51,7.51,0,0,0-2.07,5.17,5.87,5.87,0,0,0,1.21,3.67,4.41,4.41,0,0,0,3.76,1.58,9.05,9.05,0,0,0,4.5-1.47l-.36,2.45a10,10,0,0,1-4.46,1.11,6.74,6.74,0,0,1-5.22-2,7.43,7.43,0,0,1-1.88-5.24,9.56,9.56,0,0,1,.63-3.4,10.55,10.55,0,0,1,1.84-3.1,8.7,8.7,0,0,1,3.2-2.3,11.08,11.08,0,0,1,4.52-.88A15.6,15.6,0,0,1,371.6,264.05Z"/><path class="cls-2" d="M386.43,270.61q0,4.78-2.34,7.45a7,7,0,0,1-5.4,2.66,6.69,6.69,0,0,1-1.06-.09,6.3,6.3,0,0,1-1.46-.5,5.22,5.22,0,0,1-1.58-1.12,5.81,5.81,0,0,1-1.19-2.09,9.27,9.27,0,0,1-.5-3.22,10.67,10.67,0,0,1,2.32-7.31,7,7,0,0,1,5.38-2.62,5.5,5.5,0,0,1,4.14,1.76A7.05,7.05,0,0,1,386.43,270.61Zm-11.09,3.16a8.42,8.42,0,0,0,.38,2.69,3.08,3.08,0,0,0,1,1.54,4.59,4.59,0,0,0,1.06.62,2.84,2.84,0,0,0,.89.16,3.85,3.85,0,0,0,2.88-1.35,8.47,8.47,0,0,0,1.85-3.17,11.57,11.57,0,0,0,.59-3.65,6.21,6.21,0,0,0-.91-3.55,3,3,0,0,0-2.58-1.35,4.28,4.28,0,0,0-3.67,2.38A10.58,10.58,0,0,0,375.34,273.77Z"/><path class="cls-2" d="M391,264.16h2.3l-.39,2.85.36-.36.43-.44.45-.41.52-.45.52-.41a3.14,3.14,0,0,1,.61-.4l.65-.31a3.26,3.26,0,0,1,.72-.25l.74-.14a4.43,4.43,0,0,1,.83-.07q3.06,0,3.81,3.6,3.06-3.6,6.12-3.6a3.88,3.88,0,0,1,2.92,1.11,4.13,4.13,0,0,1,1.08,3,17.43,17.43,0,0,1-.18,2L411,280.33h-2.34l1.52-10.66a10.94,10.94,0,0,0,.1-1.51c0-1.63-.71-2.45-2.12-2.45q-2.62,0-5.62,3.71L401,280.33h-2.34l1.4-9.83a10.12,10.12,0,0,0,.22-2.31,4.06,4.06,0,0,0-.13-.9,2.38,2.38,0,0,0-.68-1,2,2,0,0,0-1.43-.54,4.71,4.71,0,0,0-1.85.38,5.58,5.58,0,0,0-1.71,1.19c-.55.54-.92.91-1.1,1.11s-.46.56-.84,1.06l-1.62,10.88h-2.27Z"/><path class="cls-2" d="M418.58,260.45h2.3l-.61,4.14a7.82,7.82,0,0,1,3.53-.82,6.16,6.16,0,0,1,4.41,2,7.4,7.4,0,0,1,2,5.52,8.66,8.66,0,0,1-2.94,7,10.12,10.12,0,0,1-6.78,2.5q-1.85,0-2.52,0l-1.15,7.59h-2.27l3-20.48a11.58,11.58,0,0,0-1.91,2c-.12.17-.27.37-.43.61l-.38.52c-.09.11-.15.16-.2.16s-.18-.1-.18-.32a5,5,0,0,1,.86-2,12.14,12.14,0,0,1,2.45-2.79Zm1.44,5.91-1.76,12.35a8.65,8.65,0,0,0,1.54.1,9.41,9.41,0,0,0,3.78-.7,6,6,0,0,0,2.49-1.87,8.89,8.89,0,0,0,1.28-2.43,8.4,8.4,0,0,0,.41-2.59,7,7,0,0,0-.5-2.72,4.31,4.31,0,0,0-1.28-1.75,6.1,6.1,0,0,0-1.52-.84,4.1,4.1,0,0,0-1.42-.27A6.68,6.68,0,0,0,420,266.36Z"/><path class="cls-2" d="M447.63,264.16l-2.37,16.17H443l.29-1.91a7.57,7.57,0,0,1-4.93,2.12,5,5,0,0,1-3.87-1.8,6.4,6.4,0,0,1-1.6-4.43,9.89,9.89,0,0,1,3.13-7.68,11.31,11.31,0,0,1,7.95-2.86A21.77,21.77,0,0,1,447.63,264.16Zm-4.07,11.92L445,265.85a5.8,5.8,0,0,0-1.48-.14,8,8,0,0,0-5.88,2.38,8.18,8.18,0,0,0-2.4,6.08,5.21,5.21,0,0,0,1,3.11,3.16,3.16,0,0,0,2.72,1.39,4.79,4.79,0,0,0,2.58-.81A7.27,7.27,0,0,0,443.56,276.08Z"/><path class="cls-2" d="M451.92,264.16h2.34l-.44,3a19.22,19.22,0,0,1,3-2.54,5.33,5.33,0,0,1,2.93-.84,3.67,3.67,0,0,1,3,1.2,4.6,4.6,0,0,1,1,3,13.57,13.57,0,0,1-.14,1.76l-1.55,10.59h-2.31l1.52-10.52a9.77,9.77,0,0,0,.1-1.54c0-1.71-.76-2.56-2.3-2.56a3.78,3.78,0,0,0-1.22.18,6.91,6.91,0,0,0-1.7,1.1,24.56,24.56,0,0,0-2.73,2.64l-1.55,10.7h-2.34Zm2.44-3.78h-1.29a7,7,0,0,1,.57-2.3A2.42,2.42,0,0,1,456,256.6a8.74,8.74,0,0,1,3.21.87,7.17,7.17,0,0,0,2.37.68,1.21,1.21,0,0,0,.87-.32,1.43,1.43,0,0,0,.39-.58,6.2,6.2,0,0,0,.15-.72h1.29a4.1,4.1,0,0,1-.9,2.86,2.71,2.71,0,0,1-2.05,1,7.28,7.28,0,0,1-2.59-.65,11.59,11.59,0,0,0-3-.9C455,258.83,454.53,259.35,454.36,260.38Z"/><path class="cls-2" d="M481.15,264.16l-2.38,16.17h-2.3l.28-1.91a7.55,7.55,0,0,1-4.93,2.12,5,5,0,0,1-3.87-1.8,6.4,6.4,0,0,1-1.6-4.43,9.89,9.89,0,0,1,3.13-7.68,11.34,11.34,0,0,1,8-2.86A21.87,21.87,0,0,1,481.15,264.16Zm-4.07,11.92,1.47-10.23a5.71,5.71,0,0,0-1.47-.14,8,8,0,0,0-5.89,2.38,8.21,8.21,0,0,0-2.39,6.08,5.21,5.21,0,0,0,1,3.11,3.16,3.16,0,0,0,2.72,1.39,4.76,4.76,0,0,0,2.57-.81A7.32,7.32,0,0,0,477.08,276.08Z"/><path class="cls-2" d="M485.39,264.16h2.31l-.4,2.85.36-.36.43-.44.45-.41.53-.45.52-.41a3.14,3.14,0,0,1,.61-.4l.65-.31a3.26,3.26,0,0,1,.72-.25l.74-.14a4.39,4.39,0,0,1,.82-.07c2,0,3.32,1.2,3.82,3.6q3.06-3.6,6.12-3.6a3.9,3.9,0,0,1,2.92,1.11,4.13,4.13,0,0,1,1.08,3,17.43,17.43,0,0,1-.18,2l-1.48,10.44h-2.34l1.51-10.66a11,11,0,0,0,.11-1.51c0-1.63-.71-2.45-2.12-2.45q-2.64,0-5.62,3.71l-1.55,10.91h-2.34l1.41-9.83a10.21,10.21,0,0,0,.21-2.31,4,4,0,0,0-.12-.9,2.41,2.41,0,0,0-.69-1,2,2,0,0,0-1.42-.54,4.64,4.64,0,0,0-1.85.38,5.58,5.58,0,0,0-1.71,1.19c-.56.54-.92.91-1.1,1.11s-.46.56-.85,1.06l-1.62,10.88h-2.27Z"/><path class="cls-2" d="M514.19,264.16l-2.34,16.17h-2.3l2.3-16.17Zm.72-4.21a1.56,1.56,0,0,1-1.15.47,1.6,1.6,0,0,1-1.62-1.62,1.56,1.56,0,0,1,.47-1.15,1.63,1.63,0,0,1,2.3,2.3Z"/><path class="cls-2" d="M530.07,271.83h-10.8c0,.53-.07,1-.07,1.4a5.74,5.74,0,0,0,1.4,4,4.33,4.33,0,0,0,3.28,1.53,6.21,6.21,0,0,0,1.35-.15,7.75,7.75,0,0,0,1.15-.32,6.88,6.88,0,0,0,1-.5l.81-.51c.18-.12.4-.29.68-.52s.44-.35.49-.38L529,279a8.45,8.45,0,0,1-5.22,1.73,6.2,6.2,0,0,1-5.22-2.36,8.52,8.52,0,0,1-1.84-5.41,9.29,9.29,0,0,1,2.39-6.66,7.11,7.11,0,0,1,5.21-2.52,5.21,5.21,0,0,1,4.17,1.92,7.45,7.45,0,0,1,1.62,4.95A9.17,9.17,0,0,1,530.07,271.83Zm-10.44-1.66h8.25a4.89,4.89,0,0,0-1-3.31,3.23,3.23,0,0,0-2.52-1.15,4.33,4.33,0,0,0-2.79,1.13A6.29,6.29,0,0,0,519.63,270.17Z"/><path class="cls-2" d="M534.57,264.16h2.34l-.43,3a19.68,19.68,0,0,1,3-2.54,5.36,5.36,0,0,1,2.94-.84,3.66,3.66,0,0,1,3,1.2,4.6,4.6,0,0,1,1,3,12,12,0,0,1-.14,1.76l-1.55,10.59h-2.3l1.51-10.52a9.65,9.65,0,0,0,.11-1.54c0-1.71-.77-2.56-2.31-2.56a3.86,3.86,0,0,0-1.22.18,6.91,6.91,0,0,0-1.69,1.1,25.41,25.41,0,0,0-2.74,2.64l-1.55,10.7h-2.34Z"/><path class="cls-2" d="M558.44,264.16l-.29,1.95h-3.78l-1.19,6.69c-.36,2.16-.54,3.43-.54,3.82a1.91,1.91,0,0,0,.67,1.65,2.29,2.29,0,0,0,1.42.51,5.13,5.13,0,0,0,3.13-1.23l-.07,2.27a7.35,7.35,0,0,1-3.42.9,4.28,4.28,0,0,1-2.86-1,3.51,3.51,0,0,1-1.21-2.83,18.15,18.15,0,0,1,.51-3.89l1.26-6.87h-3l.29-1.95h3l.61-3.49h2.31l-.58,3.49Z"/><path class="cls-2" d="M573.09,270.61q0,4.78-2.34,7.45a7,7,0,0,1-5.4,2.66,6.6,6.6,0,0,1-1.06-.09,6.3,6.3,0,0,1-1.46-.5,5.22,5.22,0,0,1-1.58-1.12,5.66,5.66,0,0,1-1.19-2.09,9.26,9.26,0,0,1-.51-3.22,10.67,10.67,0,0,1,2.33-7.31,7,7,0,0,1,5.38-2.62,5.5,5.5,0,0,1,4.14,1.76A7.05,7.05,0,0,1,573.09,270.61ZM562,273.77a8.42,8.42,0,0,0,.38,2.69,3.08,3.08,0,0,0,1,1.54,4.59,4.59,0,0,0,1.06.62,2.83,2.83,0,0,0,.88.16,3.85,3.85,0,0,0,2.88-1.35,8.49,8.49,0,0,0,1.86-3.17,11.86,11.86,0,0,0,.59-3.65,6.13,6.13,0,0,0-.92-3.55,2.93,2.93,0,0,0-2.57-1.35,4.28,4.28,0,0,0-3.67,2.38A10.49,10.49,0,0,0,562,273.77Z"/><path class="cls-2" d="M598.83,264.16l-12.21,24.45h-2.51l4.46-8.9-3.06-15.55h2.34l2.34,12.28,6.15-12.28Z"/><path class="cls-2" d="M611.75,260.45h2.31l-.62,4.14a7.82,7.82,0,0,1,3.53-.82,6.16,6.16,0,0,1,4.41,2,7.4,7.4,0,0,1,2,5.52,8.68,8.68,0,0,1-2.93,7,10.15,10.15,0,0,1-6.79,2.5q-1.83,0-2.52,0L610,288.28h-2.27l3-20.48a12,12,0,0,0-1.91,2l-.43.61-.38.52c-.08.11-.15.16-.2.16s-.18-.1-.18-.32a5,5,0,0,1,.87-2,11.85,11.85,0,0,1,2.44-2.79Zm1.44,5.91-1.76,12.35a8.7,8.7,0,0,0,1.55.1,9.41,9.41,0,0,0,3.78-.7,6,6,0,0,0,2.48-1.87,8.62,8.62,0,0,0,1.28-2.43,8.4,8.4,0,0,0,.41-2.59,7,7,0,0,0-.5-2.72,4.22,4.22,0,0,0-1.28-1.75,6.23,6.23,0,0,0-1.51-.84,4.14,4.14,0,0,0-1.42-.27A6.69,6.69,0,0,0,613.19,266.36Z"/><path class="cls-2" d="M628.13,264.16h2.31l-.54,4a12.92,12.92,0,0,1,2.41-3.27,3.76,3.76,0,0,1,2.59-1.08,4.86,4.86,0,0,1,1.48.28l-.26,2.38a4.18,4.18,0,0,0-1.47-.36,3.05,3.05,0,0,0-1.14.23,4.21,4.21,0,0,0-1,.65c-.32.28-.63.57-.92.87a6.57,6.57,0,0,0-.79,1l-.59.92c-.16.24-.32.51-.49.79l-.22.44-1.33,9.36h-2.37Z"/><path class="cls-2" d="M650,270.61q0,4.78-2.34,7.45a7,7,0,0,1-5.4,2.66,6.6,6.6,0,0,1-1.06-.09,6.14,6.14,0,0,1-1.46-.5A5.39,5.39,0,0,1,638.1,279a5.8,5.8,0,0,1-1.18-2.09,9.26,9.26,0,0,1-.51-3.22,10.72,10.72,0,0,1,2.32-7.31,7,7,0,0,1,5.39-2.62,5.5,5.5,0,0,1,4.14,1.76A7.1,7.1,0,0,1,650,270.61Zm-11.09,3.16a8.42,8.42,0,0,0,.38,2.69,3.08,3.08,0,0,0,1,1.54,4.59,4.59,0,0,0,1.06.62,2.78,2.78,0,0,0,.88.16,3.85,3.85,0,0,0,2.88-1.35,8.49,8.49,0,0,0,1.86-3.17,11.86,11.86,0,0,0,.59-3.65,6.21,6.21,0,0,0-.92-3.55,2.93,2.93,0,0,0-2.57-1.35,4.26,4.26,0,0,0-3.67,2.38A10.49,10.49,0,0,0,638.86,273.77Z"/><path class="cls-2" d="M661.9,264.16l-.29,1.95h-3.78l-1.19,6.69c-.36,2.16-.54,3.43-.54,3.82a1.93,1.93,0,0,0,.67,1.65,2.29,2.29,0,0,0,1.42.51,5.11,5.11,0,0,0,3.13-1.23l-.07,2.27a7.35,7.35,0,0,1-3.42.9,4.28,4.28,0,0,1-2.86-1,3.54,3.54,0,0,1-1.21-2.83,18.15,18.15,0,0,1,.51-3.89l1.26-6.87h-3l.29-1.95h3l.61-3.49h2.31l-.58,3.49Z"/><path class="cls-2" d="M676.41,271.83h-10.8c-.05.53-.07,1-.07,1.4a5.69,5.69,0,0,0,1.4,4,4.33,4.33,0,0,0,3.27,1.53,6.23,6.23,0,0,0,1.36-.15,8.11,8.11,0,0,0,1.15-.32,6.8,6.8,0,0,0,1-.5l.81-.51c.18-.12.41-.29.69-.52a5.36,5.36,0,0,1,.48-.38l-.36,2.59a8.41,8.41,0,0,1-5.22,1.73,6.22,6.22,0,0,1-5.22-2.36,8.57,8.57,0,0,1-1.83-5.41,9.25,9.25,0,0,1,2.39-6.66,7.11,7.11,0,0,1,5.2-2.52,5.21,5.21,0,0,1,4.18,1.92,7.45,7.45,0,0,1,1.62,4.95A9.17,9.17,0,0,1,676.41,271.83ZM666,270.17h8.24a4.84,4.84,0,0,0-1-3.31,3.2,3.2,0,0,0-2.52-1.15,4.33,4.33,0,0,0-2.79,1.13A6.28,6.28,0,0,0,666,270.17Z"/><path class="cls-2" d="M692,264.05l-.33,2.24a12.61,12.61,0,0,0-2.84-.36,6.85,6.85,0,0,0-5.31,2.28,7.51,7.51,0,0,0-2.07,5.17,5.87,5.87,0,0,0,1.21,3.67,4.4,4.4,0,0,0,3.76,1.58,9.05,9.05,0,0,0,4.5-1.47l-.36,2.45a10,10,0,0,1-4.47,1.11,6.76,6.76,0,0,1-5.22-2,7.47,7.47,0,0,1-1.87-5.24,9.56,9.56,0,0,1,.63-3.4,10.34,10.34,0,0,1,1.84-3.1,8.7,8.7,0,0,1,3.2-2.3,11,11,0,0,1,4.52-.88A15.6,15.6,0,0,1,692,264.05Z"/><path class="cls-2" d="M706.29,264.05l-.33,2.24a12.61,12.61,0,0,0-2.84-.36,6.85,6.85,0,0,0-5.31,2.28,7.51,7.51,0,0,0-2.07,5.17,5.92,5.92,0,0,0,1.2,3.67,4.43,4.43,0,0,0,3.77,1.58,9.05,9.05,0,0,0,4.5-1.47l-.36,2.45a10,10,0,0,1-4.47,1.11,6.76,6.76,0,0,1-5.22-2,7.43,7.43,0,0,1-1.87-5.24,9.56,9.56,0,0,1,.63-3.4,10.34,10.34,0,0,1,1.84-3.1,8.7,8.7,0,0,1,3.2-2.3,11,11,0,0,1,4.52-.88A15.69,15.69,0,0,1,706.29,264.05Z"/><path class="cls-2" d="M712.05,264.16l-2.34,16.17H707.4l2.31-16.17Zm.72-4.21a1.6,1.6,0,0,1-1.16.47A1.6,1.6,0,0,1,710,258.8a1.56,1.56,0,0,1,.47-1.15,1.54,1.54,0,0,1,1.15-.47,1.63,1.63,0,0,1,1.16,2.77Z"/><path class="cls-2" d="M728.07,270.61q0,4.78-2.34,7.45a7,7,0,0,1-5.4,2.66,6.81,6.81,0,0,1-1.07-.09,6.25,6.25,0,0,1-1.45-.5,5.39,5.39,0,0,1-1.59-1.12,6,6,0,0,1-1.19-2.09,9.51,9.51,0,0,1-.5-3.22,10.67,10.67,0,0,1,2.32-7.31,7,7,0,0,1,5.38-2.62,5.47,5.47,0,0,1,4.14,1.76A7.05,7.05,0,0,1,728.07,270.61ZM717,273.77a8.15,8.15,0,0,0,.38,2.69,3.08,3.08,0,0,0,1,1.54,4.4,4.4,0,0,0,1.06.62,2.78,2.78,0,0,0,.88.16,3.85,3.85,0,0,0,2.88-1.35,8.34,8.34,0,0,0,1.85-3.17,11.58,11.58,0,0,0,.6-3.65,6.21,6.21,0,0,0-.92-3.55,2.93,2.93,0,0,0-2.57-1.35,4.29,4.29,0,0,0-3.68,2.38A10.58,10.58,0,0,0,717,273.77Zm10.08-18.14-5,5.65h-1.58l3.31-5.65Z"/><path class="cls-2" d="M732.64,264.16H735l-.43,3a19.21,19.21,0,0,1,3-2.54,5.36,5.36,0,0,1,2.94-.84,3.66,3.66,0,0,1,3,1.2,4.6,4.6,0,0,1,1,3,13.57,13.57,0,0,1-.14,1.76l-1.55,10.59h-2.3L742,269.81a9.65,9.65,0,0,0,.11-1.54c0-1.71-.77-2.56-2.31-2.56a3.86,3.86,0,0,0-1.22.18,6.73,6.73,0,0,0-1.69,1.1,25.41,25.41,0,0,0-2.74,2.64l-1.55,10.7h-2.34Z"/><path class="cls-2" d="M155.46,291.77l-3.53,24.45a16.42,16.42,0,0,1-4.14.5,9,9,0,0,1-6.19-2,6.63,6.63,0,0,1-2.27-5.23,9.34,9.34,0,0,1,.65-3.37,10.33,10.33,0,0,1,1.91-3.11,9.18,9.18,0,0,1,3.38-2.34,12.31,12.31,0,0,1,4.83-.9c.6,0,1.21,0,1.83.07l1.19-8.07Zm-5.65,22.83,1.83-12.82a12.25,12.25,0,0,0-1.4-.07,10.18,10.18,0,0,0-3.58.58,6.8,6.8,0,0,0-2.45,1.42,7.55,7.55,0,0,0-1.46,1.94,8.2,8.2,0,0,0-.77,2,8,8,0,0,0-.2,1.69,5.19,5.19,0,0,0,1.64,4,6,6,0,0,0,4.26,1.51A9.24,9.24,0,0,0,149.81,314.6Z"/><path class="cls-2" d="M170,307.83h-10.8c0,.53-.07,1-.07,1.4a5.69,5.69,0,0,0,1.4,4,4.33,4.33,0,0,0,3.28,1.53,6.21,6.21,0,0,0,1.35-.15,8.11,8.11,0,0,0,1.15-.32,6.8,6.8,0,0,0,1-.5l.81-.51c.18-.12.41-.29.69-.52s.44-.35.48-.38l-.36,2.59a8.41,8.41,0,0,1-5.22,1.73,6.22,6.22,0,0,1-5.22-2.36,8.57,8.57,0,0,1-1.83-5.41,9.29,9.29,0,0,1,2.39-6.66,7.11,7.11,0,0,1,5.2-2.52,5.21,5.21,0,0,1,4.18,1.92,7.45,7.45,0,0,1,1.62,4.95A9.17,9.17,0,0,1,170,307.83Zm-10.44-1.66h8.24a4.84,4.84,0,0,0-1-3.31,3.2,3.2,0,0,0-2.52-1.15,4.33,4.33,0,0,0-2.79,1.13A6.28,6.28,0,0,0,159.53,306.17Z"/><path class="cls-2" d="M187.57,291.77,184,316.33H181.7l3.57-24.56Z"/><path class="cls-2" d="M193.29,300.16,191,316.33h-2.31L191,300.16Zm3.82-8.53-5,5.65h-1.58l3.31-5.65Z"/><path class="cls-2" d="M211.94,291.77l-3.53,24.45a16.42,16.42,0,0,1-4.14.5,9,9,0,0,1-6.19-2,6.63,6.63,0,0,1-2.27-5.23,9.34,9.34,0,0,1,.65-3.37,10.33,10.33,0,0,1,1.91-3.11,9.18,9.18,0,0,1,3.38-2.34,12.31,12.31,0,0,1,4.83-.9c.6,0,1.21,0,1.83.07l1.19-8.07Zm-5.65,22.83,1.84-12.82a12.43,12.43,0,0,0-1.41-.07,10.18,10.18,0,0,0-3.58.58,6.89,6.89,0,0,0-2.45,1.42,7.55,7.55,0,0,0-1.46,1.94,8.2,8.2,0,0,0-.77,2,8,8,0,0,0-.2,1.69,5.19,5.19,0,0,0,1.64,4,6,6,0,0,0,4.27,1.51A9.22,9.22,0,0,0,206.29,314.6Z"/><path class="cls-2" d="M226.45,307.83h-10.8c-.05.53-.07,1-.07,1.4a5.74,5.74,0,0,0,1.4,4,4.33,4.33,0,0,0,3.28,1.53,6.21,6.21,0,0,0,1.35-.15,7.75,7.75,0,0,0,1.15-.32,6.88,6.88,0,0,0,1-.5l.81-.51c.18-.12.4-.29.68-.52s.44-.35.49-.38l-.36,2.59a8.45,8.45,0,0,1-5.22,1.73,6.2,6.2,0,0,1-5.22-2.36,8.52,8.52,0,0,1-1.84-5.41,9.29,9.29,0,0,1,2.39-6.66,7.11,7.11,0,0,1,5.21-2.52,5.21,5.21,0,0,1,4.17,1.92,7.45,7.45,0,0,1,1.62,4.95A9.17,9.17,0,0,1,226.45,307.83ZM216,306.17h8.24a4.89,4.89,0,0,0-1-3.31,3.23,3.23,0,0,0-2.52-1.15,4.33,4.33,0,0,0-2.79,1.13A6.29,6.29,0,0,0,216,306.17Z"/><path class="cls-2" d="M231,300.16h2.31l-.54,4a12.92,12.92,0,0,1,2.41-3.27,3.76,3.76,0,0,1,2.59-1.08,4.86,4.86,0,0,1,1.48.28l-.26,2.38a4.18,4.18,0,0,0-1.47-.36,3.05,3.05,0,0,0-1.14.23,4.21,4.21,0,0,0-1,.65c-.32.28-.63.57-.92.87a6.57,6.57,0,0,0-.79,1l-.59.92c-.16.24-.32.51-.49.79l-.22.44L231,316.33h-2.37Z"/><path class="cls-2" d="M252.69,307.83h-10.8c0,.53-.07,1-.07,1.4a5.7,5.7,0,0,0,1.41,4,4.3,4.3,0,0,0,3.27,1.53,6.07,6.07,0,0,0,1.35-.15,7.75,7.75,0,0,0,1.15-.32,6.44,6.44,0,0,0,1-.5l.81-.51a7.36,7.36,0,0,0,.68-.52c.28-.23.44-.35.49-.38l-.36,2.59a8.45,8.45,0,0,1-5.22,1.73,6.2,6.2,0,0,1-5.22-2.36,8.58,8.58,0,0,1-1.84-5.41,9.26,9.26,0,0,1,2.4-6.66,7.09,7.09,0,0,1,5.2-2.52,5.23,5.23,0,0,1,4.18,1.92,7.45,7.45,0,0,1,1.62,4.95A9.14,9.14,0,0,1,252.69,307.83Zm-10.44-1.66h8.25a4.89,4.89,0,0,0-1-3.31,3.2,3.2,0,0,0-2.52-1.15,4.33,4.33,0,0,0-2.79,1.13A6.35,6.35,0,0,0,242.25,306.17Z"/><path class="cls-2" d="M265.72,301.53l-.35,2.23a9.07,9.07,0,0,0-4.9-1.91,2.59,2.59,0,0,0-1.94.63,2,2,0,0,0-.62,1.39,1.88,1.88,0,0,0,.72,1.4c.48.44,1.73,1.36,3.75,2.78q2.63,1.8,2.62,4.21a4,4,0,0,1-1.53,3.2,5.64,5.64,0,0,1-3.72,1.26,9.2,9.2,0,0,1-5.37-2.05l.37-2.45a7.9,7.9,0,0,0,5.14,2.41,3.08,3.08,0,0,0,2-.59,1.85,1.85,0,0,0,.74-1.49,2.26,2.26,0,0,0-.15-.87,4.19,4.19,0,0,0-.88-1.1,15.37,15.37,0,0,0-2.18-1.71,15.32,15.32,0,0,1-2.89-2.39,3.59,3.59,0,0,1-.89-2.43,4,4,0,0,1,1.34-3,5.13,5.13,0,0,1,3.67-1.26A9.19,9.19,0,0,1,265.72,301.53Z"/><path class="cls-2" d="M266.91,320.68l.18-1.44a3.12,3.12,0,0,0,1.73-1,2.05,2.05,0,0,0,.47-1.87,1.86,1.86,0,0,1-1.3-1.73,2,2,0,0,1,.49-1.3,1.8,1.8,0,0,1,1.49-.61,2,2,0,0,1,1.59.74,2.84,2.84,0,0,1,.61,1.85,5.06,5.06,0,0,1-1.39,3.42A5.89,5.89,0,0,1,266.91,320.68Z"/><path class="cls-2" d="M291.68,291.77l-3.56,24.56h-2.31l3.57-24.56Z"/><path class="cls-2" d="M297.4,300.16l-2.34,16.17h-2.3l2.3-16.17Zm.72-4.21a1.56,1.56,0,0,1-1.15.47,1.6,1.6,0,0,1-1.62-1.62,1.56,1.56,0,0,1,.47-1.15,1.63,1.63,0,0,1,2.3,2.3Z"/><path class="cls-2" d="M316.05,291.77l-3.53,24.45a16.42,16.42,0,0,1-4.14.5,9,9,0,0,1-6.19-2,6.63,6.63,0,0,1-2.27-5.23,9.34,9.34,0,0,1,.65-3.37,10.33,10.33,0,0,1,1.91-3.11,9.18,9.18,0,0,1,3.38-2.34,12.31,12.31,0,0,1,4.83-.9c.6,0,1.21,0,1.83.07l1.19-8.07ZM310.4,314.6l1.84-12.82a12.43,12.43,0,0,0-1.41-.07,10.18,10.18,0,0,0-3.58.58,6.89,6.89,0,0,0-2.45,1.42,7.55,7.55,0,0,0-1.46,1.94,8.2,8.2,0,0,0-.77,2,8,8,0,0,0-.2,1.69,5.19,5.19,0,0,0,1.64,4,6,6,0,0,0,4.27,1.51A9.22,9.22,0,0,0,310.4,314.6Z"/><path class="cls-2" d="M330.56,307.83h-10.8c-.05.53-.07,1-.07,1.4a5.74,5.74,0,0,0,1.4,4,4.33,4.33,0,0,0,3.28,1.53,6.21,6.21,0,0,0,1.35-.15,8.11,8.11,0,0,0,1.15-.32,6.36,6.36,0,0,0,1-.5l.82-.51c.17-.12.4-.29.68-.52a4.82,4.82,0,0,1,.49-.38l-.36,2.59a8.45,8.45,0,0,1-5.23,1.73,6.19,6.19,0,0,1-5.21-2.36,8.52,8.52,0,0,1-1.84-5.41,9.29,9.29,0,0,1,2.39-6.66,7.11,7.11,0,0,1,5.2-2.52,5.21,5.21,0,0,1,4.18,1.92,7.45,7.45,0,0,1,1.62,4.95A9.17,9.17,0,0,1,330.56,307.83Zm-10.44-1.66h8.24a4.89,4.89,0,0,0-1-3.31,3.23,3.23,0,0,0-2.53-1.15,4.37,4.37,0,0,0-2.79,1.13A6.28,6.28,0,0,0,320.12,306.17Z"/><path class="cls-2" d="M335.13,300.16h2.3l-.54,4a12.93,12.93,0,0,1,2.42-3.27,3.76,3.76,0,0,1,2.59-1.08,4.86,4.86,0,0,1,1.48.28l-.26,2.38a4.18,4.18,0,0,0-1.47-.36,3,3,0,0,0-1.14.23,4.21,4.21,0,0,0-1,.65c-.33.28-.63.57-.92.87a6.57,6.57,0,0,0-.79,1c-.24.38-.44.68-.6.92l-.48.79-.22.44-1.33,9.36h-2.38Z"/><path class="cls-2" d="M356.8,307.83H346c-.05.53-.07,1-.07,1.4a5.74,5.74,0,0,0,1.4,4,4.33,4.33,0,0,0,3.28,1.53,6.07,6.07,0,0,0,1.35-.15,7.75,7.75,0,0,0,1.15-.32,6.44,6.44,0,0,0,1-.5l.81-.51a7.36,7.36,0,0,0,.68-.52c.28-.23.44-.35.49-.38l-.36,2.59a8.45,8.45,0,0,1-5.22,1.73,6.2,6.2,0,0,1-5.22-2.36,8.52,8.52,0,0,1-1.84-5.41,9.26,9.26,0,0,1,2.4-6.66,7.09,7.09,0,0,1,5.2-2.52,5.21,5.21,0,0,1,4.17,1.92,7.45,7.45,0,0,1,1.62,4.95A9.17,9.17,0,0,1,356.8,307.83Zm-10.44-1.66h8.25a4.89,4.89,0,0,0-1-3.31,3.2,3.2,0,0,0-2.52-1.15,4.33,4.33,0,0,0-2.79,1.13A6.35,6.35,0,0,0,346.36,306.17Z"/><path class="cls-2" d="M369.83,301.53l-.36,2.23a9,9,0,0,0-4.89-1.91,2.63,2.63,0,0,0-1.95.63,2,2,0,0,0-.61,1.39,1.88,1.88,0,0,0,.72,1.4c.48.44,1.73,1.36,3.75,2.78q2.63,1.8,2.62,4.21a4,4,0,0,1-1.53,3.2,5.66,5.66,0,0,1-3.72,1.26,9.2,9.2,0,0,1-5.37-2.05l.36-2.45a8,8,0,0,0,5.15,2.41,3.08,3.08,0,0,0,2-.59,1.85,1.85,0,0,0,.74-1.49,2.26,2.26,0,0,0-.15-.87,4.19,4.19,0,0,0-.88-1.1,15.37,15.37,0,0,0-2.18-1.71,15,15,0,0,1-2.89-2.39,3.59,3.59,0,0,1-.89-2.43,4,4,0,0,1,1.34-3,5.11,5.11,0,0,1,3.67-1.26A9.19,9.19,0,0,1,369.83,301.53Z"/><path class="cls-2" d="M386.79,300.16l-2.38,16.17h-2.3l.29-1.91a7.57,7.57,0,0,1-4.94,2.12,5,5,0,0,1-3.86-1.8,6.41,6.41,0,0,1-1.61-4.43,9.93,9.93,0,0,1,3.13-7.68,11.35,11.35,0,0,1,8-2.86A21.77,21.77,0,0,1,386.79,300.16Zm-4.07,11.92,1.48-10.23a5.86,5.86,0,0,0-1.48-.14,8,8,0,0,0-5.88,2.38,8.18,8.18,0,0,0-2.4,6.08,5.21,5.21,0,0,0,1,3.11,3.16,3.16,0,0,0,2.72,1.39,4.76,4.76,0,0,0,2.57-.81A7.18,7.18,0,0,0,382.72,312.08Z"/><path class="cls-2" d="M399.61,301.53l-.36,2.23a9,9,0,0,0-4.9-1.91,2.59,2.59,0,0,0-1.94.63,2,2,0,0,0-.62,1.39,1.88,1.88,0,0,0,.72,1.4c.48.44,1.73,1.36,3.75,2.78q2.63,1.8,2.62,4.21a4,4,0,0,1-1.52,3.2,5.71,5.71,0,0,1-3.73,1.26,9.15,9.15,0,0,1-5.36-2.05l.35-2.45a8,8,0,0,0,5.15,2.41,3.08,3.08,0,0,0,2-.59,1.85,1.85,0,0,0,.74-1.49,2.48,2.48,0,0,0-.14-.87,4.54,4.54,0,0,0-.89-1.1,14.8,14.8,0,0,0-2.18-1.71,15.32,15.32,0,0,1-2.89-2.39,3.58,3.58,0,0,1-.88-2.43,4,4,0,0,1,1.33-3,5.13,5.13,0,0,1,3.67-1.26A9.24,9.24,0,0,1,399.61,301.53Z"/><path class="cls-2" d="M400.79,320.68l.18-1.44a3.12,3.12,0,0,0,1.73-1,2.05,2.05,0,0,0,.47-1.87,1.86,1.86,0,0,1-1.3-1.73,2.09,2.09,0,0,1,.49-1.3,1.8,1.8,0,0,1,1.49-.61,2,2,0,0,1,1.59.74,2.84,2.84,0,0,1,.61,1.85,5.06,5.06,0,0,1-1.39,3.42A5.89,5.89,0,0,1,400.79,320.68Z"/><path class="cls-2" d="M436,291.77l-3.53,24.45a16.42,16.42,0,0,1-4.14.5,9,9,0,0,1-6.19-2,6.6,6.6,0,0,1-2.27-5.23,9.13,9.13,0,0,1,.65-3.37,10.3,10.3,0,0,1,1.9-3.11,9.13,9.13,0,0,1,3.39-2.34,12.22,12.22,0,0,1,4.82-.9c.6,0,1.21,0,1.84.07l1.19-8.07Zm-5.66,22.83,1.84-12.82a12.25,12.25,0,0,0-1.4-.07,10.24,10.24,0,0,0-3.59.58,6.75,6.75,0,0,0-2.44,1.42,7.33,7.33,0,0,0-1.46,1.94,8.26,8.26,0,0,0-.78,2,8,8,0,0,0-.19,1.69,5.19,5.19,0,0,0,1.63,4,6.06,6.06,0,0,0,4.27,1.51A9.15,9.15,0,0,0,430.38,314.6Z"/><path class="cls-2" d="M450.54,307.83h-10.8c0,.53-.07,1-.07,1.4a5.7,5.7,0,0,0,1.41,4,4.3,4.3,0,0,0,3.27,1.53,6.07,6.07,0,0,0,1.35-.15,7.42,7.42,0,0,0,1.15-.32,6.44,6.44,0,0,0,1-.5l.81-.51a7.36,7.36,0,0,0,.68-.52c.28-.23.44-.35.49-.38L449.5,315a8.45,8.45,0,0,1-5.22,1.73,6.2,6.2,0,0,1-5.22-2.36,8.58,8.58,0,0,1-1.84-5.41,9.26,9.26,0,0,1,2.4-6.66,7.09,7.09,0,0,1,5.2-2.52,5.23,5.23,0,0,1,4.18,1.92,7.45,7.45,0,0,1,1.62,4.95A9.14,9.14,0,0,1,450.54,307.83Zm-10.44-1.66h8.25a4.89,4.89,0,0,0-1-3.31,3.2,3.2,0,0,0-2.52-1.15,4.33,4.33,0,0,0-2.79,1.13A6.35,6.35,0,0,0,440.1,306.17Z"/><path class="cls-2" d="M462.06,300.16l-.28,1.95h-3.57l-3.06,21.13h-2.3l3-21.13H453l.28-1.95h3l.43-2.41a8.82,8.82,0,0,1,1.11-3.1,6.19,6.19,0,0,1,1.82-2,8.07,8.07,0,0,1,2-.95,6.63,6.63,0,0,1,1.89-.29,11.67,11.67,0,0,1,4.14.86l-.32,2.24a7.86,7.86,0,0,0-3.71-1,4.17,4.17,0,0,0-3.15,1.31,6.82,6.82,0,0,0-1.64,3.58l-.29,1.73Z"/><path class="cls-2" d="M475.82,307.83H465c0,.53-.08,1-.08,1.4a5.7,5.7,0,0,0,1.41,4,4.31,4.31,0,0,0,3.27,1.53,6.07,6.07,0,0,0,1.35-.15,7.42,7.42,0,0,0,1.15-.32,6.44,6.44,0,0,0,1-.5l.81-.51c.18-.12.41-.29.69-.52a5.36,5.36,0,0,1,.48-.38l-.36,2.59a8.41,8.41,0,0,1-5.22,1.73,6.21,6.21,0,0,1-5.22-2.36A8.57,8.57,0,0,1,462.5,309a9.25,9.25,0,0,1,2.39-6.66,7.11,7.11,0,0,1,5.2-2.52,5.23,5.23,0,0,1,4.18,1.92,7.45,7.45,0,0,1,1.62,4.95A11.37,11.37,0,0,1,475.82,307.83Zm-10.44-1.66h8.24a4.89,4.89,0,0,0-1-3.31,3.2,3.2,0,0,0-2.52-1.15,4.33,4.33,0,0,0-2.79,1.13A6.28,6.28,0,0,0,465.38,306.17Z"/><path class="cls-2" d="M480.31,300.16h2.35l-.44,3a19.22,19.22,0,0,1,3-2.54,5.33,5.33,0,0,1,2.93-.84,3.67,3.67,0,0,1,3,1.2,4.6,4.6,0,0,1,1,3,13.57,13.57,0,0,1-.14,1.76l-1.55,10.59h-2.31l1.52-10.52a9.77,9.77,0,0,0,.1-1.54c0-1.71-.77-2.56-2.3-2.56a3.93,3.93,0,0,0-1.23.18,6.91,6.91,0,0,0-1.69,1.1,24.56,24.56,0,0,0-2.73,2.64l-1.55,10.7h-2.34Z"/><path class="cls-2" d="M505.33,301.53l-.36,2.23a9,9,0,0,0-4.89-1.91,2.63,2.63,0,0,0-1.95.63,2,2,0,0,0-.61,1.39,1.88,1.88,0,0,0,.72,1.4c.48.44,1.73,1.36,3.75,2.78q2.63,1.8,2.63,4.21a4,4,0,0,1-1.54,3.2,5.66,5.66,0,0,1-3.72,1.26,9.2,9.2,0,0,1-5.37-2.05l.37-2.45a7.9,7.9,0,0,0,5.14,2.41,3.08,3.08,0,0,0,2-.59,1.85,1.85,0,0,0,.74-1.49,2.26,2.26,0,0,0-.15-.87,4,4,0,0,0-.88-1.1,15.78,15.78,0,0,0-2.17-1.71,14.81,14.81,0,0,1-2.9-2.39,3.59,3.59,0,0,1-.89-2.43,4,4,0,0,1,1.34-3,5.11,5.11,0,0,1,3.67-1.26A9.19,9.19,0,0,1,505.33,301.53Z"/><path class="cls-2" d="M521.1,306.61q0,4.78-2.34,7.45a7,7,0,0,1-5.4,2.66,6.69,6.69,0,0,1-1.06-.09,6.3,6.3,0,0,1-1.46-.5,5.22,5.22,0,0,1-1.58-1.12,5.81,5.81,0,0,1-1.19-2.09,9.27,9.27,0,0,1-.5-3.22,10.67,10.67,0,0,1,2.32-7.31,7,7,0,0,1,5.38-2.62,5.5,5.5,0,0,1,4.14,1.76A7.05,7.05,0,0,1,521.1,306.61ZM510,309.77a8.42,8.42,0,0,0,.38,2.69,3.08,3.08,0,0,0,1,1.54,4.59,4.59,0,0,0,1.06.62,2.84,2.84,0,0,0,.89.16,3.85,3.85,0,0,0,2.88-1.35,8.47,8.47,0,0,0,1.85-3.17,11.57,11.57,0,0,0,.59-3.65,6.21,6.21,0,0,0-.91-3.55,3,3,0,0,0-2.58-1.35,4.28,4.28,0,0,0-3.67,2.38A10.58,10.58,0,0,0,510,309.77Z"/><path class="cls-2" d="M525.75,300.16h2.3l-.54,4a13.17,13.17,0,0,1,2.41-3.27,3.78,3.78,0,0,1,2.59-1.08,4.86,4.86,0,0,1,1.48.28l-.25,2.38a4.18,4.18,0,0,0-1.48-.36,3,3,0,0,0-1.13.23,4.46,4.46,0,0,0-1,.65c-.32.28-.62.57-.91.87a6,6,0,0,0-.79,1l-.6.92c-.16.24-.32.51-.49.79l-.21.44-1.33,9.36h-2.38Z"/><path class="cls-2" d="M547.42,307.83h-10.8c0,.53-.07,1-.07,1.4a5.69,5.69,0,0,0,1.4,4,4.33,4.33,0,0,0,3.28,1.53,6.21,6.21,0,0,0,1.35-.15,8.11,8.11,0,0,0,1.15-.32,6.8,6.8,0,0,0,1-.5l.81-.51c.18-.12.41-.29.69-.52s.44-.35.48-.38l-.36,2.59a8.41,8.41,0,0,1-5.22,1.73,6.22,6.22,0,0,1-5.22-2.36A8.57,8.57,0,0,1,534.1,309a9.29,9.29,0,0,1,2.39-6.66,7.11,7.11,0,0,1,5.2-2.52,5.21,5.21,0,0,1,4.18,1.92,7.45,7.45,0,0,1,1.62,4.95A9.17,9.17,0,0,1,547.42,307.83ZM537,306.17h8.24a4.84,4.84,0,0,0-1-3.31,3.2,3.2,0,0,0-2.52-1.15,4.33,4.33,0,0,0-2.79,1.13A6.28,6.28,0,0,0,537,306.17Z"/><path class="cls-2" d="M560.45,301.53l-.36,2.23a9,9,0,0,0-4.9-1.91,2.6,2.6,0,0,0-1.94.63,2,2,0,0,0-.61,1.39,1.88,1.88,0,0,0,.72,1.4c.48.44,1.73,1.36,3.74,2.78q2.63,1.8,2.63,4.21a4,4,0,0,1-1.53,3.2,5.67,5.67,0,0,1-3.73,1.26,9.17,9.17,0,0,1-5.36-2.05l.36-2.45a8,8,0,0,0,5.15,2.41,3.09,3.09,0,0,0,2-.59,1.84,1.84,0,0,0,.73-1.49,2.48,2.48,0,0,0-.14-.87,4.42,4.42,0,0,0-.88-1.1,15.37,15.37,0,0,0-2.18-1.71,15.12,15.12,0,0,1-2.9-2.39,3.58,3.58,0,0,1-.88-2.43,4,4,0,0,1,1.33-3,5.13,5.13,0,0,1,3.67-1.26A9.24,9.24,0,0,1,560.45,301.53Z"/><path class="cls-2" d="M585.83,300.16l-12.21,24.45h-2.51l4.46-8.9-3.06-15.55h2.34l2.34,12.28,6.15-12.28Z"/><path class="cls-2" d="M611.64,291.77l-3.53,24.45a16.42,16.42,0,0,1-4.14.5,9,9,0,0,1-6.19-2,6.63,6.63,0,0,1-2.27-5.23,9.34,9.34,0,0,1,.65-3.37,10.33,10.33,0,0,1,1.91-3.11,9.18,9.18,0,0,1,3.38-2.34,12.31,12.31,0,0,1,4.83-.9c.6,0,1.21,0,1.83.07l1.19-8.07ZM606,314.6l1.83-12.82a12.25,12.25,0,0,0-1.4-.07,10.18,10.18,0,0,0-3.58.58,6.8,6.8,0,0,0-2.45,1.42,7.55,7.55,0,0,0-1.46,1.94,8.2,8.2,0,0,0-.77,2,8,8,0,0,0-.2,1.69,5.19,5.19,0,0,0,1.64,4,6,6,0,0,0,4.26,1.51A9.24,9.24,0,0,0,606,314.6Z"/><path class="cls-2" d="M626.15,307.83h-10.8c-.05.53-.07,1-.07,1.4a5.69,5.69,0,0,0,1.4,4,4.33,4.33,0,0,0,3.28,1.53,6.21,6.21,0,0,0,1.35-.15,8.11,8.11,0,0,0,1.15-.32,6.8,6.8,0,0,0,1-.5l.81-.51c.18-.12.41-.29.69-.52s.44-.35.48-.38L625.1,315a8.41,8.41,0,0,1-5.22,1.73,6.22,6.22,0,0,1-5.22-2.36,8.57,8.57,0,0,1-1.83-5.41,9.25,9.25,0,0,1,2.39-6.66,7.11,7.11,0,0,1,5.2-2.52,5.21,5.21,0,0,1,4.18,1.92,7.45,7.45,0,0,1,1.62,4.95A9.17,9.17,0,0,1,626.15,307.83Zm-10.44-1.66H624a4.84,4.84,0,0,0-1-3.31,3.2,3.2,0,0,0-2.52-1.15,4.33,4.33,0,0,0-2.79,1.13A6.28,6.28,0,0,0,615.71,306.17Z"/><path class="cls-2" d="M637.67,300.16l-.29,1.95h-3.56l-3.06,21.13h-2.31l3-21.13h-2.92l.29-1.95h2.95l.43-2.41a9,9,0,0,1,1.12-3.1,6.08,6.08,0,0,1,1.82-2,7.75,7.75,0,0,1,2-.95,6.52,6.52,0,0,1,1.89-.29,11.67,11.67,0,0,1,4.14.86l-.33,2.24a7.83,7.83,0,0,0-3.71-1,4.17,4.17,0,0,0-3.15,1.31,6.81,6.81,0,0,0-1.63,3.58l-.29,1.73Z"/><path class="cls-2" d="M651.42,307.83h-10.8c0,.53-.07,1-.07,1.4a5.74,5.74,0,0,0,1.4,4,4.33,4.33,0,0,0,3.28,1.53,6.21,6.21,0,0,0,1.35-.15,7.75,7.75,0,0,0,1.15-.32,6.88,6.88,0,0,0,1-.5l.81-.51c.18-.12.4-.29.68-.52s.44-.35.49-.38l-.36,2.59a8.45,8.45,0,0,1-5.22,1.73,6.2,6.2,0,0,1-5.22-2.36A8.52,8.52,0,0,1,638.1,309a9.29,9.29,0,0,1,2.39-6.66,7.11,7.11,0,0,1,5.21-2.52,5.21,5.21,0,0,1,4.17,1.92,7.45,7.45,0,0,1,1.62,4.95A9.17,9.17,0,0,1,651.42,307.83ZM641,306.17h8.24a4.84,4.84,0,0,0-1-3.31,3.19,3.19,0,0,0-2.51-1.15,4.33,4.33,0,0,0-2.79,1.13A6.29,6.29,0,0,0,641,306.17Z"/><path class="cls-2" d="M655.92,300.16h2.34l-.43,3a19.68,19.68,0,0,1,3-2.54,5.36,5.36,0,0,1,2.94-.84,3.66,3.66,0,0,1,3,1.2,4.6,4.6,0,0,1,1,3,13.57,13.57,0,0,1-.14,1.76l-1.55,10.59h-2.3l1.51-10.52a9.65,9.65,0,0,0,.11-1.54c0-1.71-.77-2.56-2.31-2.56a3.86,3.86,0,0,0-1.22.18,6.91,6.91,0,0,0-1.69,1.1,25.41,25.41,0,0,0-2.74,2.64l-1.55,10.7h-2.34Z"/><path class="cls-2" d="M680.94,301.53l-.36,2.23a9,9,0,0,0-4.9-1.91,2.6,2.6,0,0,0-1.94.63,2,2,0,0,0-.61,1.39,1.88,1.88,0,0,0,.72,1.4c.48.44,1.72,1.36,3.74,2.78q2.63,1.8,2.63,4.21a4,4,0,0,1-1.53,3.2,5.67,5.67,0,0,1-3.73,1.26,9.17,9.17,0,0,1-5.36-2.05l.36-2.45a7.93,7.93,0,0,0,5.15,2.41,3.09,3.09,0,0,0,2-.59,1.84,1.84,0,0,0,.73-1.49,2.48,2.48,0,0,0-.14-.87,4.42,4.42,0,0,0-.88-1.1,16,16,0,0,0-2.18-1.71,15.12,15.12,0,0,1-2.9-2.39,3.58,3.58,0,0,1-.88-2.43,4,4,0,0,1,1.33-3,5.13,5.13,0,0,1,3.67-1.26A9.24,9.24,0,0,1,680.94,301.53Z"/><path class="cls-2" d="M696.71,306.61q0,4.78-2.34,7.45a7,7,0,0,1-5.4,2.66,6.81,6.81,0,0,1-1.07-.09,6.25,6.25,0,0,1-1.45-.5,5.39,5.39,0,0,1-1.59-1.12,6,6,0,0,1-1.19-2.09,9.51,9.51,0,0,1-.5-3.22,10.67,10.67,0,0,1,2.32-7.31,7,7,0,0,1,5.39-2.62,5.47,5.47,0,0,1,4.13,1.76A7.05,7.05,0,0,1,696.71,306.61Zm-11.09,3.16a8.15,8.15,0,0,0,.38,2.69,3.08,3.08,0,0,0,1,1.54,4.4,4.4,0,0,0,1.06.62,2.78,2.78,0,0,0,.88.16,3.85,3.85,0,0,0,2.88-1.35,8.34,8.34,0,0,0,1.85-3.17,11.58,11.58,0,0,0,.6-3.65,6.21,6.21,0,0,0-.92-3.55,2.93,2.93,0,0,0-2.57-1.35,4.29,4.29,0,0,0-3.68,2.38A10.58,10.58,0,0,0,685.62,309.77Z"/><path class="cls-2" d="M701.35,300.16h2.3l-.54,4a12.93,12.93,0,0,1,2.42-3.27,3.76,3.76,0,0,1,2.59-1.08,4.75,4.75,0,0,1,1.47.28l-.25,2.38a4.18,4.18,0,0,0-1.47-.36,3,3,0,0,0-1.14.23,4.21,4.21,0,0,0-1,.65c-.33.28-.63.57-.92.87a6.57,6.57,0,0,0-.79,1c-.24.38-.44.68-.6.92l-.48.79-.22.44-1.33,9.36H699Z"/><path class="cls-2" d="M724.35,300.16,722,316.33h-2.31l.29-1.91a7.55,7.55,0,0,1-4.93,2.12,5,5,0,0,1-3.87-1.8,6.4,6.4,0,0,1-1.6-4.43,9.89,9.89,0,0,1,3.13-7.68,11.34,11.34,0,0,1,8-2.86A21.77,21.77,0,0,1,724.35,300.16Zm-4.06,11.92,1.47-10.23a5.71,5.71,0,0,0-1.47-.14,8,8,0,0,0-5.89,2.38,8.17,8.17,0,0,0-2.39,6.08,5.21,5.21,0,0,0,1,3.11,3.14,3.14,0,0,0,2.71,1.39,4.77,4.77,0,0,0,2.58-.81A7.32,7.32,0,0,0,720.29,312.08Z"/><path class="cls-2" d="M737.17,301.53l-.36,2.23a9,9,0,0,0-4.9-1.91,2.62,2.62,0,0,0-1.94.63,2,2,0,0,0-.61,1.39,1.88,1.88,0,0,0,.72,1.4c.48.44,1.73,1.36,3.74,2.78q2.63,1.8,2.63,4.21a4,4,0,0,1-1.53,3.2,5.67,5.67,0,0,1-3.73,1.26,9.17,9.17,0,0,1-5.36-2.05l.36-2.45a8,8,0,0,0,5.15,2.41,3.09,3.09,0,0,0,2-.59,1.84,1.84,0,0,0,.73-1.49,2.27,2.27,0,0,0-.14-.87,4.42,4.42,0,0,0-.88-1.1,15.37,15.37,0,0,0-2.18-1.71,15.45,15.45,0,0,1-2.9-2.39,3.58,3.58,0,0,1-.88-2.43,4,4,0,0,1,1.33-3,5.13,5.13,0,0,1,3.67-1.26A9.24,9.24,0,0,1,737.17,301.53Z"/><path class="cls-2" d="M155.46,327.77l-3.53,24.45a16.42,16.42,0,0,1-4.14.5,9,9,0,0,1-6.19-2,6.63,6.63,0,0,1-2.27-5.23,9.34,9.34,0,0,1,.65-3.37,10.33,10.33,0,0,1,1.91-3.11,9.18,9.18,0,0,1,3.38-2.34,12.31,12.31,0,0,1,4.83-.9c.6,0,1.21,0,1.83.07l1.19-8.07Zm-5.65,22.83,1.83-12.82a12.25,12.25,0,0,0-1.4-.07,10.18,10.18,0,0,0-3.58.58,6.8,6.8,0,0,0-2.45,1.42,7.55,7.55,0,0,0-1.46,1.94,8.2,8.2,0,0,0-.77,2,8,8,0,0,0-.2,1.69,5.19,5.19,0,0,0,1.64,4,6,6,0,0,0,4.26,1.51A9.24,9.24,0,0,0,149.81,350.6Z"/><path class="cls-2" d="M170,343.83h-10.8c0,.53-.07,1-.07,1.4a5.69,5.69,0,0,0,1.4,4,4.33,4.33,0,0,0,3.28,1.53,6.21,6.21,0,0,0,1.35-.15,8.11,8.11,0,0,0,1.15-.32,6.8,6.8,0,0,0,1-.5l.81-.51c.18-.12.41-.29.69-.52s.44-.35.48-.38l-.36,2.59a8.41,8.41,0,0,1-5.22,1.73,6.22,6.22,0,0,1-5.22-2.36,8.57,8.57,0,0,1-1.83-5.41,9.29,9.29,0,0,1,2.39-6.66,7.11,7.11,0,0,1,5.2-2.52,5.21,5.21,0,0,1,4.18,1.92,7.45,7.45,0,0,1,1.62,4.95A9.17,9.17,0,0,1,170,343.83Zm-10.44-1.66h8.24a4.84,4.84,0,0,0-1-3.31,3.2,3.2,0,0,0-2.52-1.15,4.33,4.33,0,0,0-2.79,1.13A6.28,6.28,0,0,0,159.53,342.17Z"/><path class="cls-2" d="M185.7,327.77h3.74a15.55,15.55,0,0,1,5.85,1.05,11.26,11.26,0,0,1,4.23,2.82,12.56,12.56,0,0,1,3.31,8.59,11.72,11.72,0,0,1-3.4,8.73q-3.39,3.36-9.41,3.37H182.1Zm3.49,2.24h-1.33l-3,20.08h3.71a16.43,16.43,0,0,0,5.54-.84,8.41,8.41,0,0,0,3.6-2.31,9.35,9.35,0,0,0,1.83-3.13,10.75,10.75,0,0,0,.58-3.58,12,12,0,0,0-.29-2.59,9.64,9.64,0,0,0-1.08-2.7,9.54,9.54,0,0,0-2-2.49,9.09,9.09,0,0,0-3.17-1.76A13.48,13.48,0,0,0,189.19,330Z"/><path class="cls-2" d="M218.86,343.83H208.05c0,.53-.07,1-.07,1.4a5.7,5.7,0,0,0,1.41,4,4.31,4.31,0,0,0,3.27,1.53,6.07,6.07,0,0,0,1.35-.15,7.91,7.91,0,0,0,1.16-.32,6.8,6.8,0,0,0,1-.5l.81-.51c.18-.12.41-.29.69-.52a5.36,5.36,0,0,1,.48-.38l-.36,2.59a8.41,8.41,0,0,1-5.22,1.73,6.21,6.21,0,0,1-5.22-2.36,8.57,8.57,0,0,1-1.83-5.41,9.25,9.25,0,0,1,2.39-6.66,7.11,7.11,0,0,1,5.2-2.52,5.23,5.23,0,0,1,4.18,1.92,7.45,7.45,0,0,1,1.62,4.95A11.37,11.37,0,0,1,218.86,343.83Zm-10.44-1.66h8.24a4.89,4.89,0,0,0-1-3.31,3.2,3.2,0,0,0-2.52-1.15,4.33,4.33,0,0,0-2.79,1.13A6.28,6.28,0,0,0,208.42,342.17Z"/><path class="cls-2" d="M223.43,336.16h2.3l-.54,4a13.17,13.17,0,0,1,2.41-3.27,3.79,3.79,0,0,1,2.6-1.08,4.85,4.85,0,0,1,1.47.28l-.25,2.38a4.18,4.18,0,0,0-1.48-.36,3,3,0,0,0-1.13.23,4.46,4.46,0,0,0-1.05.65,12.56,12.56,0,0,0-.91.87,6.62,6.62,0,0,0-.8,1l-.59.92c-.16.24-.32.51-.49.79l-.21.44-1.33,9.36h-2.38Z"/><path class="cls-2" d="M245.1,343.83H234.3c-.05.53-.07,1-.07,1.4a5.69,5.69,0,0,0,1.4,4,4.33,4.33,0,0,0,3.28,1.53,6.21,6.21,0,0,0,1.35-.15,8.11,8.11,0,0,0,1.15-.32,6.8,6.8,0,0,0,1-.5l.81-.51c.18-.12.41-.29.69-.52s.44-.35.48-.38l-.36,2.59a8.41,8.41,0,0,1-5.22,1.73,6.22,6.22,0,0,1-5.22-2.36,8.57,8.57,0,0,1-1.83-5.41,9.29,9.29,0,0,1,2.39-6.66,7.11,7.11,0,0,1,5.2-2.52,5.21,5.21,0,0,1,4.18,1.92,7.45,7.45,0,0,1,1.62,4.95A9.17,9.17,0,0,1,245.1,343.83Zm-10.44-1.66h8.24a4.84,4.84,0,0,0-1-3.31,3.2,3.2,0,0,0-2.52-1.15,4.33,4.33,0,0,0-2.79,1.13A6.28,6.28,0,0,0,234.66,342.17Z"/><path class="cls-2" d="M260.65,336.05l-.32,2.24a12.69,12.69,0,0,0-2.85-.36,6.85,6.85,0,0,0-5.31,2.28,7.51,7.51,0,0,0-2.07,5.17,5.87,5.87,0,0,0,1.21,3.67,4.41,4.41,0,0,0,3.76,1.58,9.05,9.05,0,0,0,4.5-1.47l-.36,2.45a10,10,0,0,1-4.46,1.11,6.74,6.74,0,0,1-5.22-2,7.43,7.43,0,0,1-1.88-5.24,9.56,9.56,0,0,1,.63-3.4,10.55,10.55,0,0,1,1.84-3.1,8.7,8.7,0,0,1,3.2-2.3,11.08,11.08,0,0,1,4.52-.88A15.6,15.6,0,0,1,260.65,336.05Z"/><path class="cls-2" d="M265.11,327.77h2.34l-1.62,11.38a19.22,19.22,0,0,1,3-2.54,5.31,5.31,0,0,1,2.93-.84,3.67,3.67,0,0,1,3,1.2,4.6,4.6,0,0,1,1,3,12.15,12.15,0,0,1-.15,1.76l-1.54,10.59h-2.31l1.52-10.52a9.77,9.77,0,0,0,.1-1.54c0-1.71-.77-2.56-2.3-2.56a3.82,3.82,0,0,0-1.22.18,6.91,6.91,0,0,0-1.7,1.1,25.46,25.46,0,0,0-2.73,2.64l-1.55,10.7h-2.34Z"/><path class="cls-2" d="M292,342.61q0,4.78-2.34,7.45a7,7,0,0,1-5.4,2.66,6.6,6.6,0,0,1-1.06-.09,6.14,6.14,0,0,1-1.46-.5,5.39,5.39,0,0,1-1.59-1.12,5.8,5.8,0,0,1-1.18-2.09,9.26,9.26,0,0,1-.51-3.22,10.67,10.67,0,0,1,2.33-7.31,7,7,0,0,1,5.38-2.62,5.5,5.5,0,0,1,4.14,1.76A7.1,7.1,0,0,1,292,342.61Zm-11.09,3.16a8.42,8.42,0,0,0,.38,2.69,3.08,3.08,0,0,0,1,1.54,4.59,4.59,0,0,0,1.06.62,2.83,2.83,0,0,0,.88.16,3.85,3.85,0,0,0,2.88-1.35,8.49,8.49,0,0,0,1.86-3.17,11.86,11.86,0,0,0,.59-3.65,6.21,6.21,0,0,0-.92-3.55,2.93,2.93,0,0,0-2.57-1.35,4.26,4.26,0,0,0-3.67,2.38A10.49,10.49,0,0,0,280.88,345.77Z"/><path class="cls-2" d="M305.07,337.53l-.36,2.23a9,9,0,0,0-4.89-1.91,2.63,2.63,0,0,0-1.95.63,2,2,0,0,0-.61,1.39,1.88,1.88,0,0,0,.72,1.4c.48.44,1.73,1.36,3.74,2.78,1.76,1.2,2.63,2.6,2.63,4.21a4,4,0,0,1-1.53,3.2,5.66,5.66,0,0,1-3.72,1.26,9.2,9.2,0,0,1-5.37-2.05l.36-2.45a8,8,0,0,0,5.15,2.41,3.08,3.08,0,0,0,2-.59,1.85,1.85,0,0,0,.74-1.49,2.26,2.26,0,0,0-.15-.87,4.19,4.19,0,0,0-.88-1.1,15.37,15.37,0,0,0-2.18-1.71,15,15,0,0,1-2.89-2.39,3.59,3.59,0,0,1-.89-2.43,4,4,0,0,1,1.34-3,5.11,5.11,0,0,1,3.67-1.26A9.19,9.19,0,0,1,305.07,337.53Z"/><path class="cls-2" d="M340.17,327.77l-3.53,24.56h-2.55l1.65-11.27H321.06l-1.62,11.27h-2.52l3.52-24.56H323l-1.62,11.06h14.69l1.55-11.06Z"/><path class="cls-2" d="M353.85,352.33h-2.34l.43-3a19.21,19.21,0,0,1-3,2.54,5.36,5.36,0,0,1-2.94.84,3.66,3.66,0,0,1-3-1.2,4.6,4.6,0,0,1-1-3,13.57,13.57,0,0,1,.14-1.76l1.55-10.59H346l-1.51,10.51a9.88,9.88,0,0,0-.11,1.55c0,1.71.77,2.56,2.31,2.56a3.86,3.86,0,0,0,1.22-.18,6.73,6.73,0,0,0,1.69-1.1,24.7,24.7,0,0,0,2.74-2.65l1.55-10.69h2.34Z"/><path class="cls-2" d="M360.37,336.16h2.3l-.39,2.85.36-.36.43-.44.45-.41.52-.45.52-.41a3.14,3.14,0,0,1,.61-.4l.65-.31a3.26,3.26,0,0,1,.72-.25l.74-.14a4.43,4.43,0,0,1,.83-.07q3.06,0,3.81,3.6,3.06-3.6,6.12-3.6a3.88,3.88,0,0,1,2.92,1.11,4.13,4.13,0,0,1,1.08,3,17.43,17.43,0,0,1-.18,2l-1.48,10.44H378l1.52-10.66a10.94,10.94,0,0,0,.1-1.51c0-1.63-.7-2.45-2.12-2.45q-2.62,0-5.62,3.71l-1.54,10.91H368l1.4-9.83a10.12,10.12,0,0,0,.22-2.31,4.06,4.06,0,0,0-.13-.9,2.29,2.29,0,0,0-.68-1,2,2,0,0,0-1.43-.54,4.71,4.71,0,0,0-1.85.38,5.58,5.58,0,0,0-1.71,1.19c-.55.54-.92.91-1.1,1.11s-.46.56-.84,1.06l-1.62,10.88H358Z"/><path class="cls-2" d="M399.43,336.16l-2.38,16.17h-2.3l.29-1.91a7.59,7.59,0,0,1-4.94,2.12,5,5,0,0,1-3.87-1.8,6.45,6.45,0,0,1-1.6-4.43,9.93,9.93,0,0,1,3.13-7.68,11.34,11.34,0,0,1,8-2.86A21.87,21.87,0,0,1,399.43,336.16Zm-4.07,11.92,1.48-10.23a5.86,5.86,0,0,0-1.48-.14,8,8,0,0,0-5.89,2.38,8.21,8.21,0,0,0-2.39,6.08,5.21,5.21,0,0,0,1,3.11,3.16,3.16,0,0,0,2.72,1.39,4.76,4.76,0,0,0,2.57-.81A7.32,7.32,0,0,0,395.36,348.08Z"/><path class="cls-2" d="M403.71,336.16h2.34l-.43,3a19.68,19.68,0,0,1,3-2.54,5.36,5.36,0,0,1,2.94-.84,3.69,3.69,0,0,1,3,1.2,4.6,4.6,0,0,1,1,3,12.15,12.15,0,0,1-.15,1.76l-1.55,10.59h-2.3l1.51-10.52a9.65,9.65,0,0,0,.11-1.54c0-1.71-.77-2.56-2.3-2.56a3.88,3.88,0,0,0-1.23.18A6.91,6.91,0,0,0,408,339a25.41,25.41,0,0,0-2.74,2.64l-1.54,10.7h-2.34Z"/><path class="cls-2" d="M431.76,342.61c0,3.19-.79,5.67-2.34,7.45a7.05,7.05,0,0,1-5.4,2.66,6.81,6.81,0,0,1-1.07-.09,6.1,6.1,0,0,1-1.45-.5,5.26,5.26,0,0,1-1.59-1.12,6,6,0,0,1-1.19-2.09,9.51,9.51,0,0,1-.5-3.22,10.67,10.67,0,0,1,2.32-7.31,7,7,0,0,1,5.38-2.62,5.49,5.49,0,0,1,4.14,1.76A7.05,7.05,0,0,1,431.76,342.61Zm-11.09,3.16a8.44,8.44,0,0,0,.37,2.69,3.15,3.15,0,0,0,1,1.54,4.4,4.4,0,0,0,1.06.62,2.78,2.78,0,0,0,.88.16,3.85,3.85,0,0,0,2.88-1.35,8.34,8.34,0,0,0,1.85-3.17,11.58,11.58,0,0,0,.6-3.65,6.21,6.21,0,0,0-.92-3.55,2.93,2.93,0,0,0-2.57-1.35,4.29,4.29,0,0,0-3.68,2.38A10.58,10.58,0,0,0,420.67,345.77Z"/><path class="cls-2" d="M444.86,337.53l-.36,2.23a9,9,0,0,0-4.9-1.91,2.6,2.6,0,0,0-1.94.63,2,2,0,0,0-.61,1.39,1.88,1.88,0,0,0,.72,1.4c.48.44,1.73,1.36,3.74,2.78q2.63,1.8,2.63,4.21a4,4,0,0,1-1.53,3.2,5.67,5.67,0,0,1-3.73,1.26,9.17,9.17,0,0,1-5.36-2.05l.36-2.45a7.93,7.93,0,0,0,5.15,2.41,3.09,3.09,0,0,0,2-.59,1.84,1.84,0,0,0,.73-1.49,2.48,2.48,0,0,0-.14-.87,4.42,4.42,0,0,0-.88-1.1,15.37,15.37,0,0,0-2.18-1.71,15.12,15.12,0,0,1-2.9-2.39,3.58,3.58,0,0,1-.88-2.43,4,4,0,0,1,1.33-3,5.13,5.13,0,0,1,3.67-1.26A9.24,9.24,0,0,1,444.86,337.53Z"/><path class="cls-2" d="M447.76,349.32a1.95,1.95,0,1,1,0,2.77,2,2,0,0,1,0-2.77Z"/><polyline class="cls-3" points="89 0 0 81.78 89 81.78"/><circle class="cls-2" cx="797" cy="104.78" r="13"/></g></g></svg>