<svg xmlns="http://www.w3.org/2000/svg" viewBox="0 0 201 61"><defs><style>.cls-1{fill:none;stroke:#003163;stroke-miterlimit:10;}.cls-2{fill:#003163;}</style></defs><g id="Capa_2" data-name="Capa 2"><g id="Capa_1-2" data-name="Capa 1"><path class="cls-1" d="M161.53,60.5H39.47C18,60.5.5,47.07.5,30.5h0C.5,13.93,18,.5,39.47.5H161.53c21.52,0,39,13.43,39,30h0C200.5,47.07,183.05,60.5,161.53,60.5Z"/><path class="cls-2" d="M44.81,21.45v3.36a12.77,12.77,0,0,0-5.26-1.59,4.46,4.46,0,0,0-1.17.14,2.57,2.57,0,0,0-.75.28,1.24,1.24,0,0,0-.37.39,1.53,1.53,0,0,0-.16.33,1.65,1.65,0,0,0,0,.21,1,1,0,0,0,.25.66,2.88,2.88,0,0,0,.89.61c.42.21.81.38,1.17.52L41,27a13,13,0,0,1,1.6.69,8.35,8.35,0,0,1,1.4,1,4.16,4.16,0,0,1,1.12,1.49,5,5,0,0,1,.39,2,4.31,4.31,0,0,1-.63,2.34A4.18,4.18,0,0,1,43.25,36a9.66,9.66,0,0,1-2,.76,9,9,0,0,1-2.06.24,10.79,10.79,0,0,1-3.49-.59,10.45,10.45,0,0,1-2.29-1V31.86c.64.4,1.18.72,1.61,1a11.65,11.65,0,0,0,1.81.72,7.38,7.38,0,0,0,2.27.37c1.63,0,2.45-.49,2.45-1.48a1.26,1.26,0,0,0-.63-1.14,12.33,12.33,0,0,0-2.47-1c-.59-.21-1.08-.4-1.47-.56a11.33,11.33,0,0,1-1.4-.7,5.75,5.75,0,0,1-1.28-1,4.56,4.56,0,0,1-.83-1.36,4.64,4.64,0,0,1-.35-1.81,4.13,4.13,0,0,1,1.62-3.32,7,7,0,0,1,4.57-1.33A14,14,0,0,1,44.81,21.45Z"/><path class="cls-2" d="M52.44,20.39V36.76H48.31V20.39Z"/><path class="cls-2" d="M71.43,21.52v3.55a14.62,14.62,0,0,0-6.1-1.49,7,7,0,0,0-3.75.94A4.76,4.76,0,0,0,60,26.2a4.82,4.82,0,0,0-.64,2.52,4.34,4.34,0,0,0,1.59,3.54,5.78,5.78,0,0,0,3.81,1.31A8,8,0,0,0,67.68,33V31.07H65.33V28h6.5v6.75a8.71,8.71,0,0,1-3.12,1.63,13.22,13.22,0,0,1-3.89.58A11.57,11.57,0,0,1,60,36a8.44,8.44,0,0,1-3.53-2.91,7.67,7.67,0,0,1-1.35-4.5,7.56,7.56,0,0,1,2.76-6.1A10.74,10.74,0,0,1,65,20.18,16.67,16.67,0,0,1,71.43,21.52Z"/><path class="cls-2" d="M91.68,20.39V29.3a7.78,7.78,0,0,1-1.42,5Q88.06,37,83.38,37t-6.89-2.91a7.59,7.59,0,0,1-1.25-4.65v-9h4.13V28.5a8.58,8.58,0,0,0,.29,2.55,3.35,3.35,0,0,0,1.44,2,4.32,4.32,0,0,0,2.35.67A3.88,3.88,0,0,0,86,32.93a4.15,4.15,0,0,0,1.29-1.64,8.55,8.55,0,0,0,.29-2.79V20.39Z"/><path class="cls-2" d="M99.34,20.39V36.76H95.21V20.39Z"/><path class="cls-2" d="M115.06,33.76v3H103V20.39h11.91v3.05h-7.78v3.31h7.42v3.07h-7.42v3.94Z"/><path class="cls-2" d="M134.69,20.39V36.76h-3.41l-9-10.13V36.76h-4V20.39h3.72L130.66,30V20.39Z"/><path class="cls-2" d="M153.12,20.39v3.07h-5.9v13.3h-4.16V23.46h-5.92V20.39Z"/><path class="cls-2" d="M167.66,33.76v3H155.59V20.39H167.5v3.05h-7.78v3.31h7.42v3.07h-7.42v3.94Z"/></g></g></svg>