<svg xmlns="http://www.w3.org/2000/svg" xmlns:xlink="http://www.w3.org/1999/xlink" viewBox="0 0 300 300"><defs><style>.cls-1{fill:none;}.cls-2{fill:url(#Degradado_sin_nombre_89);}.cls-3{clip-path:url(#clip-path);}.cls-4{fill:#8c5d37;}.cls-5{fill:#aa703c;}.cls-6{fill:#724622;}.cls-7{fill:#edd443;}.cls-8{clip-path:url(#clip-path-2);}.cls-9{fill:#c98831;}</style><linearGradient id="Degradado_sin_nombre_89" y1="150" x2="300" y2="150" gradientUnits="userSpaceOnUse"><stop offset="0" stop-color="#fff"/><stop offset="1" stop-color="#b4b7b8"/></linearGradient><clipPath id="clip-path"><circle class="cls-1" cx="150" cy="150" r="150"/></clipPath><clipPath id="clip-path-2"><path class="cls-1" d="M56.16,293.4c-1.78-16.27.86-36.28,3.7-52.1,3.92-23.7,6.4-42.28,25.3-58.81,12.29-10.74,28.5-15.68,44.08-17.37.39-7.77-.37-10.84,8.82-13.09,6.47-1.56,13.25-.69,19.9-.86,4.93.06,11.83-.85,16.59.63,6.19,1.65,6.45,9,6.57,15.3,7.78.38,15.94,6.34,22.09,10.45,8.41,5.21,16.23,11.21,22.19,19.21,12.67,16.25,21.36,39.69,24.68,59.63,1.29,7.2,1.9,14.5,2.85,21.75.41,3.1,2.74,18.25-.29,16.54Z"/></clipPath></defs><g id="Capa_2" data-name="Capa 2"><g id="Capa_1-2" data-name="Capa 1"><circle class="cls-2" cx="150" cy="150" r="150"/><g class="cls-3"><path class="cls-4" d="M111,92.82c-7.9-2.86-16.75,1.67-18.42,11.24-2.11,12.09,9.2,23.23,20.81,15.4a14.41,14.41,0,0,0,3.66-3.37Z"/><path class="cls-4" d="M185,115.94c1.57,1.9,7,1.44,9.37,1.14,5.69-.75,10.17-4.76,12.38-10,4.14-10.56-5.32-22.48-16.86-18.07-.48.32-1,.39-1.49.72Z"/><path d="M191.3,25.82C186,13.6,175.67,7.06,162.7,4.54,141.36.49,115.22,10,106,30.41,97.64,49,102.51,73.9,107.3,93.74c10.09-5.17,5.09-28,2.89-35.69,11.73-5,11.9-19.73,11.19-31.23,5.31.36,10.05,2.37,15.78,1.88,5.21-.42,35.24-.41,43.71-4.15,1.54,11.77,4.25,22.74,13,30.81C194.19,45.25,195.29,35.43,191.3,25.82Z"/><path class="cls-5" d="M137.16,28.7c-5.73.49-10.47-1.52-15.78-1.88.71,11.5.54,26.27-11.19,31.23,2.2,7.73,7.2,30.52-2.89,35.69.34,1.38.67,2.74,1,4.07,4.12,16.42,13.28,36.29,31.5,39.64A223.09,223.09,0,0,1,136,160.37l38.75.89s-3.35-18.22-4.07-26.12a60.17,60.17,0,0,0,13.59-10.42c9.56-9.42,8.2-19.78,8.42-32.18.28-11.89.86-23.56,1.18-35.19,0-.66,0-1.32,0-2-8.78-8.07-11.49-19-13-30.81C172.4,28.29,142.37,28.28,137.16,28.7Z"/><path class="cls-6" d="M140,110.25a12.14,12.14,0,0,0,4.18,7.35,14.74,14.74,0,0,0,7.82,3.09,18.37,18.37,0,0,0,8.43-1.1,14,14,0,0,0,6.71-5.26,11.58,11.58,0,0,1-2.65,3.54,14.83,14.83,0,0,1-3.77,2.43,17.2,17.2,0,0,1-8.82,1.38,14.33,14.33,0,0,1-8.22-3.5,11.55,11.55,0,0,1-2.66-3.62A12,12,0,0,1,140,110.25Z"/><path class="cls-6" d="M150.46,102a13.19,13.19,0,0,0,5.9,1,12.42,12.42,0,0,0,5.65-1.59,9,9,0,0,0,2.24-1.82,8.79,8.79,0,0,0,.84-1.16,9.56,9.56,0,0,0,.56-1.31,10.24,10.24,0,0,0,.13-5.73,20.5,20.5,0,0,0-2.33-5.44c-1-1.73-2.18-3.4-3.12-5.22a31.18,31.18,0,0,1-2.41-5.64,24.27,24.27,0,0,1-1-6A28.82,28.82,0,0,0,161,80.32c2,3.44,4.7,6.68,5.75,10.8a11.21,11.21,0,0,1-.24,6.26,8.29,8.29,0,0,1-.66,1.46,8.15,8.15,0,0,1-1,1.29,8.36,8.36,0,0,1-2.51,1.92,12.91,12.91,0,0,1-6,1.4A12.58,12.58,0,0,1,150.46,102Z"/><path d="M132.42,51.45c-2.26,1.52-7.89,2.79-5.44-2.63,1-2.77,6.64-5.61,8.48-2.34a2.14,2.14,0,0,1-.16,2.83Z"/><path d="M172.4,50.42c2.57.89,8.34.66,4.57-3.94-1.72-2.41-7.86-3.71-8.79-.07a2.14,2.14,0,0,0,.88,2.69Z"/><path d="M135.91,72.68c.36,2.81-.81,5.28-2.64,5.52s-3.6-1.85-4-4.66.81-5.28,2.64-5.52S135.54,69.86,135.91,72.68Z"/><path d="M175.81,71.66c.37,2.81-.81,5.28-2.63,5.52s-3.61-1.84-4-4.66.8-5.28,2.63-5.52S175.44,68.85,175.81,71.66Z"/><path class="cls-7" d="M56.16,293.4c-1.78-16.27.86-36.28,3.7-52.1,3.92-23.7,6.4-42.28,25.3-58.81,12.29-10.74,28.5-15.68,44.08-17.37.39-7.77-.37-10.84,8.82-13.09,6.47-1.56,13.25-.69,19.9-.86,4.93.06,11.83-.85,16.59.63,6.19,1.65,6.45,9,6.57,15.3,7.78.38,15.94,6.34,22.09,10.45,8.41,5.21,16.23,11.21,22.19,19.21,12.67,16.25,21.36,39.69,24.68,59.63,1.29,7.2,1.9,14.5,2.85,21.75.41,3.1,2.74,18.25-.29,16.54Z"/><g class="cls-8"><path class="cls-9" d="M137.5,151.4c-.21,2.53-.47,5.08-.62,7.62s-.18,5.1-.33,7.64c0-2.55-.17-5.09-.2-7.65s.1-5.11.15-7.67Z"/><path class="cls-9" d="M144.6,150.89a51.66,51.66,0,0,1-.46,7.79,52.51,52.51,0,0,0-.51,7.72,52.89,52.89,0,0,1,0-7.76,50.45,50.45,0,0,0,0-7.68Z"/><path class="cls-9" d="M152.52,150a56.57,56.57,0,0,1,.2,8.72c-.08,2.89-.26,5.77-.14,8.66-.29-2.88-.27-5.78-.36-8.66a56.48,56.48,0,0,0-.69-8.56Z"/><path class="cls-9" d="M159.55,150.37c.14,5.68-.67,11.25-.27,16.87-.73-5.58-.26-11.27-.73-16.82Z"/><path class="cls-9" d="M166.5,150.13c.3,2.93.61,5.86.8,8.81.06,1.48.18,2.93.27,4.41.05.73.09,1.47.11,2.21,0,.37,0,.74,0,1.1a2.3,2.3,0,0,1-.18,1.08,2.3,2.3,0,0,0,.12-1.08c0-.36,0-.73-.08-1.09-.06-.74-.15-1.47-.24-2.2-.18-1.45-.39-2.92-.53-4.38-.35-2.92-.82-5.82-1.28-8.73Z"/><path class="cls-9" d="M173,150.69c.29,2.75.68,5.5,1,8.27l.42,4.15.2,2.07.07,1a4.56,4.56,0,0,1,0,.52,1.23,1.23,0,0,1,0,.27s0,.11-.08.06a.75.75,0,0,1-.07-.12c0,.08.13.19.14.05a2.25,2.25,0,0,0,0-.26c0-.17,0-.34,0-.51l-.14-1-.33-2.06-.67-4.11c-.45-2.74-1-5.46-1.45-8.21Z"/></g><path class="cls-9" d="M77.9,219.53c.1.57.17,1.15.27,1.71s.21,1.14.36,1.69a35,35,0,0,0,3.78,9.52,22,22,0,0,0,4.22,5.28,12.73,12.73,0,0,0,6,3.06c-.57-.06-1.16-.11-1.74-.2s-1.14-.3-1.69-.49-1.09-.49-1.6-.79-1-.62-1.47-1a18.79,18.79,0,0,1-4.6-5.37,26.65,26.65,0,0,1-2.69-6.49A23,23,0,0,1,77.9,219.53Z"/><path class="cls-9" d="M94.19,213.18c-.39,3.35-.72,6.71-.93,10.08s-.42,6.73-.53,10.1c-.23,6.74-.33,13.48-.35,20.23s-.48,13.51-.71,20.25c0,1.68-.11,3.37-.1,5.05s.1,3.36.13,5.06c0,3.36,0,6.84-1.14,10a29.16,29.16,0,0,0,.65-10c-.09-1.68-.21-3.36-.28-5.06s0-3.38,0-5.08c.07-6.76.47-13.5.48-20.24s.19-13.51.59-20.26A167.84,167.84,0,0,1,94.19,213.18Z"/><path class="cls-9" d="M224.69,212.13a16.68,16.68,0,0,1,.93,6.84,25.3,25.3,0,0,1-1.29,6.84,22.13,22.13,0,0,1-3.14,6.23c-.18.23-.34.47-.53.7l-.59.65a9.6,9.6,0,0,1-1.27,1.2,9.06,9.06,0,0,1-3.06,1.63l.74-.43a3.79,3.79,0,0,0,.72-.45,9.62,9.62,0,0,0,1.27-1.11,9.44,9.44,0,0,0,1.12-1.25l.52-.67c.16-.23.3-.47.45-.71a27.49,27.49,0,0,0,2.82-6.1,32.92,32.92,0,0,0,1.48-6.59,25.43,25.43,0,0,0,.17-3.38c0-.57-.06-1.13-.09-1.7S224.77,212.7,224.69,212.13Z"/><path class="cls-9" d="M212.41,210.84c1.11,6.92,2,13.87,2.67,20.84s1.22,13.95,1.72,20.93.81,14,1.13,21,.56,14,.76,21h0l.09.82v.1s0,0,0,0v-.07l0-.21,0-.41.07.41,0,.21v.07c-.08,0,0,0,0,0l0-.1-.13-.82h0c-.57-7-1-14-1.47-20.94l-1.32-20.95c-.41-7-.94-14-1.49-20.93S213.12,217.81,212.41,210.84Z"/></g></g></g></svg>