<svg xmlns="http://www.w3.org/2000/svg" viewBox="0 0 60 60"><defs><style>.cls-1{fill:#004e97;}.cls-2{fill:#fff;}</style></defs><g id="Capa_2" data-name="Capa 2"><g id="Capa_1-2" data-name="Capa 1"><rect class="cls-1" width="60" height="60" rx="12"/><circle class="cls-2" cx="50.28" cy="9.7" r="4.11"/><path class="cls-2" d="M45.08,17.75H14.25A2.55,2.55,0,0,0,12,20.06c-.37,2,.8,3.8,2.3,3.8H45.1a2.55,2.55,0,0,0,2.28-2.32C47.75,19.54,46.58,17.75,45.08,17.75Zm-1.44,4.58H15.71c-.59,0-1.07-.69-1.07-1.53s.48-1.52,1.07-1.52H43.64c.59,0,1.07.68,1.07,1.52S44.23,22.33,43.64,22.33Z"/><path class="cls-2" d="M45.08,30H14.25A2.55,2.55,0,0,0,12,32.27c-.37,2,.8,3.8,2.3,3.8H45.1a2.55,2.55,0,0,0,2.28-2.32C47.75,31.75,46.58,30,45.08,30Zm-1.44,4.58H15.71c-.59,0-1.07-.69-1.07-1.53s.48-1.52,1.07-1.52H43.64c.59,0,1.07.68,1.07,1.52S44.23,34.54,43.64,34.54Z"/><path class="cls-2" d="M45.08,40.64H14.25A2.55,2.55,0,0,0,12,43c-.37,2,.8,3.79,2.3,3.79H45.1a2.55,2.55,0,0,0,2.28-2.31C47.75,42.43,46.58,40.64,45.08,40.64Zm-1.44,4.58H15.71c-.59,0-1.07-.68-1.07-1.52s.48-1.53,1.07-1.53H43.64c.59,0,1.07.69,1.07,1.53S44.23,45.22,43.64,45.22Z"/></g></g></svg>