<svg xmlns="http://www.w3.org/2000/svg" viewBox="0 0 60 60"><defs><style>.cls-1{fill:#004e97;}.cls-2{fill:#fff;}.cls-3{fill:none;stroke:#fff;stroke-miterlimit:10;stroke-width:3px;}</style></defs><g id="Capa_2" data-name="Capa 2"><g id="Capa_1-2" data-name="Capa 1"><rect class="cls-1" width="60" height="60" rx="12" transform="translate(60 60) rotate(-180)"/><circle class="cls-2" cx="9.72" cy="9.7" r="4.11"/><path class="cls-3" d="M27.49,44.68h0a3.59,3.59,0,0,0,0-5.07l-2.67-2.68a.65.65,0,0,1,.46-1.11H46.21a3.58,3.58,0,0,0,3.58-3.58h0a3.58,3.58,0,0,0-3.58-3.59H25.28a.65.65,0,0,1-.46-1.11l2.67-2.67a3.59,3.59,0,0,0,0-5.07h0a3.57,3.57,0,0,0-5.06,0L12.06,30.16a3,3,0,0,0,0,4.15L22.43,44.68A3.57,3.57,0,0,0,27.49,44.68Z"/></g></g></svg>