<svg xmlns="http://www.w3.org/2000/svg" viewBox="0 0 60 60"><defs><style>.cls-1{fill:#004e97;}.cls-2{fill:#fff;}.cls-3{fill:none;stroke:#fff;stroke-miterlimit:10;stroke-width:3px;}</style></defs><g id="Capa_2" data-name="Capa 2"><g id="Capa_1-2" data-name="Capa 1"><rect class="cls-1" width="60" height="60" rx="12"/><circle class="cls-2" cx="50.28" cy="9.7" r="4.11"/><path class="cls-3" d="M32.5,19.8h0a3.59,3.59,0,0,0,0,5.07l2.68,2.67a.65.65,0,0,1-.46,1.11H13.79a3.59,3.59,0,0,0-3.59,3.59h0a3.58,3.58,0,0,0,3.59,3.58H34.72a.65.65,0,0,1,.46,1.11L32.5,39.61a3.59,3.59,0,0,0,0,5.07h0a3.59,3.59,0,0,0,5.07,0L47.93,34.31a2.93,2.93,0,0,0,0-4.15L37.57,19.8A3.59,3.59,0,0,0,32.5,19.8Z"/></g></g></svg>