<svg xmlns="http://www.w3.org/2000/svg" viewBox="0 0 60 60"><defs><style>.cls-1{fill:#004e97;}.cls-2{fill:#fff;}</style></defs><g id="Capa_2" data-name="Capa 2"><g id="Capa_1-2" data-name="Capa 1"><rect class="cls-1" width="60" height="60" rx="12"/><circle class="cls-2" cx="50.28" cy="9.7" r="4.11"/><path class="cls-2" d="M40.93,48a3.34,3.34,0,0,1-2.35-1l-9-9-9,9a3.33,3.33,0,0,1-4.69,0l-2-2a3.33,3.33,0,0,1,0-4.69l9-9-9-9a3.33,3.33,0,0,1,0-4.69l2-2a3.32,3.32,0,0,1,4.69,0l9,9,9-9a3.31,3.31,0,0,1,4.69,0l2,2a3.33,3.33,0,0,1,0,4.69l-9,9,9,9a3.33,3.33,0,0,1,0,4.69l-2,2A3.3,3.3,0,0,1,40.93,48ZM29.56,34.56a1.38,1.38,0,0,1,1,.42l10,10a.5.5,0,0,0,.68,0l2-2a.48.48,0,0,0,0-.68l-10-10a1.41,1.41,0,0,1,0-2l10-10a.48.48,0,0,0,0-.68l-2-2a.48.48,0,0,0-.68,0l-10,10a1.46,1.46,0,0,1-2,0l-10-10a.48.48,0,0,0-.68,0l-2,2a.49.49,0,0,0,0,.68l10,10a1.41,1.41,0,0,1,0,2l-10,10a.47.47,0,0,0,0,.67l2,2a.5.5,0,0,0,.68,0l10-10A1.38,1.38,0,0,1,29.56,34.56Z"/></g></g></svg>